{
DisplayStrings = (
"G/Gbreve/Idotaccent/Scedilla g/gbreve/scedilla"
);
classes = (
{
automatic = 1;
code = "A Aacute Acircumflex Adieresis Agrave Aring Atilde AE B C Ccedilla D Eth E Eacute Ecircumflex Edieresis Egrave F G H I Iacute Icircumflex Idieresis Igrave J K L Lslash M N Ntilde O Oacute Ocircumflex Odieresis Ograve Oslash Otilde OE P Thorn Q R S Scaron T U Uacute Ucircumflex Udieresis Ugrave V W X Y Yacute Ydieresis Z Zcaron A-cy Be-cy Ve-cy Ge-cy De-cy Ie-cy Io-cy Zhe-cy Ze-cy Ii-cy ShortI-cy Ka-cy El-cy Em-cy En-cy O-cy Pe-cy Er-cy Es-cy Te-cy U-cy Ef-cy Ha-cy Che-cy Tse-cy Sha-cy Shcha-cy Ia-cy Softsign-cy Hardsign-cy Yeru-cy Ereversed-cy Iu-cy Kadescender-cy Endescender-cy Delta Omega";
name = Uppercase;
}
);
copyright = "Copyright \U00A9 2012 by Yanone. All rights reserved.";
customParameters = (
{
name = openTypeNameLicense;
value = "SIL Open Font License";
},
{
name = openTypeNameLicenseURL;
value = "http://scripts.sil.org/OFL";
}
);
date = "2012-04-30 10:15:35 +0000";
designer = "Yanone (Cyrillic: Daniel Pouzeot)";
designerURL = "http://yanone.de";
familyName = "Yanone Kaffeesatz";
featurePrefixes = (
{
automatic = 1;
code = "languagesystem DFLT dflt;\012languagesystem latn dflt;\012languagesystem grek dflt;\012languagesystem cyrl dflt;\012";
name = Languagesystems;
}
);
features = (
{
automatic = 1;
code = "feature sups;\012feature ordn;\012feature ss01;\012feature ss02;\012feature ss03;\012feature ss04;\012feature ss05;";
name = aalt;
},
{
automatic = 1;
code = "sub one by onesuperior;\012sub two by twosuperior;\012sub three by threesuperior;";
name = sups;
},
{
automatic = 1;
code = "sub [zero one two three four five six seven eight nine] [A a]' by ordfeminine;\012sub [zero one two three four five six seven eight nine] [O o]' by ordmasculine;";
name = ordn;
},
{
automatic = 1;
code = "sub t z by t_z;";
name = dlig;
},
{
automatic = 1;
code = "sub f f i by f_f_i;\012sub f f l by f_f_l;\012sub f f by f_f;\012sub f i by fi;\012sub f l by fl;";

glyphs = (
{
glyphname = A;
lastChange = "2012-04-30 22:08:02 +0200";
layers = (
{
anchors = (
{
name = ogonek;
position = "{417, -1}";
},
{
name = top;
position = "{216, 750}";
}
);
hints = (
{
horizontal = 1;
place = "{0.000000, 0.000000}";
},
{
horizontal = 1;
place = "{0.000000, 0.000000}";
}
);
layerId = UUID0;
name = Light;
paths = (
{
closed = 1;
nodes = (
"166 470 LINE SMOOTH",
"191 562 OFFCURVE",
"214 648 OFFCURVE",
"217 669 CURVE",
"219 648 OFFCURVE",
"243 561 OFFCURVE",
"268 470 CURVE SMOOTH",
"401 0 LINE",
"406 -1 OFFCURVE",
"413 -1 OFFCURVE",
"417 -1 CURVE SMOOTH",
"425 -1 OFFCURVE",
"427 2 OFFCURVE",
"425 10 CURVE",
"224 703 LINE",
"223 704 OFFCURVE",
"219 705 OFFCURVE",
"215 705 CURVE SMOOTH",
"212 705 OFFCURVE",
"210 704 OFFCURVE",
"210 703 CURVE",
"10 0 LINE",
"17 -1 OFFCURVE",
"22 -1 OFFCURVE",
"24 -1 CURVE SMOOTH",
"31 -1 OFFCURVE",
"36 -1 OFFCURVE",
"38 6 CURVE SMOOTH"
);
},
{
closed = 1;
nodes = (
"92 212 LINE",
"355 212 LINE",
"355 236 LINE",
"92 236 LINE"
);
}
);
width = 436;
},
{
anchors = (
{
name = ogonek;
position = "{384, -2}";
},
{
name = top;
position = "{222, 750}";
}
);
hints = (
{
horizontal = 1;
place = "{0.000000, 0.000000}";
},
{
horizontal = 1;
place = "{0.000000, 0.000000}";
}
);
layerId = UUID1;
name = Bold;
paths = (
{
closed = 1;
nodes = (
"193 353 LINE SMOOTH",
"204 406 OFFCURVE",
"213 479 OFFCURVE",
"220 542 CURVE",
"226 479 OFFCURVE",
"235 406 OFFCURVE",
"246 353 CURVE SMOOTH",
"319 0 LINE",
"348 -2 OFFCURVE",
"369 -2 OFFCURVE",
"384 -2 CURVE SMOOTH",
"429 -2 OFFCURVE",
"437 5 OFFCURVE",
"434 18 CURVE",
"267 698 LINE",
"253 701 OFFCURVE",
"233 702 OFFCURVE",
"214 702 CURVE SMOOTH",
"188 702 OFFCURVE",
"172 696 OFFCURVE",
"169 681 CURVE",
"2 2 LINE",
"28 -1 OFFCURVE",
"58 -2 OFFCURVE",
"73 -2 CURVE SMOOTH",
"118 -2 OFFCURVE",
"121 5 OFFCURVE",
"124 19 CURVE SMOOTH"
);
},
{
closed = 1;
nodes = (
"116 159 LINE",
"342 159 LINE",
"342 260 LINE",
"116 260 LINE"
);
}
);
width = 437;
}
);
leftKerningGroup = A;
rightKerningGroup = A;
unicode = 0041;
},
{
glyphname = AE;
lastChange = "2012-04-30 20:25:21 +0200";
layers = (
{
anchors = (
{
name = top;
position = "{338, 700}";
}
);
layerId = UUID0;
name = Light;
paths = (
{
closed = 1;
nodes = (
"396 700 LINE",
"393 700 OFFCURVE",
"389 696 OFFCURVE",
"388 694 CURVE SMOOTH",
"19 0 LINE",
"26 -1 OFFCURVE",
"31 -1 OFFCURVE",
"33 -1 CURVE SMOOTH",
"40 -1 OFFCURVE",
"44 0 OFFCURVE",
"47 6 CURVE SMOOTH",
"292 466 LINE SMOOTH",
"337 551 OFFCURVE",
"399 676 OFFCURVE",
"410 700 CURVE"
);
},
{
closed = 1;
nodes = (
"147 212 LINE",
"400 212 LINE",
"400 236 LINE",
"157 236 LINE"
);
},
{
closed = 1;
nodes = (
"413 24 LINE",
"413 676 LINE",
"632 676 LINE",
"638 676 OFFCURVE",
"638 680 OFFCURVE",
"638 700 CURVE",
"399 700 LINE",
"390 700 OFFCURVE",
"389 690 OFFCURVE",
"389 690 CURVE",
"389 0 LINE",
"632 0 LINE",
"640 0 OFFCURVE",
"640 3 OFFCURVE",
"640 24 CURVE"
);
},
{
closed = 1;
nodes = (
"405 372 LINE",
"610 372 LINE",
"618 372 OFFCURVE",
"618 376 OFFCURVE",
"618 396 CURVE",
"405 396 LINE"
);
}
);
width = 675;
},
{
anchors = (
{
name = top;
position = "{291, 700}";
}
);
layerId = UUID1;
name = Bold;
paths = (
{
closed = 1;
nodes = (
"304 700 LINE",
"287 700 OFFCURVE",
"273 696 OFFCURVE",
"268 681 CURVE SMOOTH",
"16 2 LINE",
"42 -1 OFFCURVE",
"72 -2 OFFCURVE",
"87 -2 CURVE SMOOTH",
"126 -2 OFFCURVE",
"133 5 OFFCURVE",
"138 19 CURVE SMOOTH",
"249 350 LINE SMOOTH",
"285 457 OFFCURVE",
"328 637 OFFCURVE",
"333 700 CURVE"
);
},
{
closed = 1;
nodes = (
"117 159 LINE",
"344 159 LINE",
"344 260 LINE",
"159 260 LINE"
);
},
{
closed = 1;
nodes = (
"424 100 LINE",
"424 600 LINE",
"552 600 LINE",
"572 600 OFFCURVE",
"572 610 OFFCURVE",
"572 700 CURVE",
"332 700 LINE",
"313 700 OFFCURVE",
"312 680 OFFCURVE",
"312 680 CURVE",
"312 0 LINE",
"545 0 LINE",
"565 0 OFFCURVE",
"565 6 OFFCURVE",
"565 100 CURVE"
);
},
{
closed = 1;
nodes = (
"320 328 LINE",
"526 328 LINE",
"545 328 OFFCURVE",
"545 346 OFFCURVE",
"545 430 CURVE",
"320 430 LINE"
);
}
);
width = 582;
}
);
leftKerningGroup = AE;
rightKerningGroup = E;
unicode = 00C6;
},
{
glyphname = B;
lastChange = "2012-04-30 19:53:57 +0200";
layers = (
{
layerId = UUID0;
name = Light;
paths = (
{
closed = 1;
nodes = (
"68 0 LINE",
"185 0 LINE",
"230 0 OFFCURVE",
"380 4 OFFCURVE",
"380 239 CURVE SMOOTH",
"380 365 OFFCURVE",
"296 386 OFFCURVE",
"257 387 CURVE",
"296 393 OFFCURVE",
"359 424 OFFCURVE",
"359 550 CURVE SMOOTH",
"359 677 OFFCURVE",
"265 700 OFFCURVE",
"193 700 CURVE",
"92 700 LINE",
"72 700 OFFCURVE",
"68 693 OFFCURVE",
"68 684 CURVE"
);
},
{
closed = 1;
nodes = (
"92 677 LINE",
"188 677 LINE",
"261 677 OFFCURVE",
"335 652 OFFCURVE",
"335 549 CURVE SMOOTH",
"335 427 OFFCURVE",
"272 395 OFFCURVE",
"197 395 CURVE",
"92 395 LINE"
);
},
{
closed = 1;
nodes = (
"92 371 LINE",
"183 371 LINE",
"279 371 OFFCURVE",
"356 365 OFFCURVE",
"356 237 CURVE SMOOTH",
"356 64 OFFCURVE",
"269 24 OFFCURVE",
"184 24 CURVE",
"92 24 LINE"
);
}
);
width = 410;
},
{
layerId = UUID1;
name = Bold;
paths = (
{
closed = 1;
nodes = (
"30 0 LINE",
"161 0 LINE",
"296 0 OFFCURVE",
"348 106 OFFCURVE",
"348 238 CURVE SMOOTH",
"348 355 OFFCURVE",
"282 378 OFFCURVE",
"233 383 CURVE",
"277 389 OFFCURVE",
"325 441 OFFCURVE",
"325 543 CURVE SMOOTH",
"325 673 OFFCURVE",
"240 700 OFFCURVE",
"156 700 CURVE",
"58 700 LINE",
"36 700 OFFCURVE",
"30 693 OFFCURVE",
"30 680 CURVE"
);
},
{
closed = 1;
nodes = (
"144 602 LINE",
"167 602 LINE",
"185 602 OFFCURVE",
"201 589 OFFCURVE",
"201 519 CURVE SMOOTH",
"201 462 OFFCURVE",
"187 424 OFFCURVE",
"163 424 CURVE",
"144 424 LINE"
);
},
{
closed = 1;
nodes = (
"144 330 LINE",
"166 330 LINE",
"197 330 OFFCURVE",
"214 318 OFFCURVE",
"214 228 CURVE SMOOTH",
"214 146 OFFCURVE",
"195 97 OFFCURVE",
"164 97 CURVE",
"144 97 LINE"
);
}
);
width = 358;
}
);
rightKerningGroup = B;
unicode = 0042;
},
{
glyphname = C;
lastChange = "2012-04-30 20:08:42 +0200";
layers = (
{
anchors = (
{
name = bottom;
position = "{211, 0}";
},
{
name = top;
position = "{233, 750}";
}
);
layerId = UUID0;
name = Light;
paths = (
{
closed = 1;
nodes = (
"151 709 OFFCURVE",
"48 677 OFFCURVE",
"48 311 CURVE SMOOTH",
"48 -2 OFFCURVE",
"150 -9 OFFCURVE",
"213 -9 CURVE SMOOTH",
"282 -9 OFFCURVE",
"339 35 OFFCURVE",
"339 58 CURVE SMOOTH",
"339 64 OFFCURVE",
"335 71 OFFCURVE",
"332 76 CURVE",
"316 51 OFFCURVE",
"267 16 OFFCURVE",
"214 16 CURVE SMOOTH",
"150 16 OFFCURVE",
"73 47 OFFCURVE",
"73 306 CURVE SMOOTH",
"73 653 OFFCURVE",
"160 686 OFFCURVE",
"236 686 CURVE SMOOTH",
"282 686 OFFCURVE",
"318 654 OFFCURVE",
"324 647 CURVE",
"328 650 OFFCURVE",
"331 658 OFFCURVE",
"331 663 CURVE SMOOTH",
"331 679 OFFCURVE",
"294 709 OFFCURVE",
"239 709 CURVE SMOOTH"
);
}
);
width = 369;
},
{
anchors = (
{
name = bottom;
position = "{190, 0}";
},
{
name = top;
position = "{227, 750}";
}
);
layerId = UUID1;
name = Bold;
paths = (
{
closed = 1;
nodes = (
"130 715 OFFCURVE",
"20 655 OFFCURVE",
"20 327 CURVE SMOOTH",
"20 47 OFFCURVE",
"74 -15 OFFCURVE",
"187 -15 CURVE SMOOTH",
"263 -15 OFFCURVE",
"309 12 OFFCURVE",
"309 59 CURVE SMOOTH",
"309 83 OFFCURVE",
"302 108 OFFCURVE",
"294 125 CURVE",
"275 115 OFFCURVE",
"247 110 OFFCURVE",
"216 110 CURVE SMOOTH",
"160 110 OFFCURVE",
"138 162 OFFCURVE",
"138 336 CURVE SMOOTH",
"138 554 OFFCURVE",
"190 606 OFFCURVE",
"247 606 CURVE SMOOTH",
"269 606 OFFCURVE",
"287 598 OFFCURVE",
"299 589 CURVE",
"307 606 OFFCURVE",
"315 629 OFFCURVE",
"315 656 CURVE SMOOTH",
"315 686 OFFCURVE",
"305 715 OFFCURVE",
"220 715 CURVE SMOOTH"
);
}
);
width = 325;
}
);
leftKerningGroup = O;
rightKerningGroup = C;
unicode = 0043;
},
{
glyphname = D;
lastChange = "2012-04-30 20:24:22 +0200";
layers = (
{
anchors = (
{
name = center;
position = "{219, 350}";
},
{
name = top;
position = "{219, 700}";
}
);
layerId = UUID0;
name = Light;
paths = (
{
closed = 1;
nodes = (
"94 700 LINE",
"74 700 OFFCURVE",
"70 693 OFFCURVE",
"70 684 CURVE SMOOTH",
"70 0 LINE",
"187 0 LINE SMOOTH",
"288 0 OFFCURVE",
"389 47 OFFCURVE",
"389 388 CURVE SMOOTH",
"389 606 OFFCURVE",
"321 700 OFFCURVE",
"195 700 CURVE"
);
},
{
closed = 1;
nodes = (
"365 69 OFFCURVE",
"277 24 OFFCURVE",
"186 24 CURVE",
"94 24 LINE",
"94 676 LINE",
"190 676 LINE",
"313 676 OFFCURVE",
"365 585 OFFCURVE",
"365 388 CURVE SMOOTH"
);
}
);
width = 437;
},
{
anchors = (
{
name = center;
position = "{185, 350}";
},
{
name = top;
position = "{185, 700}";
}
);
layerId = UUID1;
name = Bold;
paths = (
{
closed = 1;
nodes = (
"58 700 LINE",
"36 700 OFFCURVE",
"30 693 OFFCURVE",
"30 680 CURVE SMOOTH",
"30 0 LINE",
"159 0 LINE SMOOTH",
"294 0 OFFCURVE",
"350 118 OFFCURVE",
"350 385 CURVE SMOOTH",
"350 642 OFFCURVE",
"287 700 OFFCURVE",
"154 700 CURVE"
);
},
{
closed = 1;
nodes = (
"221 143 OFFCURVE",
"193 106 OFFCURVE",
"162 106 CURVE",
"142 106 LINE",
"142 598 LINE",
"161 598 LINE",
"197 598 OFFCURVE",
"221 576 OFFCURVE",
"221 397 CURVE SMOOTH"
);
}
);
width = 360;
}
);
rightKerningGroup = O;
unicode = 0044;
},
{
glyphname = Eth;
lastChange = "2012-04-30 19:49:10 +0200";
layers = (
{
layerId = UUID0;
name = Light;
paths = (
{
closed = 1;
nodes = (
"217 359 LINE",
"227 359 OFFCURVE",
"227 362 OFFCURVE",
"227 384 CURVE",
"30 384 LINE SMOOTH",
"20 384 OFFCURVE",
"20 381 OFFCURVE",
"20 359 CURVE"
);
},
{
closed = 1;
nodes = (
"94 700 LINE",
"74 700 OFFCURVE",
"70 693 OFFCURVE",
"70 684 CURVE SMOOTH",
"70 0 LINE",
"187 0 LINE SMOOTH",
"288 0 OFFCURVE",
"389 47 OFFCURVE",
"389 388 CURVE SMOOTH",
"389 606 OFFCURVE",
"321 700 OFFCURVE",
"195 700 CURVE"
);
},
{
closed = 1;
nodes = (
"365 69 OFFCURVE",
"277 24 OFFCURVE",
"186 24 CURVE",
"94 24 LINE",
"94 676 LINE",
"190 676 LINE",
"313 676 OFFCURVE",
"365 585 OFFCURVE",
"365 388 CURVE SMOOTH"
);
}
);
width = 437;
},
{
layerId = UUID1;
name = Bold;
paths = (
{
closed = 1;
nodes = (
"172 315 LINE",
"192 315 OFFCURVE",
"192 345 OFFCURVE",
"192 411 CURVE",
"16 411 LINE SMOOTH",
"-4 411 OFFCURVE",
"-4 381 OFFCURVE",
"-4 315 CURVE"
);
},
{
closed = 1;
nodes = (
"58 700 LINE",
"36 700 OFFCURVE",
"30 693 OFFCURVE",
"30 680 CURVE SMOOTH",
"30 0 LINE",
"159 0 LINE SMOOTH",
"294 0 OFFCURVE",
"350 118 OFFCURVE",
"350 397 CURVE SMOOTH",
"350 642 OFFCURVE",
"287 700 OFFCURVE",
"154 700 CURVE"
);
},
{
closed = 1;
nodes = (
"221 143 OFFCURVE",
"193 106 OFFCURVE",
"162 106 CURVE",
"142 107 LINE",
"142 598 LINE",
"161 598 LINE",
"197 598 OFFCURVE",
"221 576 OFFCURVE",
"221 397 CURVE SMOOTH"
);
}
);
width = 360;
}
);
unicode = 00D0;
},
{
glyphname = E;
lastChange = "2012-04-30 19:54:12 +0200";
layers = (
{
anchors = (
{
name = bottom;
position = "{179, 0}";
},
{
name = ogonek;
position = "{321, 10}";
},
{
name = top;
position = "{207, 750}";
}
);
layerId = UUID0;
name = Light;
paths = (
{
closed = 1;
nodes = (
"95 24 LINE",
"95 676 LINE",
"314 676 LINE",
"320 676 OFFCURVE",
"320 680 OFFCURVE",
"320 700 CURVE",
"81 700 LINE",
"71 700 OFFCURVE",
"71 690 OFFCURVE",
"71 690 CURVE",
"71 0 LINE",
"314 0 LINE",
"322 0 OFFCURVE",
"322 3 OFFCURVE",
"322 24 CURVE"
);
},
{
closed = 1;
nodes = (
"87 372 LINE",
"292 372 LINE",
"300 372 OFFCURVE",
"300 376 OFFCURVE",
"300 396 CURVE",
"87 396 LINE"
);
}
);
width = 357;
},
{
anchors = (
{
name = bottom;
position = "{150, 0}";
},
{
name = ogonek;
position = "{270, 10}";
},
{
name = top;
position = "{172, 750}";
}
);
layerId = UUID1;
name = Bold;
paths = (
{
closed = 1;
nodes = (
"142 100 LINE",
"142 600 LINE",
"270 600 LINE",
"290 600 OFFCURVE",
"290 610 OFFCURVE",
"290 700 CURVE",
"50 700 LINE",
"31 700 OFFCURVE",
"30 680 OFFCURVE",
"30 680 CURVE",
"30 0 LINE",
"263 0 LINE",
"283 0 OFFCURVE",
"283 6 OFFCURVE",
"283 100 CURVE"
);
},
{
closed = 1;
nodes = (
"38 328 LINE",
"244 328 LINE",
"263 328 OFFCURVE",
"263 346 OFFCURVE",
"263 430 CURVE",
"38 430 LINE"
);
}
);
width = 300;
}
);
unicode = 0045;
},
{
glyphname = F;
lastChange = "2012-04-30 22:23:02 +0200";
layers = (
{
hints = (
{
horizontal = 1;
place = "{0.000000, 0.000000}";
}
);
layerId = UUID0;
name = Light;
paths = (
{
closed = 1;
nodes = (
"85 0 LINE",
"95 0 OFFCURVE",
"95 10 OFFCURVE",
"95 10 CURVE",
"95 676 LINE",
"314 676 LINE SMOOTH",
"320 676 OFFCURVE",
"320 680 OFFCURVE",
"320 700 CURVE",
"81 700 LINE SMOOTH",
"71 700 OFFCURVE",
"71 690 OFFCURVE",
"71 690 CURVE",
"71 0 LINE"
);
},
{
closed = 1;
nodes = (
"87 373 LINE",
"292 373 LINE SMOOTH",
"300 373 OFFCURVE",
"300 377 OFFCURVE",
"300 397 CURVE",
"87 397 LINE"
);
}
);
width = 344;
},
{
hints = (
{
horizontal = 1;
place = "{0.000000, 0.000000}";
}
);
layerId = UUID1;
name = Bold;
paths = (
{
closed = 1;
nodes = (
"124 0 LINE",
"144 0 OFFCURVE",
"142 20 OFFCURVE",
"142 20 CURVE",
"142 605 LINE",
"270 605 LINE SMOOTH",
"290 605 OFFCURVE",
"290 610 OFFCURVE",
"290 700 CURVE",
"50 700 LINE SMOOTH",
"31 700 OFFCURVE",
"30 680 OFFCURVE",
"30 680 CURVE",
"30 0 LINE"
);
},
{
closed = 1;
nodes = (
"38 328 LINE",
"244 328 LINE SMOOTH",
"263 328 OFFCURVE",
"263 346 OFFCURVE",
"263 430 CURVE",
"38 430 LINE"
);
}
);
width = 295;
}
);
rightKerningGroup = F;
unicode = 0046;
},
{
glyphname = G;
lastChange = "2012-12-06 09:03:58 +0100";
layers = (
{
anchors = (
{
name = bottom;
position = "{208, 0}";
},
{
name = top;
position = "{248, 750}";
}
);
layerId = UUID0;
name = Light;
paths = (
{
closed = 1;
nodes = (
"134 710 OFFCURVE",
"48 644 OFFCURVE",
"48 346 CURVE SMOOTH",
"48 41 OFFCURVE",
"132 -10 OFFCURVE",
"233 -10 CURVE SMOOTH",
"326 -10 OFFCURVE",
"360 44 OFFCURVE",
"367 60 CURVE",
"367 384 LINE",
"228 384 LINE",
"222 384 OFFCURVE",
"218 381 OFFCURVE",
"218 374 CURVE",
"218 360 LINE",
"343 360 LINE",
"343 67 LINE",
"336 50 OFFCURVE",
"298 14 OFFCURVE",
"235 14 CURVE SMOOTH",
"149 14 OFFCURVE",
"72 47 OFFCURVE",
"72 346 CURVE SMOOTH",
"72 628 OFFCURVE",
"151 686 OFFCURVE",
"256 686 CURVE SMOOTH",
"301 686 OFFCURVE",
"328 673 OFFCURVE",
"351 655 CURVE",
"355 661 OFFCURVE",
"356 666 OFFCURVE",
"356 671 CURVE SMOOTH",
"356 691 OFFCURVE",
"309 710 OFFCURVE",
"253 710 CURVE SMOOTH"
);
}
);
width = 415;
},
{
anchors = (
{
name = bottom;
position = "{190, 0}";
},
{
name = top;
position = "{216, 750}";
}
);
layerId = UUID1;
name = Bold;
paths = (
{
closed = 1;
nodes = (
"101 709 OFFCURVE",
"20 649 OFFCURVE",
"20 327 CURVE SMOOTH",
"20 59 OFFCURVE",
"59 -9 OFFCURVE",
"210 -9 CURVE SMOOTH",
"267 -9 OFFCURVE",
"316 0 OFFCURVE",
"348 21 CURVE",
"349 425 LINE",
"222 425 LINE",
"206 425 OFFCURVE",
"198 418 OFFCURVE",
"198 405 CURVE",
"198 333 LINE",
"244 333 LINE",
"244 109 LINE",
"240 105 OFFCURVE",
"232 100 OFFCURVE",
"212 100 CURVE SMOOTH",
"158 100 OFFCURVE",
"141 132 OFFCURVE",
"141 336 CURVE SMOOTH",
"141 528 OFFCURVE",
"163 603 OFFCURVE",
"264 603 CURVE SMOOTH",
"290 603 OFFCURVE",
"320 595 OFFCURVE",
"335 583 CURVE",
"342 603 OFFCURVE",
"349 626 OFFCURVE",
"349 652 CURVE SMOOTH",
"349 682 OFFCURVE",
"312 709 OFFCURVE",
"240 709 CURVE SMOOTH"
);
}
);
width = 369;
}
);
leftKerningGroup = O;
unicode = 0047;
},
{
glyphname = H;
lastChange = "2012-04-30 19:54:24 +0200";
layers = (
{
anchors = (
{
name = center;
position = "{230, 350}";
},
{
name = top;
position = "{230, 700}";
}
);
hints = (
{
horizontal = 1;
place = "{0.000000, 0.000000}";
},
{
horizontal = 1;
place = "{0.000000, 0.000000}";
}
);
layerId = UUID0;
name = Light;
paths = (
{
closed = 1;
nodes = (
"68 0 LINE",
"91 0 OFFCURVE",
"92 0 OFFCURVE",
"92 10 CURVE",
"92 700 LINE",
"69 700 OFFCURVE",
"68 700 OFFCURVE",
"68 690 CURVE"
);
},
{
closed = 1;
nodes = (
"367 0 LINE",
"390 0 OFFCURVE",
"391 0 OFFCURVE",
"391 10 CURVE",
"391 700 LINE",
"367 700 OFFCURVE",
"367 699 OFFCURVE",
"367 690 CURVE"
);
},
{
closed = 1;
nodes = (
"84 373 LINE",
"379 373 LINE",
"379 397 LINE",
"84 397 LINE"
);
}
);
width = 459;
},
{
anchors = (
{
name = center;
position = "{191, 350}";
},
{
name = top;
position = "{191, 700}";
}
);
hints = (
{
horizontal = 1;
place = "{0.000000, 0.000000}";
},
{
horizontal = 1;
place = "{0.000000, 0.000000}";
}
);
layerId = UUID1;
name = Bold;
paths = (
{
closed = 1;
nodes = (
"31 0 LINE",
"145 0 OFFCURVE",
"143 0 OFFCURVE",
"143 20 CURVE",
"143 700 LINE",
"29 700 OFFCURVE",
"31 700 OFFCURVE",
"31 680 CURVE"
);
},
{
closed = 1;
nodes = (
"239 0 LINE",
"353 0 OFFCURVE",
"351 0 OFFCURVE",
"351 20 CURVE",
"351 700 LINE",
"237 700 OFFCURVE",
"239 700 OFFCURVE",
"239 680 CURVE"
);
},
{
closed = 1;
nodes = (
"84 323 LINE",
"290 323 LINE",
"289 425 LINE",
"84 425 LINE"
);
}
);
width = 382;
}
);
unicode = 0048;
},
{
glyphname = I;
lastChange = "2012-04-30 19:54:27 +0200";
layers = (
{
anchors = (
{
name = ogonek;
position = "{144, 10}";
},
{
name = top;
position = "{79, 750}";
}
);
hints = (
{
horizontal = 1;
place = "{0.000000, 0.000000}";
},
{
horizontal = 1;
place = "{0.000000, 0.000000}";
}
);
layerId = UUID0;
name = Light;
paths = (
{
closed = 1;
nodes = (
"68 0 LINE",
"91 0 OFFCURVE",
"92 0 OFFCURVE",
"92 10 CURVE",
"92 700 LINE",
"69 700 OFFCURVE",
"68 700 OFFCURVE",
"68 684 CURVE"
);
}
);
width = 160;
},
{
anchors = (
{
name = ogonek;
position = "{157, 10}";
},
{
name = top;
position = "{91, 750}";
}
);
hints = (
{
horizontal = 1;
place = "{0.000000, 0.000000}";
},
{
horizontal = 1;
place = "{0.000000, 0.000000}";
}
);
layerId = UUID1;
name = Bold;
paths = (
{
closed = 1;
nodes = (
"30 0 LINE",
"143 0 OFFCURVE",
"144 0 OFFCURVE",
"144 20 CURVE",
"144 700 LINE",
"32 700 OFFCURVE",
"30 700 OFFCURVE",
"30 651 CURVE"
);
}
);
width = 174;
}
);
unicode = 0049;
},
{
glyphname = J;
lastChange = "2012-04-30 22:24:01 +0200";
layers = (
{
anchors = (
{
name = top;
position = "{149, 700}";
}
);
hints = (
{
horizontal = 1;
place = "{0.000000, 0.000000}";
}
);
layerId = UUID0;
name = Light;
paths = (
{
closed = 1;
nodes = (
"205 184 LINE SMOOTH",
"205 102 OFFCURVE",
"203 14 OFFCURVE",
"115 14 CURVE SMOOTH",
"76 14 OFFCURVE",
"48 31 OFFCURVE",
"29 54 CURVE",
"25 50 OFFCURVE",
"21 42 OFFCURVE",
"21 35 CURVE SMOOTH",
"21 15 OFFCURVE",
"62 -10 OFFCURVE",
"116 -10 CURVE SMOOTH",
"227 -10 OFFCURVE",
"229 97 OFFCURVE",
"229 172 CURVE SMOOTH",
"229 700 LINE",
"205 700 OFFCURVE",
"205 700 OFFCURVE",
"205 685 CURVE"
);
}
);
width = 297;
},
{
anchors = (
{
name = top;
position = "{146, 700}";
}
);
hints = (
{
horizontal = 1;
place = "{0.000000, 0.000000}";
}
);
layerId = UUID1;
name = Bold;
paths = (
{
closed = 1;
nodes = (
"157 183 LINE SMOOTH",
"157 107 OFFCURVE",
"148 90 OFFCURVE",
"105 90 CURVE SMOOTH",
"76 90 OFFCURVE",
"44 105 OFFCURVE",
"25 119 CURVE",
"19 105 OFFCURVE",
"10 87 OFFCURVE",
"10 58 CURVE SMOOTH",
"10 24 OFFCURVE",
"25 -9 OFFCURVE",
"121 -9 CURVE SMOOTH",
"230 -9 OFFCURVE",
"271 49 OFFCURVE",
"271 161 CURVE SMOOTH",
"271 700 LINE",
"157 700 OFFCURVE",
"157 700 OFFCURVE",
"157 651 CURVE"
);
}
);
width = 301;
}
);
leftKerningGroup = J;
rightKerningGroup = J;
unicode = 004A;
},
{
glyphname = K;
lastChange = "2012-04-30 19:54:53 +0200";
layers = (
{
anchors = (
{
name = bottom;
position = "{196, 0}";
},
{
name = top;
position = "{196, 700}";
}
);
hints = (
{
horizontal = 1;
place = "{0.000000, 0.000000}";
},
{
horizontal = 1;
place = "{0.000000, 0.000000}";
}
);
layerId = UUID0;
name = Light;
paths = (
{
closed = 1;
nodes = (
"68 0 LINE",
"92 0 OFFCURVE",
"92 0 OFFCURVE",
"92 10 CURVE",
"92 700 LINE",
"68 700 OFFCURVE",
"68 700 OFFCURVE",
"68 690 CURVE"
);
},
{
closed = 1;
nodes = (
"84 389 LINE",
"84 379 LINE",
"108 369 OFFCURVE",
"131 359 OFFCURVE",
"151 339 CURVE SMOOTH",
"206 286 OFFCURVE",
"268 219 OFFCURVE",
"350 0 CURVE",
"354 -1 OFFCURVE",
"359 -1 OFFCURVE",
"363 -1 CURVE SMOOTH",
"370 -1 OFFCURVE",
"374 3 OFFCURVE",
"370 13 CURVE",
"296 230 OFFCURVE",
"205 346 OFFCURVE",
"115 392 CURVE",
"363 685 LINE SMOOTH",
"371 694 OFFCURVE",
"369 700 OFFCURVE",
"357 700 CURVE SMOOTH",
"352 700 OFFCURVE",
"347 700 OFFCURVE",
"342 699 CURVE"
);
}
);
width = 392;
},
{
anchors = (
{
name = bottom;
position = "{197, 0}";
},
{
name = top;
position = "{197, 700}";
}
);
hints = (
{
horizontal = 1;
place = "{0.000000, 0.000000}";
},
{
horizontal = 1;
place = "{0.000000, 0.000000}";
}
);
layerId = UUID1;
name = Bold;
paths = (
{
closed = 1;
nodes = (
"28 0 LINE",
"142 0 OFFCURVE",
"142 0 OFFCURVE",
"142 20 CURVE",
"142 700 LINE",
"28 700 OFFCURVE",
"28 700 OFFCURVE",
"28 680 CURVE"
);
},
{
closed = 1;
nodes = (
"118 352 LINE",
"118 335 LINE",
"136 333 OFFCURVE",
"157 323 OFFCURVE",
"172 306 CURVE SMOOTH",
"229 242 OFFCURVE",
"238 123 OFFCURVE",
"238 1 CURVE",
"266 -1 OFFCURVE",
"293 -2 OFFCURVE",
"318 -2 CURVE SMOOTH",
"358 -2 OFFCURVE",
"365 3 OFFCURVE",
"365 21 CURVE",
"365 198 OFFCURVE",
"330 333 OFFCURVE",
"257 401 CURVE",
"371 673 LINE SMOOTH",
"379 693 OFFCURVE",
"363 701 OFFCURVE",
"323 701 CURVE SMOOTH",
"304 701 OFFCURVE",
"278 699 OFFCURVE",
"251 693 CURVE"
);
}
);
width = 388;
}
);
rightKerningGroup = K;
unicode = 004B;
},
{
glyphname = L;
lastChange = "2012-04-30 22:24:04 +0200";
layers = (
{
anchors = (
{
name = bottom;
position = "{172, 0}";
},
{
name = top;
position = "{172, 700}";
}
);
hints = (
{
horizontal = 1;
place = "{0.000000, 0.000000}";
}
);
layerId = UUID0;
name = Light;
paths = (
{
closed = 1;
nodes = (
"94 700 LINE",
"68 700 OFFCURVE",
"68 700 OFFCURVE",
"68 685 CURVE",
"68 0 LINE",
"313 0 LINE",
"319 0 OFFCURVE",
"323 1 OFFCURVE",
"323 10 CURVE",
"323 23 LINE",
"94 23 LINE"
);
}
);
width = 343;
},
{
anchors = (
{
name = bottom;
position = "{152, 0}";
},
{
name = top;
position = "{152, 700}";
}
);
hints = (
{
horizontal = 1;
place = "{0.000000, 0.000000}";
}
);
layerId = UUID1;
name = Bold;
paths = (
{
closed = 1;
nodes = (
"142 700 LINE",
"32 700 OFFCURVE",
"30 700 OFFCURVE",
"30 672 CURVE",
"30 0 LINE",
"263 0 LINE",
"275 0 OFFCURVE",
"283 4 OFFCURVE",
"283 20 CURVE",
"283 105 LINE",
"142 105 LINE"
);
}
);
width = 298;
}
);
rightKerningGroup = L;
unicode = 004C;
},
{
glyphname = Lslash;
lastChange = "2012-04-30 19:49:56 +0200";
layers = (
{
hints = (
{
horizontal = 1;
place = "{0.000000, 0.000000}";
},
{
horizontal = 1;
place = "{0.000000, 0.000000}";
},
{
horizontal = 1;
place = "{0.000000, 0.000000}";
}
);
layerId = UUID0;
name = Light;
paths = (
{
closed = 1;
nodes = (
"203 402 LINE SMOOTH",
"212 406 OFFCURVE",
"211 408 OFFCURVE",
"203 429 CURVE",
"20 355 LINE SMOOTH",
"11 351 OFFCURVE",
"12 348 OFFCURVE",
"20 328 CURVE"
);
},
{
closed = 1;
nodes = (
"94 700 LINE",
"68 700 OFFCURVE",
"68 700 OFFCURVE",
"68 685 CURVE",
"68 0 LINE",
"313 0 LINE",
"323 0 OFFCURVE",
"323 10 OFFCURVE",
"323 10 CURVE",
"323 23 LINE",
"94 23 LINE"
);
}
);
width = 343;
},
{
hints = (
{
horizontal = 1;
place = "{0.000000, 0.000000}";
},
{
horizontal = 1;
place = "{0.000000, 0.000000}";
},
{
horizontal = 1;
place = "{0.000000, 0.000000}";
}
);
layerId = UUID1;
name = Bold;
paths = (
{
closed = 1;
nodes = (
"234 339 LINE SMOOTH",
"254 343 OFFCURVE",
"247 373 OFFCURVE",
"233 437 CURVE",
"3 388 LINE SMOOTH",
"-17 383 OFFCURVE",
"-11 353 OFFCURVE",
"3 289 CURVE"
);
},
{
closed = 1;
nodes = (
"142 700 LINE",
"32 700 OFFCURVE",
"30 700 OFFCURVE",
"30 672 CURVE",
"30 0 LINE",
"263 0 LINE",
"283 0 OFFCURVE",
"283 20 OFFCURVE",
"283 20 CURVE",
"283 105 LINE",
"142 105 LINE"
);
}
);
width = 298;
}
);
unicode = 0141;
},
{
glyphname = M;
lastChange = "2012-04-30 19:55:00 +0200";
layers = (
{
hints = (
{
horizontal = 1;
place = "{0.000000, 0.000000}";
},
{
horizontal = 1;
place = "{0.000000, 0.000000}";
}
);
layerId = UUID0;
name = Light;
paths = (
{
closed = 1;
nodes = (
"418 0 LINE",
"442 0 OFFCURVE",
"442 0 OFFCURVE",
"442 10 CURVE",
"442 700 LINE",
"442 700 OFFCURVE",
"442 700 OFFCURVE",
"428 700 CURVE",
"420 700 OFFCURVE",
"418 690 OFFCURVE",
"418 690 CURVE",
"418 659 LINE",
"418 647 LINE",
"418 647 OFFCURVE",
"418 342 OFFCURVE",
"418 342 CURVE SMOOTH"
);
},
{
closed = 1;
nodes = (
"68 0 LINE",
"92 0 OFFCURVE",
"92 0 OFFCURVE",
"92 10 CURVE",
"92 352 LINE SMOOTH",
"92 352 OFFCURVE",
"92 631 OFFCURVE",
"92 631 CURVE",
"92 686 LINE",
"89 700 LINE",
"78 700 LINE SMOOTH",
"72 700 OFFCURVE",
"68 697 OFFCURVE",
"68 690 CURVE"
);
},
{
closed = 1;
nodes = (
"81 637 LINE",
"81 637 OFFCURVE",
"180 328 OFFCURVE",
"180 328 CURVE SMOOTH",
"241 129 LINE",
"256 129 LINE",
"260 129 OFFCURVE",
"265 132 OFFCURVE",
"267 139 CURVE SMOOTH",
"330 328 LINE SMOOTH",
"330 328 OFFCURVE",
"425 630 OFFCURVE",
"425 630 CURVE",
"418 690 LINE",
"293 289 LINE",
"293 289 OFFCURVE",
"254 163 OFFCURVE",
"254 163 CURVE",
"254 163 OFFCURVE",
"214 293 OFFCURVE",
"214 293 CURVE SMOOTH",
"89 700 LINE"
);
}
);
width = 510;
},
{
hints = (
{
horizontal = 1;
place = "{0.000000, 0.000000}";
},
{
horizontal = 1;
place = "{0.000000, 0.000000}";
}
);
layerId = UUID1;
name = Bold;
paths = (
{
closed = 1;
nodes = (
"332 0 LINE",
"447 0 OFFCURVE",
"447 0 OFFCURVE",
"447 20 CURVE",
"447 700 LINE",
"447 700 OFFCURVE",
"447 700 OFFCURVE",
"353 700 CURVE",
"341 700 OFFCURVE",
"338 695 OFFCURVE",
"333 680 CURVE",
"333 512 LINE",
"366 489 LINE",
"366 489 OFFCURVE",
"341 352 OFFCURVE",
"337 190 CURVE SMOOTH"
);
},
{
closed = 1;
nodes = (
"30 0 LINE",
"134 0 OFFCURVE",
"141 0 OFFCURVE",
"141 20 CURVE",
"138 191 LINE SMOOTH",
"136 355 OFFCURVE",
"109 489 OFFCURVE",
"109 489 CURVE",
"141 510 LINE",
"135 700 LINE",
"50 700 LINE SMOOTH",
"39 700 OFFCURVE",
"30 700 OFFCURVE",
"30 680 CURVE"
);
},
{
closed = 1;
nodes = (
"91 580 LINE",
"91 580 OFFCURVE",
"145 355 OFFCURVE",
"161 307 CURVE SMOOTH",
"208 167 LINE",
"254 167 LINE",
"258 167 OFFCURVE",
"263 168 OFFCURVE",
"265 174 CURVE SMOOTH",
"313 307 LINE SMOOTH",
"331 358 OFFCURVE",
"385 578 OFFCURVE",
"385 578 CURVE",
"333 680 LINE",
"265 452 LINE",
"247 393 OFFCURVE",
"241 353 OFFCURVE",
"241 353 CURVE",
"241 353 OFFCURVE",
"234 392 OFFCURVE",
"214 454 CURVE SMOOTH",
"135 700 LINE"
);
}
);
width = 477;
}
);
unicode = 004D;
},
{
glyphname = N;
lastChange = "2012-04-30 19:55:04 +0200";
layers = (
{
anchors = (
{
name = bottom;
position = "{235, 0}";
},
{
name = top;
position = "{245, 750}";
}
);
hints = (
{
horizontal = 1;
place = "{0.000000, 0.000000}";
},
{
horizontal = 1;
place = "{0.000000, 0.000000}";
}
);
layerId = UUID0;
name = Light;
paths = (
{
closed = 1;
nodes = (
"68 0 LINE",
"92 0 OFFCURVE",
"92 0 OFFCURVE",
"92 10 CURVE",
"92 257 LINE SMOOTH",
"92 257 OFFCURVE",
"92 669 OFFCURVE",
"92 669 CURVE",
"92 690 LINE",
"78 700 LINE",
"71 700 OFFCURVE",
"68 697 OFFCURVE",
"68 690 CURVE"
);
},
{
closed = 1;
nodes = (
"378 10 LINE",
"392 0 LINE",
"398 0 OFFCURVE",
"402 3 OFFCURVE",
"402 10 CURVE",
"402 700 LINE",
"378 700 OFFCURVE",
"378 700 OFFCURVE",
"378 690 CURVE",
"378 450 LINE SMOOTH",
"378 450 OFFCURVE",
"378 37 OFFCURVE",
"378 37 CURVE"
);
},
{
closed = 1;
nodes = (
"380 0 LINE",
"392 0 LINE",
"399 17 LINE",
"384 50 LINE",
"384 50 OFFCURVE",
"218 417 OFFCURVE",
"218 417 CURVE SMOOTH",
"90 700 LINE",
"78 700 LINE",
"71 683 LINE",
"80 664 LINE",
"80 664 OFFCURVE",
"249 288 OFFCURVE",
"249 288 CURVE SMOOTH"
);
}
);
width = 470;
},
{
anchors = (
{
name = bottom;
position = "{215, 0}";
},
{
name = top;
position = "{223, 750}";
}
);
hints = (
{
horizontal = 1;
place = "{0.000000, 0.000000}";
},
{
horizontal = 1;
place = "{0.000000, 0.000000}";
}
);
layerId = UUID1;
name = Bold;
paths = (
{
closed = 1;
nodes = (
"30 0 LINE",
"141 0 OFFCURVE",
"142 0 OFFCURVE",
"142 20 CURVE",
"142 260 LINE SMOOTH",
"142 329 OFFCURVE",
"135 426 OFFCURVE",
"125 511 CURVE",
"142 680 LINE",
"50 700 LINE",
"36 700 OFFCURVE",
"30 694 OFFCURVE",
"30 680 CURVE"
);
},
{
closed = 1;
nodes = (
"288 20 LINE",
"380 0 LINE",
"393 0 OFFCURVE",
"400 8 OFFCURVE",
"400 20 CURVE",
"400 700 LINE",
"290 700 OFFCURVE",
"288 700 OFFCURVE",
"288 680 CURVE",
"288 447 LINE SMOOTH",
"288 375 OFFCURVE",
"292 304 OFFCURVE",
"303 212 CURVE"
);
},
{
closed = 1;
nodes = (
"293 0 LINE",
"380 0 LINE",
"388 65 LINE",
"320 138 LINE",
"320 138 OFFCURVE",
"284 331 OFFCURVE",
"243 437 CURVE SMOOTH",
"139 700 LINE",
"50 700 LINE",
"45 635 LINE",
"111 569 LINE",
"111 569 OFFCURVE",
"150 362 OFFCURVE",
"187 268 CURVE SMOOTH"
);
}
);
width = 430;
}
);
unicode = 004E;
},
{
glyphname = O;
lastChange = "2012-04-30 22:07:45 +0200";
layers = (
{
anchors = (
{
name = top;
position = "{244, 750}";
}
);
layerId = UUID0;
name = Light;
paths = (
{
closed = 1;
nodes = (
"48 80 OFFCURVE",
"103 -10 OFFCURVE",
"230 -10 CURVE SMOOTH",
"362 -10 OFFCURVE",
"418 91 OFFCURVE",
"418 355 CURVE SMOOTH",
"418 615 OFFCURVE",
"370 710 OFFCURVE",
"241 710 CURVE SMOOTH",
"111 710 OFFCURVE",
"48 609 OFFCURVE",
"48 355 CURVE SMOOTH"
);
},
{
closed = 1;
nodes = (
"72 596 OFFCURVE",
"128 686 OFFCURVE",
"240 686 CURVE SMOOTH",
"347 686 OFFCURVE",
"394 605 OFFCURVE",
"394 358 CURVE SMOOTH",
"394 104 OFFCURVE",
"344 14 OFFCURVE",
"229 14 CURVE SMOOTH",
"120 14 OFFCURVE",
"72 101 OFFCURVE",
"72 343 CURVE SMOOTH"
);
}
);
width = 466;
},
{
anchors = (
{
name = top;
position = "{211, 750}";
}
);
layerId = UUID1;
name = Bold;
paths = (
{
closed = 1;
nodes = (
"20 58 OFFCURVE",
"69 -9 OFFCURVE",
"200 -9 CURVE SMOOTH",
"331 -9 OFFCURVE",
"389 77 OFFCURVE",
"389 358 CURVE SMOOTH",
"389 634 OFFCURVE",
"341 709 OFFCURVE",
"211 709 CURVE SMOOTH",
"82 709 OFFCURVE",
"20 626 OFFCURVE",
"20 354 CURVE SMOOTH"
);
},
{
closed = 1;
nodes = (
"148 525 OFFCURVE",
"161 594 OFFCURVE",
"207 594 CURVE SMOOTH",
"261 594 OFFCURVE",
"266 528 OFFCURVE",
"266 354 CURVE SMOOTH",
"266 177 OFFCURVE",
"255 107 OFFCURVE",
"206 107 CURVE SMOOTH",
"155 107 OFFCURVE",
"148 173 OFFCURVE",
"148 329 CURVE SMOOTH"
);
}
);
width = 409;
}
);
leftKerningGroup = O;
rightKerningGroup = O;
unicode = 004F;
},
{
glyphname = Oslash;
lastChange = "2012-04-30 19:50:29 +0200";
layers = (
{
anchors = (
{
name = top;
position = "{233, 700}";
}
);
layerId = UUID0;
name = Light;
paths = (
{
closed = 1;
nodes = (
"48 80 OFFCURVE",
"103 -10 OFFCURVE",
"230 -10 CURVE SMOOTH",
"362 -10 OFFCURVE",
"418 91 OFFCURVE",
"418 355 CURVE SMOOTH",
"418 615 OFFCURVE",
"368 710 OFFCURVE",
"239 710 CURVE SMOOTH",
"109 710 OFFCURVE",
"48 609 OFFCURVE",
"48 355 CURVE SMOOTH"
);
},
{
closed = 1;
nodes = (
"72 596 OFFCURVE",
"128 686 OFFCURVE",
"240 686 CURVE SMOOTH",
"347 686 OFFCURVE",
"394 605 OFFCURVE",
"394 358 CURVE SMOOTH",
"394 104 OFFCURVE",
"344 14 OFFCURVE",
"229 14 CURVE SMOOTH",
"120 14 OFFCURVE",
"72 101 OFFCURVE",
"72 343 CURVE SMOOTH"
);
},
{
closed = 1;
nodes = (
"92 -17 OFFCURVE",
"120 50 OFFCURVE",
"120 50 CURVE",
"118 60 OFFCURVE",
"101 60 OFFCURVE",
"101 60 CURVE",
"101 60 OFFCURVE",
"73 -7 OFFCURVE",
"73 -7 CURVE",
"75 -19 OFFCURVE",
"92 -17 OFFCURVE",
"92 -17 CURVE"
);
},
{
closed = 1;
nodes = (
"123 50 OFFCURVE",
"362 646 OFFCURVE",
"362 646 CURVE",
"360 656 OFFCURVE",
"343 656 OFFCURVE",
"343 656 CURVE",
"104 60 LINE",
"106 48 OFFCURVE",
"123 50 OFFCURVE",
"123 50 CURVE"
);
},
{
closed = 1;
nodes = (
"364 644 OFFCURVE",
"390 709 OFFCURVE",
"390 709 CURVE",
"388 719 OFFCURVE",
"371 719 OFFCURVE",
"371 719 CURVE",
"371 719 OFFCURVE",
"345 654 OFFCURVE",
"345 654 CURVE",
"347 642 OFFCURVE",
"364 644 OFFCURVE",
"364 644 CURVE"
);
}
);
width = 466;
},
{
anchors = (
{
name = top;
position = "{210, 700}";
}
);
layerId = UUID1;
name = Bold;
paths = (
{
closed = 1;
nodes = (
"25 58 OFFCURVE",
"74 -10 OFFCURVE",
"205 -10 CURVE SMOOTH",
"336 -10 OFFCURVE",
"394 77 OFFCURVE",
"394 358 CURVE SMOOTH",
"394 634 OFFCURVE",
"343 710 OFFCURVE",
"213 710 CURVE SMOOTH",
"84 710 OFFCURVE",
"25 626 OFFCURVE",
"25 354 CURVE SMOOTH"
);
},
{
closed = 1;
nodes = (
"153 525 OFFCURVE",
"166 595 OFFCURVE",
"212 595 CURVE SMOOTH",
"266 595 OFFCURVE",
"271 528 OFFCURVE",
"271 354 CURVE SMOOTH",
"271 123 OFFCURVE",
"239 106 OFFCURVE",
"201 106 CURVE SMOOTH",
"150 106 OFFCURVE",
"153 173 OFFCURVE",
"153 329 CURVE SMOOTH"
);
},
{
closed = 1;
nodes = (
"69 -1 OFFCURVE",
"112 100 OFFCURVE",
"109 118 CURVE",
"105 144 OFFCURVE",
"48 156 OFFCURVE",
"48 156 CURVE",
"48 156 OFFCURVE",
"-6 29 OFFCURVE",
"-4 18 CURVE",
"0 -2 OFFCURVE",
"39 -16 OFFCURVE",
"63 -15 CURVE"
);
},
{
closed = 1;
nodes = (
"159 76 OFFCURVE",
"330 583 OFFCURVE",
"327 601 CURVE",
"322 627 OFFCURVE",
"270 635 OFFCURVE",
"270 635 CURVE",
"99 106 LINE",
"103 85 OFFCURVE",
"159 76 OFFCURVE",
"159 76 CURVE"
);
},
{
closed = 1;
nodes = (
"375 508 OFFCURVE",
"431 668 OFFCURVE",
"428 686 CURVE",
"423 712 OFFCURVE",
"359 719 OFFCURVE",
"359 719 CURVE",
"346 696 OFFCURVE",
"295 550 OFFCURVE",
"295 550 CURVE",
"299 530 OFFCURVE",
"375 508 OFFCURVE",
"375 508 CURVE"
);
}
);
width = 419;
}
);
leftKerningGroup = O;
rightKerningGroup = O;
unicode = 00D8;
},
{
glyphname = OE;
lastChange = "2012-04-30 12:10:40 +0200";
layers = (
{
anchors = (
{
name = top;
position = "{335, 700}";
}
);
layerId = UUID0;
name = Light;
paths = (
{
closed = 1;
nodes = (
"48 80 OFFCURVE",
"103 -10 OFFCURVE",
"230 -10 CURVE SMOOTH",
"362 -10 OFFCURVE",
"408 91 OFFCURVE",
"408 355 CURVE SMOOTH",
"408 615 OFFCURVE",
"368 710 OFFCURVE",
"239 710 CURVE SMOOTH",
"109 710 OFFCURVE",
"48 609 OFFCURVE",
"48 355 CURVE SMOOTH"
);
},
{
closed = 1;
nodes = (
"72 596 OFFCURVE",
"128 686 OFFCURVE",
"240 686 CURVE SMOOTH",
"347 686 OFFCURVE",
"384 605 OFFCURVE",
"384 358 CURVE SMOOTH",
"384 104 OFFCURVE",
"344 14 OFFCURVE",
"229 14 CURVE SMOOTH",
"120 14 OFFCURVE",
"72 101 OFFCURVE",
"72 343 CURVE SMOOTH"
);
},
{
closed = 1;
nodes = (
"408 24 LINE",
"408 676 LINE",
"627 676 LINE",
"633 676 OFFCURVE",
"633 680 OFFCURVE",
"633 700 CURVE",
"394 700 LINE",
"384 700 OFFCURVE",
"384 690 OFFCURVE",
"384 690 CURVE",
"384 0 LINE",
"627 0 LINE",
"635 0 OFFCURVE",
"635 3 OFFCURVE",
"635 24 CURVE"
);
},
{
closed = 1;
nodes = (
"400 372 LINE",
"605 372 LINE",
"613 372 OFFCURVE",
"613 376 OFFCURVE",
"613 396 CURVE",
"400 396 LINE"
);
}
);
width = 670;
},
{
anchors = (
{
name = top;
position = "{274, 700}";
}
);
layerId = UUID1;
name = Bold;
paths = (
{
closed = 1;
nodes = (
"15 63 OFFCURVE",
"64 -8 OFFCURVE",
"195 -8 CURVE SMOOTH",
"326 -8 OFFCURVE",
"384 82 OFFCURVE",
"384 356 CURVE SMOOTH",
"384 627 OFFCURVE",
"333 709 OFFCURVE",
"203 709 CURVE SMOOTH",
"74 709 OFFCURVE",
"15 619 OFFCURVE",
"15 352 CURVE SMOOTH"
);
},
{
closed = 1;
nodes = (
"143 525 OFFCURVE",
"156 603 OFFCURVE",
"202 603 CURVE SMOOTH",
"256 603 OFFCURVE",
"261 528 OFFCURVE",
"261 354 CURVE SMOOTH",
"261 177 OFFCURVE",
"250 101 OFFCURVE",
"201 101 CURVE SMOOTH",
"150 101 OFFCURVE",
"143 173 OFFCURVE",
"143 329 CURVE SMOOTH"
);
},
{
closed = 1;
nodes = (
"390 100 LINE",
"390 600 LINE",
"518 600 LINE",
"538 600 OFFCURVE",
"538 610 OFFCURVE",
"538 700 CURVE",
"318 700 LINE",
"299 700 OFFCURVE",
"298 680 OFFCURVE",
"298 680 CURVE",
"298 0 LINE",
"511 0 LINE",
"531 0 OFFCURVE",
"531 6 OFFCURVE",
"531 100 CURVE"
);
},
{
closed = 1;
nodes = (
"286 328 LINE",
"492 328 LINE",
"511 328 OFFCURVE",
"511 346 OFFCURVE",
"511 430 CURVE",
"286 430 LINE"
);
}
);
width = 548;
}
);
leftKerningGroup = O;
rightKerningGroup = E;
unicode = 0152;
},
{
glyphname = P;
lastChange = "2012-04-30 19:55:08 +0200";
layers = (
{
hints = (
{
horizontal = 1;
place = "{0.000000, 0.000000}";
}
);
layerId = UUID0;
name = Light;
paths = (
{
closed = 1;
nodes = (
"68 0 LINE",
"92 0 OFFCURVE",
"92 0 OFFCURVE",
"92 10 CURVE",
"92 690 LINE",
"92 690 OFFCURVE",
"92 700 OFFCURVE",
"82 700 CURVE SMOOTH",
"78 700 LINE SMOOTH",
"72 700 OFFCURVE",
"68 697 OFFCURVE",
"68 690 CURVE"
);
},
{
closed = 1;
nodes = (
"81 700 LINE",
"79 700 OFFCURVE",
"80 693 OFFCURVE",
"80 684 CURVE SMOOTH",
"80 321 LINE SMOOTH",
"80 316 OFFCURVE",
"69 310 OFFCURVE",
"86 310 CURVE SMOOTH",
"179 310 LINE SMOOTH",
"290 310 OFFCURVE",
"351 383 OFFCURVE",
"351 518 CURVE SMOOTH",
"351 610 OFFCURVE",
"313 700 OFFCURVE",
"187 700 CURVE SMOOTH"
);
},
{
closed = 1;
nodes = (
"327 408 OFFCURVE",
"281 334 OFFCURVE",
"178 334 CURVE",
"86 334 LINE",
"86 676 LINE",
"182 676 LINE",
"295 676 OFFCURVE",
"327 602 OFFCURVE",
"327 518 CURVE SMOOTH"
);
}
);
width = 381;
},
{
hints = (
{
horizontal = 1;
place = "{0.000000, 0.000000}";
}
);
layerId = UUID1;
name = Bold;
paths = (
{
closed = 1;
nodes = (
"30 0 LINE",
"141 0 OFFCURVE",
"142 0 OFFCURVE",
"142 20 CURVE",
"142 680 LINE",
"142 680 OFFCURVE",
"142 700 OFFCURVE",
"122 700 CURVE SMOOTH",
"50 700 LINE SMOOTH",
"33 700 OFFCURVE",
"30 694 OFFCURVE",
"30 680 CURVE"
);
},
{
closed = 1;
nodes = (
"58 700 LINE",
"36 700 OFFCURVE",
"40 680 OFFCURVE",
"40 680 CURVE SMOOTH",
"40 298 LINE SMOOTH",
"40 277 OFFCURVE",
"40 270 OFFCURVE",
"63 270 CURVE SMOOTH",
"149 270 LINE SMOOTH",
"242 270 OFFCURVE",
"339 313 OFFCURVE",
"339 494 CURVE SMOOTH",
"339 658 OFFCURVE",
"270 700 OFFCURVE",
"144 700 CURVE SMOOTH"
);
},
{
closed = 1;
nodes = (
"213 396 OFFCURVE",
"193 373 OFFCURVE",
"162 373 CURVE",
"142 373 LINE",
"142 603 LINE",
"169 603 LINE",
"200 603 OFFCURVE",
"213 572 OFFCURVE",
"213 508 CURVE SMOOTH"
);
}
);
width = 349;
}
);
rightKerningGroup = P;
unicode = 0050;
},
{
glyphname = Thorn;
lastChange = "2012-04-30 12:10:39 +0200";
layers = (
{
hints = (
{
horizontal = 1;
place = "{0.000000, 0.000000}";
},
{
horizontal = 1;
place = "{0.000000, 0.000000}";
}
);
layerId = UUID0;
name = Light;
paths = (
{
closed = 1;
nodes = (
"68 0 LINE",
"92 0 OFFCURVE",
"92 0 OFFCURVE",
"92 10 CURVE",
"92 700 LINE",
"85 700 LINE SMOOTH",
"75 700 OFFCURVE",
"68 700 OFFCURVE",
"68 692 CURVE"
);
},
{
closed = 1;
nodes = (
"81 566 LINE",
"79 566 OFFCURVE",
"80 559 OFFCURVE",
"80 550 CURVE SMOOTH",
"80 187 LINE SMOOTH",
"80 182 OFFCURVE",
"69 176 OFFCURVE",
"86 176 CURVE SMOOTH",
"179 176 LINE SMOOTH",
"290 176 OFFCURVE",
"351 249 OFFCURVE",
"351 384 CURVE SMOOTH",
"351 476 OFFCURVE",
"313 566 OFFCURVE",
"187 566 CURVE SMOOTH"
);
},
{
closed = 1;
nodes = (
"327 274 OFFCURVE",
"281 200 OFFCURVE",
"178 200 CURVE SMOOTH",
"178 200 OFFCURVE",
"86 200 OFFCURVE",
"86 200 CURVE",
"86 542 LINE",
"86 542 OFFCURVE",
"114 542 OFFCURVE",
"182 542 CURVE SMOOTH",
"295 542 OFFCURVE",
"327 468 OFFCURVE",
"327 384 CURVE SMOOTH"
);
}
);
width = 381;
},
{
hints = (
{
horizontal = 1;
place = "{0.000000, 0.000000}";
},
{
horizontal = 1;
place = "{0.000000, 0.000000}";
}
);
layerId = UUID1;
name = Bold;
paths = (
{
closed = 1;
nodes = (
"30 0 LINE",
"136 0 OFFCURVE",
"142 0 OFFCURVE",
"142 20 CURVE",
"142 700 LINE",
"106 700 LINE SMOOTH",
"43 700 OFFCURVE",
"30 697 OFFCURVE",
"30 673 CURVE"
);
},
{
closed = 1;
nodes = (
"58 580 LINE",
"36 580 OFFCURVE",
"40 560 OFFCURVE",
"40 560 CURVE SMOOTH",
"40 178 LINE SMOOTH",
"40 157 OFFCURVE",
"40 150 OFFCURVE",
"63 150 CURVE SMOOTH",
"149 150 LINE SMOOTH",
"242 150 OFFCURVE",
"339 193 OFFCURVE",
"339 374 CURVE SMOOTH",
"339 538 OFFCURVE",
"270 580 OFFCURVE",
"144 580 CURVE SMOOTH"
);
},
{
closed = 1;
nodes = (
"213 276 OFFCURVE",
"193 253 OFFCURVE",
"162 253 CURVE SMOOTH",
"149 253 OFFCURVE",
"142 257 OFFCURVE",
"142 257 CURVE",
"142 480 LINE",
"142 480 OFFCURVE",
"153 483 OFFCURVE",
"169 483 CURVE SMOOTH",
"200 483 OFFCURVE",
"213 452 OFFCURVE",
"213 388 CURVE SMOOTH"
);
}
);
width = 349;
}
);
unicode = 00DE;
},
{
glyphname = Q;
lastChange = "2012-04-30 19:57:05 +0200";
layers = (
{
components = (
{
name = O;
transform = "{1, 0, 0, 1, 0, 0}";
}
);
layerId = UUID0;
name = Light;
paths = (
{
closed = 1;
nodes = (
"225 1 LINE",
"241 -94 OFFCURVE",
"268 -129 OFFCURVE",
"319 -129 CURVE SMOOTH",
"359 -129 OFFCURVE",
"395 -117 OFFCURVE",
"395 -105 CURVE SMOOTH",
"395 -100 OFFCURVE",
"393 -94 OFFCURVE",
"389 -90 CURVE",
"374 -100 OFFCURVE",
"354 -107 OFFCURVE",
"322 -107 CURVE SMOOTH",
"284 -107 OFFCURVE",
"265 -85 OFFCURVE",
"250 1 CURVE"
);
}
);
width = 466;
},
{
components = (
{
name = O;
transform = "{1, 0, 0, 1, 0, 0}";
}
);
layerId = UUID1;
name = Bold;
paths = (
{
closed = 1;
nodes = (
"166 5 LINE",
"192 -96 OFFCURVE",
"238 -142 OFFCURVE",
"320 -142 CURVE SMOOTH",
"351 -142 OFFCURVE",
"418 -135 OFFCURVE",
"418 -92 CURVE SMOOTH",
"418 -77 OFFCURVE",
"413 -49 OFFCURVE",
"403 -33 CURVE",
"381 -47 OFFCURVE",
"357 -50 OFFCURVE",
"343 -50 CURVE SMOOTH",
"311 -50 OFFCURVE",
"300 -24 OFFCURVE",
"295 35 CURVE"
);
}
);
width = 409;
}
);
leftKerningGroup = O;
rightKerningGroup = O;
unicode = 0051;
},
{
glyphname = R;
lastChange = "2012-04-30 19:55:14 +0200";
layers = (
{
anchors = (
{
name = bottom;
position = "{193, 0}";
},
{
name = top;
position = "{193, 700}";
}
);
hints = (
{
horizontal = 1;
place = "{0.000000, 0.000000}";
}
);
layerId = UUID0;
name = Light;
paths = (
{
closed = 1;
nodes = (
"316 210 OFFCURVE",
"222 325 OFFCURVE",
"222 325 CURVE",
"219 329 OFFCURVE",
"218 330 OFFCURVE",
"212 330 CURVE",
"204 326 LINE SMOOTH",
"196 322 OFFCURVE",
"200 314 OFFCURVE",
"200 314 CURVE",
"200 314 OFFCURVE",
"285 222 OFFCURVE",
"317 0 CURVE",
"323 0 OFFCURVE",
"327 0 OFFCURVE",
"330 0 CURVE SMOOTH",
"339 1 OFFCURVE",
"341 3 OFFCURVE",
"340 12 CURVE"
);
},
{
closed = 1;
nodes = (
"68 0 LINE",
"92 0 OFFCURVE",
"92 0 OFFCURVE",
"92 10 CURVE SMOOTH",
"92 690 LINE",
"92 690 OFFCURVE",
"92 700 OFFCURVE",
"82 700 CURVE SMOOTH",
"78 700 LINE SMOOTH",
"68 700 OFFCURVE",
"68 690 OFFCURVE",
"68 690 CURVE"
);
},
{
closed = 1;
nodes = (
"81 700 LINE",
"79 700 OFFCURVE",
"80 693 OFFCURVE",
"80 684 CURVE SMOOTH",
"80 321 LINE SMOOTH",
"80 316 OFFCURVE",
"69 310 OFFCURVE",
"86 310 CURVE SMOOTH",
"179 310 LINE SMOOTH",
"290 310 OFFCURVE",
"351 383 OFFCURVE",
"351 518 CURVE SMOOTH",
"351 610 OFFCURVE",
"313 700 OFFCURVE",
"187 700 CURVE SMOOTH"
);
},
{
closed = 1;
nodes = (
"327 408 OFFCURVE",
"281 334 OFFCURVE",
"178 334 CURVE",
"86 334 LINE",
"86 676 LINE",
"182 676 LINE",
"295 676 OFFCURVE",
"327 602 OFFCURVE",
"327 518 CURVE SMOOTH"
);
}
);
width = 385;
},
{
anchors = (
{
name = bottom;
position = "{184, 0}";
},
{
name = top;
position = "{184, 700}";
}
);
hints = (
{
horizontal = 1;
place = "{0.000000, 0.000000}";
}
);
layerId = UUID1;
name = Bold;
paths = (
{
closed = 1;
nodes = (
"347 259 OFFCURVE",
"236 341 OFFCURVE",
"236 341 CURVE",
"233 348 OFFCURVE",
"228 352 OFFCURVE",
"215 352 CURVE",
"152 316 LINE SMOOTH",
"134 307 OFFCURVE",
"145 295 OFFCURVE",
"145 295 CURVE",
"145 295 OFFCURVE",
"226 235 OFFCURVE",
"231 0 CURVE",
"256 -2 OFFCURVE",
"279 -3 OFFCURVE",
"297 -3 CURVE SMOOTH",
"351 -3 OFFCURVE",
"355 3 OFFCURVE",
"355 22 CURVE"
);
},
{
closed = 1;
nodes = (
"30 0 LINE",
"140 0 OFFCURVE",
"142 0 OFFCURVE",
"142 20 CURVE SMOOTH",
"142 680 LINE",
"142 680 OFFCURVE",
"142 700 OFFCURVE",
"122 700 CURVE SMOOTH",
"50 700 LINE SMOOTH",
"30 700 OFFCURVE",
"30 680 OFFCURVE",
"30 680 CURVE"
);
},
{
closed = 1;
nodes = (
"58 700 LINE",
"36 700 OFFCURVE",
"40 680 OFFCURVE",
"40 680 CURVE SMOOTH",
"40 298 LINE SMOOTH",
"40 277 OFFCURVE",
"40 270 OFFCURVE",
"63 270 CURVE SMOOTH",
"149 270 LINE SMOOTH",
"242 270 OFFCURVE",
"339 313 OFFCURVE",
"339 494 CURVE SMOOTH",
"339 658 OFFCURVE",
"270 700 OFFCURVE",
"144 700 CURVE SMOOTH"
);
},
{
closed = 1;
nodes = (
"213 396 OFFCURVE",
"193 373 OFFCURVE",
"162 373 CURVE",
"142 373 LINE",
"142 603 LINE",
"169 603 LINE",
"200 603 OFFCURVE",
"213 572 OFFCURVE",
"213 500 CURVE SMOOTH"
);
}
);
width = 365;
}
);
rightKerningGroup = R;
unicode = 0052;
},
{
glyphname = S;
lastChange = "2012-12-06 09:02:43 +0100";
layers = (
{
anchors = (
{
name = bottom;
position = "{172, 0}";
},
{
name = top;
position = "{205, 750}";
}
);
layerId = UUID0;
name = Light;
paths = (
{
closed = 1;
nodes = (
"107 710 OFFCURVE",
"46 657 OFFCURVE",
"46 584 CURVE SMOOTH",
"46 531 OFFCURVE",
"76 490 OFFCURVE",
"121 445 CURVE SMOOTH",
"238 337 LINE SMOOTH",
"300 275 OFFCURVE",
"321 229 OFFCURVE",
"321 161 CURVE SMOOTH",
"321 75 OFFCURVE",
"278 14 OFFCURVE",
"176 14 CURVE SMOOTH",
"107 14 OFFCURVE",
"75 32 OFFCURVE",
"54 52 CURVE SMOOTH",
"46 49 OFFCURVE",
"42 43 OFFCURVE",
"42 36 CURVE SMOOTH",
"42 22 OFFCURVE",
"81 -10 OFFCURVE",
"174 -10 CURVE SMOOTH",
"291 -10 OFFCURVE",
"345 61 OFFCURVE",
"345 166 CURVE SMOOTH",
"345 237 OFFCURVE",
"326 284 OFFCURVE",
"266 344 CURVE SMOOTH",
"135 467 LINE SMOOTH",
"99 503 OFFCURVE",
"70 538 OFFCURVE",
"70 585 CURVE SMOOTH",
"70 645 OFFCURVE",
"123 687 OFFCURVE",
"202 687 CURVE SMOOTH",
"263 687 OFFCURVE",
"302 670 OFFCURVE",
"320 655 CURVE SMOOTH",
"325 659 OFFCURVE",
"329 666 OFFCURVE",
"329 672 CURVE SMOOTH",
"329 687 OFFCURVE",
"291 710 OFFCURVE",
"208 710 CURVE SMOOTH"
);
}
);
width = 383;
},
{
anchors = (
{
name = bottom;
position = "{142, 0}";
},
{
name = top;
position = "{196, 750}";
}
);
layerId = UUID1;
name = Bold;
paths = (
{
closed = 1;
nodes = (
"75 710 OFFCURVE",
"15 647 OFFCURVE",
"15 557 CURVE SMOOTH",
"15 513 OFFCURVE",
"25 471 OFFCURVE",
"71 410 CURVE SMOOTH",
"162 288 LINE SMOOTH",
"197 242 OFFCURVE",
"207 216 OFFCURVE",
"207 182 CURVE SMOOTH",
"207 135 OFFCURVE",
"189 105 OFFCURVE",
"134 105 CURVE SMOOTH",
"98 105 OFFCURVE",
"62 119 OFFCURVE",
"41 138 CURVE SMOOTH",
"24 112 OFFCURVE",
"16 79 OFFCURVE",
"16 57 CURVE SMOOTH",
"16 22 OFFCURVE",
"57 -10 OFFCURVE",
"147 -10 CURVE SMOOTH",
"292 -10 OFFCURVE",
"329 85 OFFCURVE",
"329 185 CURVE SMOOTH",
"329 242 OFFCURVE",
"317 286 OFFCURVE",
"269 348 CURVE SMOOTH",
"173 471 LINE SMOOTH",
"147 507 OFFCURVE",
"137 529 OFFCURVE",
"137 560 CURVE SMOOTH",
"137 595 OFFCURVE",
"167 611 OFFCURVE",
"216 611 CURVE SMOOTH",
"254 611 OFFCURVE",
"292 599 OFFCURVE",
"303 591 CURVE SMOOTH",
"322 612 OFFCURVE",
"329 635 OFFCURVE",
"329 654 CURVE SMOOTH",
"329 689 OFFCURVE",
"294 710 OFFCURVE",
"193 710 CURVE SMOOTH"
);
}
);
width = 344;
}
);
leftKerningGroup = S;
rightKerningGroup = S;
unicode = 0053;
},
{
glyphname = T;
lastChange = "2012-04-30 22:24:20 +0200";
layers = (
{
anchors = (
{
name = bottom;
position = "{180, 0}";
},
{
name = center;
position = "{180, 350}";
},
{
name = top;
position = "{180, 700}";
}
);
hints = (
{
horizontal = 1;
place = "{0.000000, 0.000000}";
}
);
layerId = UUID0;
name = Light;
paths = (
{
closed = 1;
nodes = (
"166 0 LINE",
"190 0 OFFCURVE",
"190 0 OFFCURVE",
"190 9 CURVE",
"190 683 LINE",
"190 683 OFFCURVE",
"190 693 OFFCURVE",
"180 693 CURVE SMOOTH",
"176 693 LINE SMOOTH",
"166 693 OFFCURVE",
"166 683 OFFCURVE",
"166 683 CURVE"
);
},
{
closed = 1;
nodes = (
"345 676 LINE",
"353 676 OFFCURVE",
"355 680 OFFCURVE",
"355 686 CURVE",
"355 700 LINE",
"15 700 LINE",
"8 700 OFFCURVE",
"5 697 OFFCURVE",
"5 690 CURVE SMOOTH",
"5 676 LINE"
);
}
);
width = 360;
},
{
anchors = (
{
name = bottom;
position = "{190, 0}";
},
{
name = center;
position = "{190, 350}";
},
{
name = top;
position = "{190, 700}";
}
);
hints = (
{
horizontal = 1;
place = "{0.000000, 0.000000}";
}
);
layerId = UUID1;
name = Bold;
paths = (
{
closed = 1;
nodes = (
"132 0 LINE",
"242 0 OFFCURVE",
"244 0 OFFCURVE",
"244 20 CURVE",
"244 690 LINE",
"244 690 OFFCURVE",
"244 690 OFFCURVE",
"224 690 CURVE SMOOTH",
"152 690 LINE SMOOTH",
"132 690 OFFCURVE",
"132 690 OFFCURVE",
"132 690 CURVE"
);
},
{
closed = 1;
nodes = (
"350 596 LINE",
"364 596 OFFCURVE",
"370 600 OFFCURVE",
"370 616 CURVE",
"370 700 LINE",
"30 700 LINE",
"16 700 OFFCURVE",
"10 694 OFFCURVE",
"10 680 CURVE SMOOTH",
"10 596 LINE"
);
}
);
width = 380;
}
);
leftKerningGroup = T;
rightKerningGroup = T;
unicode = 0054;
},
{
glyphname = U;
lastChange = "2012-04-30 22:07:40 +0200";
layers = (
{
anchors = (
{
name = ogonek;
position = "{436, 10}";
},
{
name = top;
position = "{251, 750}";
}
);
hints = (
{
horizontal = 1;
place = "{0.000000, 0.000000}";
}
);
layerId = UUID0;
name = Light;
paths = (
{
closed = 1;
nodes = (
"92 700 LINE",
"68 700 OFFCURVE",
"68 700 OFFCURVE",
"68 690 CURVE",
"68 227 LINE SMOOTH",
"68 102 OFFCURVE",
"83 -10 OFFCURVE",
"250 -10 CURVE SMOOTH",
"317 -10 OFFCURVE",
"389 6 OFFCURVE",
"416 23 CURVE",
"416 700 LINE",
"395 700 OFFCURVE",
"392 700 OFFCURVE",
"392 691 CURVE",
"392 41 LINE",
"368 29 OFFCURVE",
"307 14 OFFCURVE",
"250 14 CURVE SMOOTH",
"106 14 OFFCURVE",
"92 117 OFFCURVE",
"92 227 CURVE SMOOTH"
);
}
);
width = 484;
},
{
anchors = (
{
name = ogonek;
position = "{370, 10}";
},
{
name = top;
position = "{207, 750}";
}
);
hints = (
{
horizontal = 1;
place = "{0.000000, 0.000000}";
}
);
layerId = UUID1;
name = Bold;
paths = (
{
closed = 1;
nodes = (
"146 700 LINE",
"30 700 OFFCURVE",
"30 700 OFFCURVE",
"30 679 CURVE",
"30 192 LINE SMOOTH",
"30 81 OFFCURVE",
"52 -10 OFFCURVE",
"209 -10 CURVE SMOOTH",
"294 -10 OFFCURVE",
"357 12 OFFCURVE",
"381 28 CURVE",
"381 700 LINE",
"267 700 OFFCURVE",
"267 700 OFFCURVE",
"267 679 CURVE",
"267 105 LINE",
"254 98 OFFCURVE",
"232 93 OFFCURVE",
"209 93 CURVE SMOOTH",
"157 93 OFFCURVE",
"146 123 OFFCURVE",
"146 188 CURVE SMOOTH"
);
}
);
width = 411;
}
);
leftKerningGroup = U;
unicode = 0055;
},
{
glyphname = V;
lastChange = "2012-04-30 22:24:23 +0200";
layers = (
{
hints = (
{
horizontal = 1;
place = "{0.000000, 0.000000}";
},
{
horizontal = 1;
place = "{0.000000, 0.000000}";
}
);
layerId = UUID0;
name = Light;
paths = (
{
closed = 1;
nodes = (
"7 686 OFFCURVE",
"142 218 OFFCURVE",
"190 48 CURVE SMOOTH",
"200 12 OFFCURVE",
"206 -10 OFFCURVE",
"211 -10 CURVE SMOOTH",
"219 -10 OFFCURVE",
"224 -9 OFFCURVE",
"224 -9 CURVE",
"417 700 LINE",
"400 700 LINE SMOOTH",
"393 700 OFFCURVE",
"392 694 OFFCURVE",
"390 686 CURVE SMOOTH",
"258 201 LINE",
"239 131 OFFCURVE",
"228 86 OFFCURVE",
"216 27 CURVE",
"203 86 OFFCURVE",
"192 130 OFFCURVE",
"171 201 CURVE",
"27 700 LINE",
"11 700 LINE SMOOTH",
"3 700 OFFCURVE",
"4 694 OFFCURVE",
"7 686 CURVE"
);
}
);
width = 421;
},
{
hints = (
{
horizontal = 1;
place = "{0.000000, 0.000000}";
},
{
horizontal = 1;
place = "{0.000000, 0.000000}";
}
);
layerId = UUID1;
name = Bold;
paths = (
{
closed = 1;
nodes = (
"7 671 OFFCURVE",
"87 212 OFFCURVE",
"122 53 CURVE SMOOTH",
"129 20 OFFCURVE",
"147 -6 OFFCURVE",
"185 -6 CURVE SMOOTH",
"228 -6 OFFCURVE",
"249 -4 OFFCURVE",
"283 0 CURVE",
"415 700 LINE",
"316 700 LINE SMOOTH",
"296 700 OFFCURVE",
"292 691 OFFCURVE",
"289 670 CURVE SMOOTH",
"246 374 LINE",
"231 275 OFFCURVE",
"219 158 OFFCURVE",
"213 92 CURVE",
"205 158 OFFCURVE",
"191 275 OFFCURVE",
"176 374 CURVE",
"126 700 LINE",
"32 700 LINE SMOOTH",
"3 700 OFFCURVE",
"3 693 OFFCURVE",
"7 671 CURVE"
);
}
);
width = 420;
}
);
leftKerningGroup = V;
rightKerningGroup = V;
unicode = 0056;
},
{
glyphname = W;
lastChange = "2012-04-30 20:09:09 +0200";
layers = (
{
anchors = (
{
name = top;
position = "{315, 700}";
}
);
hints = (
{
horizontal = 1;
place = "{0.000000, 0.000000}";
},
{
horizontal = 1;
place = "{0.000000, 0.000000}";
}
);
layerId = UUID0;
name = Light;
paths = (
{
closed = 1;
nodes = (
"6 686 OFFCURVE",
"114 224 OFFCURVE",
"152 50 CURVE SMOOTH",
"160 12 OFFCURVE",
"165 -10 OFFCURVE",
"169 -10 CURVE SMOOTH",
"177 -10 OFFCURVE",
"183 -9 OFFCURVE",
"183 -9 CURVE",
"288 476 LINE",
"288 476 OFFCURVE",
"316 625 OFFCURVE",
"316 625 CURVE",
"323 646 LINE SMOOTH",
"325 653 OFFCURVE",
"327 660 OFFCURVE",
"318 660 CURVE SMOOTH",
"309 660 LINE SMOOTH",
"302 660 OFFCURVE",
"301 654 OFFCURVE",
"299 646 CURVE SMOOTH",
"204 200 LINE SMOOTH",
"192 143 OFFCURVE",
"183 99 OFFCURVE",
"176 41 CURVE",
"174 41 LINE",
"163 100 OFFCURVE",
"158 128 OFFCURVE",
"142 200 CURVE SMOOTH",
"27 700 LINE",
"10 700 LINE SMOOTH",
"3 700 OFFCURVE",
"5 691 OFFCURVE",
"6 686 CURVE"
);
},
{
closed = 1;
nodes = (
"312 625 LINE",
"312 625 OFFCURVE",
"342 474 OFFCURVE",
"342 474 CURVE",
"446 34 LINE SMOOTH",
"452 8 OFFCURVE",
"457 -11 OFFCURVE",
"460 -11 CURVE SMOOTH",
"469 -11 OFFCURVE",
"473 -9 OFFCURVE",
"473 -9 CURVE",
"626 700 LINE",
"609 700 LINE SMOOTH",
"602 700 OFFCURVE",
"601 694 OFFCURVE",
"599 686 CURVE SMOOTH",
"495 200 LINE SMOOTH",
"482 140 OFFCURVE",
"475 86 OFFCURVE",
"467 43 CURVE",
"465 43 LINE",
"454 102 OFFCURVE",
"451 127 OFFCURVE",
"434 200 CURVE SMOOTH",
"327 660 LINE",
"310 660 LINE SMOOTH",
"302 660 OFFCURVE",
"303 654 OFFCURVE",
"306 646 CURVE SMOOTH"
);
}
);
width = 629;
},
{
anchors = (
{
name = top;
position = "{334, 700}";
}
);
hints = (
{
horizontal = 1;
place = "{0.000000, 0.000000}";
},
{
horizontal = 1;
place = "{0.000000, 0.000000}";
}
);
layerId = UUID1;
name = Bold;
paths = (
{
closed = 1;
nodes = (
"7 671 OFFCURVE",
"79 219 OFFCURVE",
"112 57 CURVE SMOOTH",
"119 22 OFFCURVE",
"136 -5 OFFCURVE",
"166 -5 CURVE SMOOTH",
"214 -5 OFFCURVE",
"234 -4 OFFCURVE",
"273 0 CURVE",
"300 165 LINE",
"321 292 OFFCURVE",
"341 532 OFFCURVE",
"341 532 CURVE",
"379 642 LINE SMOOTH",
"382 659 OFFCURVE",
"383 670 OFFCURVE",
"355 670 CURVE SMOOTH",
"306 670 LINE SMOOTH",
"285 670 OFFCURVE",
"282 661 OFFCURVE",
"279 640 CURVE SMOOTH",
"236 374 LINE SMOOTH",
"223 294 OFFCURVE",
"213 205 OFFCURVE",
"211 114 CURVE",
"203 114 LINE",
"199 180 OFFCURVE",
"190 275 OFFCURVE",
"175 374 CURVE SMOOTH",
"126 700 LINE",
"32 700 LINE SMOOTH",
"6 700 OFFCURVE",
"3 693 OFFCURVE",
"7 671 CURVE"
);
},
{
closed = 1;
nodes = (
"322 534 LINE",
"322 534 OFFCURVE",
"339 292 OFFCURVE",
"364 165 CURVE",
"386 57 LINE SMOOTH",
"394 17 OFFCURVE",
"411 -6 OFFCURVE",
"446 -6 CURVE SMOOTH",
"489 -6 OFFCURVE",
"499 -5 OFFCURVE",
"544 0 CURVE",
"663 700 LINE",
"566 700 LINE SMOOTH",
"546 700 OFFCURVE",
"542 691 OFFCURVE",
"539 670 CURVE SMOOTH",
"497 374 LINE SMOOTH",
"485 290 OFFCURVE",
"476 187 OFFCURVE",
"473 114 CURVE",
"465 114 LINE",
"460 180 OFFCURVE",
"453 275 OFFCURVE",
"436 374 CURVE SMOOTH",
"385 670 LINE",
"312 670 LINE SMOOTH",
"292 670 OFFCURVE",
"283 663 OFFCURVE",
"287 641 CURVE SMOOTH"
);
}
);
width = 668;
}
);
leftKerningGroup = V;
rightKerningGroup = V;
unicode = 0057;
},
{
glyphname = X;
lastChange = "2012-04-30 22:24:26 +0200";
layers = (
{
hints = (
{
horizontal = 1;
place = "{0.000000, 0.000000}";
},
{
horizontal = 1;
place = "{0.000000, 0.000000}";
}
);
layerId = UUID0;
name = Light;
paths = (
{
closed = 1;
nodes = (
"203 359 LINE",
"213 353 LINE",
"213 353 OFFCURVE",
"259 262 OFFCURVE",
"305 169 CURVE",
"389 0 LINE",
"411 0 LINE SMOOTH",
"415 0 OFFCURVE",
"419 3 OFFCURVE",
"416 9 CURVE",
"227 371 LINE",
"219 378 LINE",
"219 378 OFFCURVE",
"173 477 OFFCURVE",
"127 571 CURVE SMOOTH",
"64 700 LINE",
"33 700 OFFCURVE",
"36 700 OFFCURVE",
"39 695 CURVE"
);
},
{
closed = 1;
nodes = (
"397 700 LINE",
"366 700 OFFCURVE",
"369 700 OFFCURVE",
"366 695 CURVE",
"306 571 LINE",
"261 479 OFFCURVE",
"213 377 OFFCURVE",
"213 377 CURVE",
"202 371 LINE",
"12 0 LINE",
"34 0 LINE SMOOTH",
"39 0 OFFCURVE",
"41 1 OFFCURVE",
"43 4 CURVE",
"127 170 LINE",
"174 262 OFFCURVE",
"219 353 OFFCURVE",
"219 353 CURVE",
"230 357 LINE"
);
}
);
width = 429;
},
{
hints = (
{
horizontal = 1;
place = "{0.000000, 0.000000}";
},
{
horizontal = 1;
place = "{0.000000, 0.000000}";
}
);
layerId = UUID1;
name = Bold;
paths = (
{
closed = 1;
nodes = (
"150 335 LINE",
"187 295 LINE",
"187 295 OFFCURVE",
"210 196 OFFCURVE",
"236 116 CURVE",
"274 0 LINE",
"398 0 LINE SMOOTH",
"412 0 OFFCURVE",
"414 6 OFFCURVE",
"409 16 CURVE",
"274 407 LINE",
"234 429 LINE",
"234 429 OFFCURVE",
"219 517 OFFCURVE",
"197 595 CURVE SMOOTH",
"168 700 LINE",
"37 700 OFFCURVE",
"28 700 OFFCURVE",
"34 681 CURVE"
);
},
{
closed = 1;
nodes = (
"397 700 LINE",
"283 700 OFFCURVE",
"283 700 OFFCURVE",
"278 682 CURVE",
"252 595 LINE",
"229 518 OFFCURVE",
"214 429 OFFCURVE",
"214 429 CURVE",
"153 388 LINE",
"7 0 LINE",
"104 0 LINE SMOOTH",
"116 0 OFFCURVE",
"121 3 OFFCURVE",
"127 14 CURVE",
"165 116 LINE",
"195 196 OFFCURVE",
"217 295 OFFCURVE",
"217 295 CURVE",
"263 307 LINE"
);
}
);
width = 421;
}
);
leftKerningGroup = X;
rightKerningGroup = X;
unicode = 0058;
},
{
glyphname = Y;
lastChange = "2012-04-30 22:24:29 +0200";
layers = (
{
anchors = (
{
name = top;
position = "{181, 750}";
}
);
hints = (
{
horizontal = 1;
place = "{0.000000, 0.000000}";
},
{
horizontal = 1;
place = "{0.000000, 0.000000}";
}
);
layerId = UUID0;
name = Light;
paths = (
{
closed = 1;
nodes = (
"32 700 LINE",
"5 700 OFFCURVE",
"4 700 OFFCURVE",
"6 695 CURVE",
"176 267 LINE",
"184 266 LINE",
"352 700 LINE",
"327 700 OFFCURVE",
"326 700 OFFCURVE",
"324 695 CURVE",
"269 551 LINE SMOOTH",
"233 457 OFFCURVE",
"180 311 OFFCURVE",
"180 311 CURVE",
"180 311 OFFCURVE",
"128 458 OFFCURVE",
"91 551 CURVE SMOOTH"
);
},
{
closed = 1;
nodes = (
"168 0 LINE",
"192 0 OFFCURVE",
"192 0 OFFCURVE",
"192 10 CURVE",
"192 301 LINE",
"168 301 LINE"
);
}
);
width = 357;
},
{
anchors = (
{
name = top;
position = "{192, 750}";
}
);
hints = (
{
horizontal = 1;
place = "{0.000000, 0.000000}";
},
{
horizontal = 1;
place = "{0.000000, 0.000000}";
}
);
layerId = UUID1;
name = Bold;
paths = (
{
closed = 1;
nodes = (
"134 700 LINE",
"3 700 OFFCURVE",
"1 700 OFFCURVE",
"6 683 CURVE",
"153 217 LINE",
"220 217 LINE",
"364 700 LINE",
"250 700 OFFCURVE",
"250 700 OFFCURVE",
"244 680 CURVE",
"220 570 LINE SMOOTH",
"210 522 OFFCURVE",
"195 422 OFFCURVE",
"191 377 CURVE",
"187 422 OFFCURVE",
"174 521 OFFCURVE",
"163 569 CURVE SMOOTH"
);
},
{
closed = 1;
nodes = (
"131 0 LINE",
"245 0 OFFCURVE",
"243 0 OFFCURVE",
"243 20 CURVE",
"243 365 LINE",
"131 365 LINE"
);
}
);
width = 368;
}
);
leftKerningGroup = Y;
rightKerningGroup = Y;
unicode = 0059;
},
{
glyphname = Z;
lastChange = "2012-04-30 22:24:31 +0200";
layers = (
{
anchors = (
{
name = top;
position = "{222, 750}";
}
);
layerId = UUID0;
name = Light;
paths = (
{
closed = 1;
nodes = (
"57 676 LINE",
"57 676 OFFCURVE",
"71 676 OFFCURVE",
"95 676 CURVE SMOOTH",
"337 676 LINE",
"35 27 LINE SMOOTH",
"33 22 OFFCURVE",
"31 17 OFFCURVE",
"31 11 CURVE SMOOTH",
"31 5 OFFCURVE",
"34 1 OFFCURVE",
"38 0 CURVE",
"358 0 LINE SMOOTH",
"366 0 OFFCURVE",
"368 5 OFFCURVE",
"368 10 CURVE",
"368 27 LINE",
"358 24 OFFCURVE",
"341 24 OFFCURVE",
"323 24 CURVE SMOOTH",
"60 24 LINE",
"364 673 LINE SMOOTH",
"367 680 OFFCURVE",
"368 684 OFFCURVE",
"368 689 CURVE SMOOTH",
"368 693 OFFCURVE",
"367 697 OFFCURVE",
"364 700 CURVE",
"67 700 LINE SMOOTH",
"60 700 OFFCURVE",
"57 696 OFFCURVE",
"57 690 CURVE"
);
}
);
width = 402;
},
{
anchors = (
{
name = top;
position = "{195, 750}";
}
);
layerId = UUID1;
name = Bold;
paths = (
{
closed = 1;
nodes = (
"25 596 LINE",
"39 600 OFFCURVE",
"58 601 OFFCURVE",
"72 601 CURVE SMOOTH",
"228 601 LINE",
"22 90 LINE SMOOTH",
"15 72 OFFCURVE",
"13 58 OFFCURVE",
"13 43 CURVE SMOOTH",
"13 23 OFFCURVE",
"20 9 OFFCURVE",
"28 0 CURVE",
"337 0 LINE SMOOTH",
"353 0 OFFCURVE",
"357 8 OFFCURVE",
"357 20 CURVE",
"357 109 LINE",
"338 101 OFFCURVE",
"315 99 OFFCURVE",
"290 99 CURVE SMOOTH",
"135 99 LINE",
"346 617 LINE SMOOTH",
"352 632 OFFCURVE",
"356 649 OFFCURVE",
"356 665 CURVE SMOOTH",
"356 682 OFFCURVE",
"352 690 OFFCURVE",
"346 700 CURVE",
"46 700 LINE SMOOTH",
"34 700 OFFCURVE",
"25 692 OFFCURVE",
"25 679 CURVE"
);
}
);
width = 376;
}
);
leftKerningGroup = Z;
rightKerningGroup = Z;
unicode = 005A;
},
{
glyphname = a;
lastChange = "2012-04-30 22:05:10 +0200";
layers = (
{
anchors = (
{
name = ogonek;
position = "{321, 28}";
},
{
name = top;
position = "{194, 550}";
}
);
layerId = UUID0;
name = Light;
paths = (
{
closed = 1;
nodes = (
"44 468 OFFCURVE",
"45 465 OFFCURVE",
"48 460 CURVE",
"71 472 OFFCURVE",
"128 486 OFFCURVE",
"204 486 CURVE SMOOTH",
"260 486 OFFCURVE",
"303 471 OFFCURVE",
"303 385 CURVE SMOOTH",
"303 357 OFFCURVE",
"303 287 OFFCURVE",
"303 287 CURVE",
"279 294 OFFCURVE",
"246 297 OFFCURVE",
"212 297 CURVE SMOOTH",
"129 297 OFFCURVE",
"45 278 OFFCURVE",
"45 135 CURVE SMOOTH",
"45 0 OFFCURVE",
"119 -12 OFFCURVE",
"190 -10 CURVE SMOOTH",
"265 -10 OFFCURVE",
"305 18 OFFCURVE",
"321 28 CURVE",
"324 108 OFFCURVE",
"327 209 OFFCURVE",
"327 323 CURVE SMOOTH",
"327 389 LINE SMOOTH",
"327 479 OFFCURVE",
"283 510 OFFCURVE",
"209 510 CURVE SMOOTH",
"140 510 OFFCURVE",
"72 498 OFFCURVE",
"49 486 CURVE SMOOTH",
"45 484 OFFCURVE",
"44 480 OFFCURVE",
"44 473 CURVE SMOOTH"
);
},
{
closed = 1;
nodes = (
"303 187 OFFCURVE",
"301 96 OFFCURVE",
"297 43 CURVE",
"283 31 OFFCURVE",
"242 14 OFFCURVE",
"197 14 CURVE SMOOTH",
"132 14 OFFCURVE",
"69 16 OFFCURVE",
"69 136 CURVE SMOOTH",
"69 265 OFFCURVE",
"142 275 OFFCURVE",
"217 275 CURVE SMOOTH",
"242 275 OFFCURVE",
"278 271 OFFCURVE",
"303 264 CURVE"
);
}
);
width = 383;
},
{
anchors = (
{
name = ogonek;
position = "{306, 22}";
},
{
name = top;
position = "{172, 550}";
}
);
layerId = UUID1;
name = Bold;
paths = (
{
closed = 1;
nodes = (
"22 430 OFFCURVE",
"25 404 OFFCURVE",
"37 381 CURVE",
"70 393 OFFCURVE",
"120 402 OFFCURVE",
"157 402 CURVE SMOOTH",
"188 402 OFFCURVE",
"199 391 OFFCURVE",
"199 365 CURVE SMOOTH",
"199 337 OFFCURVE",
"199 296 OFFCURVE",
"199 296 CURVE",
"181 308 OFFCURVE",
"150 311 OFFCURVE",
"135 311 CURVE SMOOTH",
"76 311 OFFCURVE",
"20 283 OFFCURVE",
"20 146 CURVE SMOOTH",
"20 7 OFFCURVE",
"88 -10 OFFCURVE",
"162 -10 CURVE SMOOTH",
"222 -10 OFFCURVE",
"272 2 OFFCURVE",
"306 22 CURVE",
"311 96 OFFCURVE",
"311 226 OFFCURVE",
"311 341 CURVE SMOOTH",
"311 388 LINE SMOOTH",
"311 478 OFFCURVE",
"277 510 OFFCURVE",
"185 510 CURVE SMOOTH",
"105 510 OFFCURVE",
"50 492 OFFCURVE",
"36 481 CURVE SMOOTH",
"27 474 OFFCURVE",
"22 458 OFFCURVE",
"22 446 CURVE SMOOTH"
);
},
{
closed = 1;
nodes = (
"199 179 OFFCURVE",
"199 114 OFFCURVE",
"197 92 CURVE",
"191 85 OFFCURVE",
"179 82 OFFCURVE",
"170 82 CURVE SMOOTH",
"145 82 OFFCURVE",
"138 101 OFFCURVE",
"138 149 CURVE SMOOTH",
"138 213 OFFCURVE",
"151 229 OFFCURVE",
"173 229 CURVE SMOOTH",
"181 229 OFFCURVE",
"192 227 OFFCURVE",
"199 221 CURVE"
);
}
);
width = 338;
}
);
leftKerningGroup = a;
rightKerningGroup = a;
unicode = 0061;
},
{
glyphname = ae;
lastChange = "2012-04-30 12:10:40 +0200";
layers = (
{
anchors = (
{
name = top;
position = "{333, 500}";
}
);
layerId = UUID0;
name = Light;
paths = (
{
closed = 1;
nodes = (
"405 510 OFFCURVE",
"305 490 OFFCURVE",
"305 221 CURVE SMOOTH",
"305 15 OFFCURVE",
"377 -8 OFFCURVE",
"474 -8 CURVE SMOOTH",
"544 -8 OFFCURVE",
"606 19 OFFCURVE",
"606 29 CURVE SMOOTH",
"606 34 OFFCURVE",
"605 45 OFFCURVE",
"601 53 CURVE",
"571 29 OFFCURVE",
"522 16 OFFCURVE",
"473 16 CURVE SMOOTH",
"393 16 OFFCURVE",
"329 31 OFFCURVE",
"329 217 CURVE SMOOTH",
"329 477 OFFCURVE",
"422 486 OFFCURVE",
"486 486 CURVE",
"564 486 OFFCURVE",
"584 435 OFFCURVE",
"586 347 CURVE SMOOTH",
"586 323 OFFCURVE",
"585 297 OFFCURVE",
"582 267 CURVE",
"487 247 OFFCURVE",
"324 283 OFFCURVE",
"324 283 CURVE",
"324 259 LINE",
"324 259 OFFCURVE",
"482 223 OFFCURVE",
"603 246 CURVE",
"608 276 OFFCURVE",
"610 320 OFFCURVE",
"610 359 CURVE SMOOTH",
"610 450 OFFCURVE",
"576 510 OFFCURVE",
"485 510 CURVE"
);
},
{
closed = 1;
nodes = (
"49 465 OFFCURVE",
"50 461 OFFCURVE",
"52 456 CURVE",
"81 473 OFFCURVE",
"134 486 OFFCURVE",
"198 486 CURVE SMOOTH",
"260 486 OFFCURVE",
"303 471 OFFCURVE",
"303 385 CURVE SMOOTH",
"303 357 OFFCURVE",
"303 287 OFFCURVE",
"303 287 CURVE",
"279 294 OFFCURVE",
"246 297 OFFCURVE",
"212 297 CURVE SMOOTH",
"129 297 OFFCURVE",
"45 278 OFFCURVE",
"45 135 CURVE SMOOTH",
"45 0 OFFCURVE",
"119 -10 OFFCURVE",
"190 -8 CURVE SMOOTH",
"265 -8 OFFCURVE",
"311 12 OFFCURVE",
"327 22 CURVE",
"327 389 LINE SMOOTH",
"327 479 OFFCURVE",
"283 510 OFFCURVE",
"206 510 CURVE SMOOTH",
"128 510 OFFCURVE",
"79 496 OFFCURVE",
"57 484 CURVE SMOOTH",
"53 482 OFFCURVE",
"49 476 OFFCURVE",
"49 470 CURVE SMOOTH"
);
},
{
closed = 1;
nodes = (
"303 41 LINE",
"289 27 OFFCURVE",
"242 14 OFFCURVE",
"197 14 CURVE SMOOTH",
"132 14 OFFCURVE",
"69 20 OFFCURVE",
"69 131 CURVE SMOOTH",
"69 265 OFFCURVE",
"142 275 OFFCURVE",
"217 275 CURVE SMOOTH",
"242 275 OFFCURVE",
"278 271 OFFCURVE",
"303 264 CURVE"
);
}
);
width = 666;
},
{
anchors = (
{
name = top;
position = "{268, 500}";
}
);
layerId = UUID1;
name = Bold;
paths = (
{
closed = 1;
nodes = (
"287 510 OFFCURVE",
"225 476 OFFCURVE",
"225 226 CURVE SMOOTH",
"225 22 OFFCURVE",
"269 -9 OFFCURVE",
"360 -9 CURVE SMOOTH",
"438 -9 OFFCURVE",
"502 12 OFFCURVE",
"502 28 CURVE SMOOTH",
"502 60 OFFCURVE",
"499 107 OFFCURVE",
"493 127 CURVE",
"458 110 OFFCURVE",
"423 99 OFFCURVE",
"375 99 CURVE SMOOTH",
"330 99 OFFCURVE",
"321 114 OFFCURVE",
"321 233 CURVE SMOOTH",
"321 355 OFFCURVE",
"331 413 OFFCURVE",
"366 413 CURVE",
"391 413 OFFCURVE",
"400 403 OFFCURVE",
"400 339 CURVE SMOOTH",
"400 323 OFFCURVE",
"399 299 OFFCURVE",
"395 287 CURVE",
"335 281 OFFCURVE",
"273 307 OFFCURVE",
"273 307 CURVE",
"271 218 LINE",
"271 218 OFFCURVE",
"351 189 OFFCURVE",
"495 205 CURVE",
"505 244 OFFCURVE",
"509 299 OFFCURVE",
"509 347 CURVE SMOOTH",
"509 463 OFFCURVE",
"461 510 OFFCURVE",
"381 510 CURVE"
);
},
{
closed = 1;
nodes = (
"22 445 OFFCURVE",
"23 408 OFFCURVE",
"37 385 CURVE",
"70 403 OFFCURVE",
"108 411 OFFCURVE",
"151 411 CURVE SMOOTH",
"178 411 OFFCURVE",
"199 400 OFFCURVE",
"199 374 CURVE SMOOTH",
"199 346 OFFCURVE",
"199 316 OFFCURVE",
"199 316 CURVE",
"181 328 OFFCURVE",
"150 331 OFFCURVE",
"131 331 CURVE SMOOTH",
"76 331 OFFCURVE",
"20 293 OFFCURVE",
"20 156 CURVE SMOOTH",
"20 0 OFFCURVE",
"88 -10 OFFCURVE",
"162 -10 CURVE SMOOTH",
"222 -10 OFFCURVE",
"257 0 OFFCURVE",
"291 20 CURVE",
"291 388 LINE SMOOTH",
"291 478 OFFCURVE",
"269 510 OFFCURVE",
"192 510 CURVE SMOOTH",
"101 510 OFFCURVE",
"50 495 OFFCURVE",
"34 482 CURVE SMOOTH",
"29 478 OFFCURVE",
"22 465 OFFCURVE",
"22 453 CURVE SMOOTH"
);
},
{
closed = 1;
nodes = (
"199 92 LINE",
"193 84 OFFCURVE",
"175 82 OFFCURVE",
"168 82 CURVE SMOOTH",
"143 82 OFFCURVE",
"138 93 OFFCURVE",
"138 159 CURVE SMOOTH",
"138 223 OFFCURVE",
"151 249 OFFCURVE",
"173 249 CURVE SMOOTH",
"181 249 OFFCURVE",
"191 247 OFFCURVE",
"199 242 CURVE"
);
}
);
width = 536;
}
);
leftKerningGroup = a;
rightKerningGroup = e;
unicode = 00E6;
},
{
glyphname = b;
lastChange = "2012-04-30 19:55:41 +0200";
layers = (
{
hints = (
{
horizontal = 1;
place = "{0.000000, 0.000000}";
}
);
layerId = UUID0;
name = Light;
paths = (
{
closed = 1;
nodes = (
"70 20 LINE",
"96 0 OFFCURVE",
"133 -10 OFFCURVE",
"185 -10 CURVE SMOOTH",
"264 -10 OFFCURVE",
"380 26 OFFCURVE",
"380 324 CURVE SMOOTH",
"380 464 OFFCURVE",
"322 509 OFFCURVE",
"240 510 CURVE SMOOTH",
"173 510 OFFCURVE",
"131 492 OFFCURVE",
"94 463 CURVE",
"94 735 LINE",
"77 735 OFFCURVE",
"70 735 OFFCURVE",
"70 720 CURVE"
);
},
{
closed = 1;
nodes = (
"94 433 LINE",
"133 470 OFFCURVE",
"179 486 OFFCURVE",
"231 486 CURVE SMOOTH",
"316 486 OFFCURVE",
"356 446 OFFCURVE",
"356 311 CURVE SMOOTH",
"356 44 OFFCURVE",
"251 14 OFFCURVE",
"186 14 CURVE SMOOTH",
"136 14 OFFCURVE",
"108 26 OFFCURVE",
"94 37 CURVE"
);
}
);
width = 422;
},
{
hints = (
{
horizontal = 1;
place = "{0.000000, 0.000000}";
}
);
layerId = UUID1;
name = Bold;
paths = (
{
closed = 1;
nodes = (
"35 20 LINE",
"57 2 OFFCURVE",
"99 -10 OFFCURVE",
"152 -10 CURVE SMOOTH",
"238 -10 OFFCURVE",
"345 23 OFFCURVE",
"345 307 CURVE SMOOTH",
"345 457 OFFCURVE",
"311 510 OFFCURVE",
"232 510 CURVE SMOOTH",
"197 510 OFFCURVE",
"168 499 OFFCURVE",
"147 481 CURVE",
"147 735 LINE",
"53 735 OFFCURVE",
"35 735 OFFCURVE",
"35 685 CURVE"
);
},
{
closed = 1;
nodes = (
"147 396 LINE",
"157 406 OFFCURVE",
"169 410 OFFCURVE",
"180 410 CURVE SMOOTH",
"205 410 OFFCURVE",
"218 379 OFFCURVE",
"218 287 CURVE SMOOTH",
"218 118 OFFCURVE",
"188 88 OFFCURVE",
"169 88 CURVE SMOOTH",
"160 88 OFFCURVE",
"152 91 OFFCURVE",
"147 96 CURVE"
);
}
);
width = 365;
}
);
rightKerningGroup = b;
unicode = 0062;
},
{
glyphname = c;
lastChange = "2012-04-30 19:55:44 +0200";
layers = (
{
anchors = (
{
name = bottom;
position = "{203, 0}";
},
{
name = top;
position = "{216, 550}";
}
);
layerId = UUID0;
name = Light;
paths = (
{
closed = 1;
nodes = (
"316 492 OFFCURVE",
"275 510 OFFCURVE",
"232 510 CURVE SMOOTH",
"151 510 OFFCURVE",
"50 479 OFFCURVE",
"50 239 CURVE SMOOTH",
"50 20 OFFCURVE",
"119 -10 OFFCURVE",
"201 -10 CURVE SMOOTH",
"270 -10 OFFCURVE",
"318 19 OFFCURVE",
"318 35 CURVE SMOOTH",
"318 41 OFFCURVE",
"316 48 OFFCURVE",
"312 53 CURVE",
"294 34 OFFCURVE",
"257 13 OFFCURVE",
"205 13 CURVE SMOOTH",
"130 13 OFFCURVE",
"74 45 OFFCURVE",
"74 234 CURVE SMOOTH",
"74 461 OFFCURVE",
"160 486 OFFCURVE",
"225 486 CURVE SMOOTH",
"265 486 OFFCURVE",
"294 471 OFFCURVE",
"310 458 CURVE",
"314 463 OFFCURVE",
"316 472 OFFCURVE",
"316 476 CURVE SMOOTH"
);
}
);
width = 352;
},
{
anchors = (
{
name = bottom;
position = "{171, 0}";
},
{
name = top;
position = "{190, 550}";
}
);
layerId = UUID1;
name = Bold;
paths = (
{
closed = 1;
nodes = (
"281 491 OFFCURVE",
"247 510 OFFCURVE",
"198 510 CURVE SMOOTH",
"115 510 OFFCURVE",
"20 479 OFFCURVE",
"20 239 CURVE SMOOTH",
"20 32 OFFCURVE",
"65 -10 OFFCURVE",
"168 -10 CURVE SMOOTH",
"232 -10 OFFCURVE",
"277 11 OFFCURVE",
"277 44 CURVE SMOOTH",
"277 61 OFFCURVE",
"274 78 OFFCURVE",
"268 103 CURVE",
"252 95 OFFCURVE",
"225 89 OFFCURVE",
"204 89 CURVE SMOOTH",
"151 89 OFFCURVE",
"137 126 OFFCURVE",
"137 241 CURVE SMOOTH",
"137 393 OFFCURVE",
"172 412 OFFCURVE",
"208 412 CURVE SMOOTH",
"229 412 OFFCURVE",
"255 406 OFFCURVE",
"271 399 CURVE",
"279 423 OFFCURVE",
"281 444 OFFCURVE",
"281 459 CURVE SMOOTH"
);
}
);
width = 291;
}
);
leftKerningGroup = o;
rightKerningGroup = c;
unicode = 0063;
},
{
glyphname = d;
lastChange = "2012-04-30 20:09:48 +0200";
layers = (
{
anchors = (
{
name = center;
position = "{211, 250}";
}
);
layerId = UUID0;
name = Light;
paths = (
{
closed = 1;
nodes = (
"328 39 LINE",
"299 21 OFFCURVE",
"260 14 OFFCURVE",
"220 14 CURVE SMOOTH",
"135 15 OFFCURVE",
"74 33 OFFCURVE",
"74 241 CURVE SMOOTH",
"74 403 OFFCURVE",
"146 486 OFFCURVE",
"236 486 CURVE SMOOTH",
"281 486 OFFCURVE",
"301 479 OFFCURVE",
"327 458 CURVE"
);
},
{
closed = 1;
nodes = (
"327 486 LINE",
"301 504 OFFCURVE",
"272 510 OFFCURVE",
"233 510 CURVE",
"134 510 OFFCURVE",
"50 426 OFFCURVE",
"50 241 CURVE SMOOTH",
"50 15 OFFCURVE",
"123 -10 OFFCURVE",
"213 -10 CURVE SMOOTH",
"269 -10 OFFCURVE",
"320 2 OFFCURVE",
"352 20 CURVE",
"352 735 LINE",
"335 735 OFFCURVE",
"327 735 OFFCURVE",
"327 720 CURVE"
);
}
);
width = 422;
},
{
anchors = (
{
name = center;
position = "{180, 250}";
}
);
layerId = UUID1;
name = Bold;
paths = (
{
closed = 1;
nodes = (
"216 99 LINE",
"207 92 OFFCURVE",
"196 89 OFFCURVE",
"183 89 CURVE SMOOTH",
"157 89 OFFCURVE",
"146 122 OFFCURVE",
"146 241 CURVE SMOOTH",
"146 406 OFFCURVE",
"175 414 OFFCURVE",
"195 414 CURVE SMOOTH",
"202 414 OFFCURVE",
"210 413 OFFCURVE",
"216 409 CURVE"
);
},
{
closed = 1;
nodes = (
"216 492 LINE",
"204 502 OFFCURVE",
"184 510 OFFCURVE",
"157 510 CURVE",
"79 510 OFFCURVE",
"20 432 OFFCURVE",
"20 227 CURVE SMOOTH",
"20 15 OFFCURVE",
"97 -10 OFFCURVE",
"182 -10 CURVE SMOOTH",
"247 -10 OFFCURVE",
"294 5 OFFCURVE",
"328 20 CURVE",
"328 735 LINE",
"235 735 OFFCURVE",
"216 735 OFFCURVE",
"216 686 CURVE"
);
}
);
width = 358;
}
);
leftKerningGroup = o;
unicode = 0064;
},
{
glyphname = eth;
lastChange = "2012-04-30 19:52:19 +0200";
layers = (
{
hints = (
{
horizontal = 1;
place = "{0.000000, 0.000000}";
}
);
layerId = UUID0;
name = Light;
paths = (
{
closed = 1;
nodes = (
"396 389 LINE",
"370 471 OFFCURVE",
"308 508 OFFCURVE",
"231 508 CURVE SMOOTH",
"112 508 OFFCURVE",
"47 423 OFFCURVE",
"47 256 CURVE SMOOTH",
"47 70 OFFCURVE",
"111 -10 OFFCURVE",
"229 -10 CURVE SMOOTH",
"382 -10 OFFCURVE",
"407 135 OFFCURVE",
"407 289 CURVE SMOOTH",
"407 497 OFFCURVE",
"343 634 OFFCURVE",
"194 738 CURVE SMOOTH",
"191 740 OFFCURVE",
"185 743 OFFCURVE",
"181 743 CURVE SMOOTH",
"175 743 OFFCURVE",
"169 738 OFFCURVE",
"167 729 CURVE",
"325 623 OFFCURVE",
"383 480 OFFCURVE",
"383 300 CURVE SMOOTH",
"383 161 OFFCURVE",
"367 14 OFFCURVE",
"229 14 CURVE SMOOTH",
"131 14 OFFCURVE",
"71 83 OFFCURVE",
"71 256 CURVE SMOOTH",
"71 412 OFFCURVE",
"132 484 OFFCURVE",
"232 484 CURVE SMOOTH",
"305 484 OFFCURVE",
"362 440 OFFCURVE",
"396 351 CURVE"
);
},
{
closed = 1;
nodes = (
"350 685 LINE SMOOTH",
"359 689 OFFCURVE",
"358 691 OFFCURVE",
"350 712 CURVE",
"167 638 LINE SMOOTH",
"158 634 OFFCURVE",
"159 631 OFFCURVE",
"167 611 CURVE"
);
}
);
width = 450;
},
{
hints = (
{
horizontal = 1;
place = "{0.000000, 0.000000}";
}
);
layerId = UUID1;
name = Bold;
paths = (
{
closed = 1;
nodes = (
"265 455 LINE",
"242 491 OFFCURVE",
"217 510 OFFCURVE",
"167 510 CURVE SMOOTH",
"82 510 OFFCURVE",
"20 420 OFFCURVE",
"20 258 CURVE SMOOTH",
"20 56 OFFCURVE",
"75 -10 OFFCURVE",
"198 -10 CURVE SMOOTH",
"337 -10 OFFCURVE",
"365 124 OFFCURVE",
"365 289 CURVE SMOOTH",
"365 507 OFFCURVE",
"312 645 OFFCURVE",
"224 728 CURVE SMOOTH",
"214 740 OFFCURVE",
"199 745 OFFCURVE",
"184 745 CURVE SMOOTH",
"153 745 OFFCURVE",
"119 725 OFFCURVE",
"101 695 CURVE",
"206 596 OFFCURVE",
"251 513 OFFCURVE",
"251 278 CURVE SMOOTH",
"251 162 OFFCURVE",
"247 82 OFFCURVE",
"195 82 CURVE SMOOTH",
"155 82 OFFCURVE",
"135 132 OFFCURVE",
"135 237 CURVE SMOOTH",
"135 319 OFFCURVE",
"150 411 OFFCURVE",
"200 411 CURVE SMOOTH",
"229 411 OFFCURVE",
"249 394 OFFCURVE",
"270 339 CURVE"
);
},
{
closed = 1;
nodes = (
"328 624 LINE SMOOTH",
"347 631 OFFCURVE",
"336 659 OFFCURVE",
"312 720 CURVE",
"92 636 LINE SMOOTH",
"73 628 OFFCURVE",
"84 600 OFFCURVE",
"108 539 CURVE"
);
}
);
width = 385;
}
);
unicode = 00F0;
},
{
glyphname = e;
lastChange = "2012-04-30 22:13:05 +0200";
layers = (
{
anchors = (
{
name = bottom;
position = "{195, 0}";
},
{
name = ogonek;
position = "{351, 10}";
},
{
name = top;
position = "{221, 550}";
}
);
layerId = UUID0;
name = Light;
paths = (
{
closed = 1;
nodes = (
"150 510 OFFCURVE",
"47 486 OFFCURVE",
"47 221 CURVE SMOOTH",
"47 15 OFFCURVE",
"119 -10 OFFCURVE",
"216 -10 CURVE SMOOTH",
"286 -10 OFFCURVE",
"348 17 OFFCURVE",
"348 32 CURVE SMOOTH",
"348 36 OFFCURVE",
"347 43 OFFCURVE",
"343 51 CURVE",
"313 27 OFFCURVE",
"264 14 OFFCURVE",
"215 14 CURVE SMOOTH",
"135 14 OFFCURVE",
"71 31 OFFCURVE",
"71 217 CURVE SMOOTH",
"71 476 OFFCURVE",
"164 486 OFFCURVE",
"228 486 CURVE SMOOTH",
"306 486 OFFCURVE",
"326 430 OFFCURVE",
"328 342 CURVE SMOOTH",
"328 318 OFFCURVE",
"327 297 OFFCURVE",
"324 267 CURVE",
"229 247 OFFCURVE",
"66 252 OFFCURVE",
"66 252 CURVE",
"66 228 LINE",
"66 228 OFFCURVE",
"224 223 OFFCURVE",
"345 246 CURVE",
"350 276 OFFCURVE",
"352 315 OFFCURVE",
"352 354 CURVE SMOOTH",
"352 445 OFFCURVE",
"318 510 OFFCURVE",
"227 510 CURVE SMOOTH"
);
}
);
width = 390;
},
{
anchors = (
{
name = bottom;
position = "{171, 0}";
},
{
name = ogonek;
position = "{309, 10}";
},
{
name = top;
position = "{188, 550}";
}
);
layerId = UUID1;
name = Bold;
paths = (
{
closed = 1;
nodes = (
"102 510 OFFCURVE",
"20 468 OFFCURVE",
"20 226 CURVE SMOOTH",
"20 36 OFFCURVE",
"84 -10 OFFCURVE",
"175 -10 CURVE SMOOTH",
"253 -10 OFFCURVE",
"317 12 OFFCURVE",
"317 52 CURVE SMOOTH",
"317 75 OFFCURVE",
"314 107 OFFCURVE",
"308 127 CURVE",
"273 110 OFFCURVE",
"238 99 OFFCURVE",
"202 99 CURVE SMOOTH",
"145 99 OFFCURVE",
"136 139 OFFCURVE",
"136 233 CURVE SMOOTH",
"136 355 OFFCURVE",
"146 413 OFFCURVE",
"181 413 CURVE SMOOTH",
"206 413 OFFCURVE",
"215 403 OFFCURVE",
"215 339 CURVE SMOOTH",
"215 323 OFFCURVE",
"214 299 OFFCURVE",
"210 287 CURVE",
"181 274 OFFCURVE",
"88 279 OFFCURVE",
"88 279 CURVE",
"86 190 LINE",
"86 190 OFFCURVE",
"232 189 OFFCURVE",
"310 205 CURVE",
"320 244 OFFCURVE",
"324 299 OFFCURVE",
"324 347 CURVE SMOOTH",
"324 463 OFFCURVE",
"276 510 OFFCURVE",
"196 510 CURVE SMOOTH"
);
}
);
width = 344;
}
);
leftKerningGroup = o;
rightKerningGroup = e;
unicode = 0065;
},
{
glyphname = f;
lastChange = "2012-04-30 22:23:36 +0200";
layers = (
{
hints = (
{
horizontal = 1;
place = "{0.000000, 0.000000}";
}
);
layerId = UUID0;
name = Light;
paths = (
{
closed = 1;
nodes = (
"102 476 LINE",
"102 0 LINE",
"116 0 LINE",
"123 0 OFFCURVE",
"126 3 OFFCURVE",
"126 10 CURVE",
"126 476 LINE",
"238 476 LINE SMOOTH",
"248 476 OFFCURVE",
"248 478 OFFCURVE",
"248 500 CURVE",
"126 500 LINE",
"126 563 LINE SMOOTH",
"126 706 OFFCURVE",
"200 716 OFFCURVE",
"257 716 CURVE SMOOTH",
"289 716 OFFCURVE",
"310 712 OFFCURVE",
"334 705 CURVE",
"336 710 OFFCURVE",
"338 714 OFFCURVE",
"338 720 CURVE SMOOTH",
"338 727 OFFCURVE",
"318 740 OFFCURVE",
"259 740 CURVE SMOOTH",
"192 740 OFFCURVE",
"102 721 OFFCURVE",
"102 567 CURVE SMOOTH",
"102 500 LINE",
"27 500 LINE",
"17 500 OFFCURVE",
"17 498 OFFCURVE",
"17 476 CURVE"
);
}
);
width = 241;
},
{
hints = (
{
horizontal = 1;
place = "{0.000000, 0.000000}";
}
);
layerId = UUID1;
name = Bold;
paths = (
{
closed = 1;
nodes = (
"70 407 LINE",
"70 0 LINE",
"162 0 LINE",
"182 0 OFFCURVE",
"182 20 OFFCURVE",
"182 20 CURVE",
"182 407 LINE",
"233 407 LINE SMOOTH",
"252 407 OFFCURVE",
"254 413 OFFCURVE",
"254 500 CURVE",
"182 500 LINE",
"182 569 LINE SMOOTH",
"182 625 OFFCURVE",
"215 638 OFFCURVE",
"265 638 CURVE SMOOTH",
"282 638 OFFCURVE",
"308 637 OFFCURVE",
"333 625 CURVE",
"340 644 OFFCURVE",
"344 668 OFFCURVE",
"344 686 CURVE SMOOTH",
"344 721 OFFCURVE",
"306 738 OFFCURVE",
"244 738 CURVE SMOOTH",
"163 738 OFFCURVE",
"70 712 OFFCURVE",
"70 557 CURVE SMOOTH",
"70 500 LINE",
"37 500 LINE",
"10 500 OFFCURVE",
"10 494 OFFCURVE",
"10 407 CURVE"
);
}
);
width = 262;
}
);
leftKerningGroup = f;
rightKerningGroup = f;
unicode = 0066;
},
{
glyphname = g;
lastChange = "2012-12-06 09:03:47 +0100";
layers = (
{
anchors = (
{
name = top;
position = "{227, 550}";
}
);
layerId = UUID0;
name = Light;
paths = (
{
closed = 1;
nodes = (
"137 510 OFFCURVE",
"61 448 OFFCURVE",
"61 332 CURVE SMOOTH",
"61 241 OFFCURVE",
"86 154 OFFCURVE",
"217 154 CURVE SMOOTH",
"333 154 OFFCURVE",
"379 249 OFFCURVE",
"379 350 CURVE SMOOTH",
"379 426 OFFCURVE",
"346 474 OFFCURVE",
"293 488 CURVE",
"285 500 LINE",
"266 507 OFFCURVE",
"236 510 OFFCURVE",
"223 510 CURVE SMOOTH"
);
},
{
closed = 1;
nodes = (
"304 486 OFFCURVE",
"355 442 OFFCURVE",
"355 350 CURVE SMOOTH",
"355 269 OFFCURVE",
"314 178 OFFCURVE",
"220 178 CURVE SMOOTH",
"101 178 OFFCURVE",
"85 257 OFFCURVE",
"85 330 CURVE SMOOTH",
"85 435 OFFCURVE",
"149 486 OFFCURVE",
"223 486 CURVE SMOOTH"
);
},
{
closed = 1;
nodes = (
"141 184 LINE",
"109 165 OFFCURVE",
"62 119 OFFCURVE",
"62 89 CURVE SMOOTH",
"62 49 OFFCURVE",
"152 30 OFFCURVE",
"261 18 CURVE SMOOTH",
"315 12 OFFCURVE",
"373 1 OFFCURVE",
"373 -64 CURVE SMOOTH",
"373 -120 OFFCURVE",
"314 -174 OFFCURVE",
"202 -174 CURVE SMOOTH",
"89 -174 OFFCURVE",
"69 -138 OFFCURVE",
"69 -94 CURVE SMOOTH",
"69 -45 OFFCURVE",
"132 21 OFFCURVE",
"179 42 CURVE",
"158 53 LINE",
"114 32 OFFCURVE",
"45 -35 OFFCURVE",
"45 -94 CURVE SMOOTH",
"45 -148 OFFCURVE",
"71 -198 OFFCURVE",
"202 -198 CURVE SMOOTH",
"333 -198 OFFCURVE",
"397 -128 OFFCURVE",
"397 -63 CURVE SMOOTH",
"397 16 OFFCURVE",
"331 32 OFFCURVE",
"263 40 CURVE SMOOTH",
"162 51 OFFCURVE",
"86 69 OFFCURVE",
"86 91 CURVE SMOOTH",
"86 114 OFFCURVE",
"129 155 OFFCURVE",
"163 174 CURVE"
);
},
{
closed = 1;
nodes = (
"243 505 LINE",
"278 486 LINE",
"278 486 OFFCURVE",
"340 483 OFFCURVE",
"379 483 CURVE SMOOTH",
"391 483 OFFCURVE",
"395 488 OFFCURVE",
"395 496 CURVE SMOOTH",
"395 502 OFFCURVE",
"393 505 OFFCURVE",
"393 505 CURVE"
);
}
);
width = 414;
},
{
anchors = (
{
name = top;
position = "{191, 550}";
}
);
layerId = UUID1;
name = Bold;
paths = (
{
closed = 1;
nodes = (
"91 510 OFFCURVE",
"27 466 OFFCURVE",
"27 324 CURVE SMOOTH",
"27 226 OFFCURVE",
"67 154 OFFCURVE",
"183 154 CURVE SMOOTH",
"299 154 OFFCURVE",
"345 209 OFFCURVE",
"345 317 CURVE SMOOTH",
"345 388 OFFCURVE",
"316 427 OFFCURVE",
"274 449 CURVE",
"253 498 LINE",
"234 506 OFFCURVE",
"213 510 OFFCURVE",
"196 510 CURVE SMOOTH"
);
},
{
closed = 1;
nodes = (
"221 431 OFFCURVE",
"232 410 OFFCURVE",
"232 347 CURVE SMOOTH",
"232 256 OFFCURVE",
"218 237 OFFCURVE",
"188 237 CURVE SMOOTH",
"156 237 OFFCURVE",
"146 258 OFFCURVE",
"146 329 CURVE SMOOTH",
"146 408 OFFCURVE",
"164 431 OFFCURVE",
"191 431 CURVE SMOOTH"
);
},
{
closed = 1;
nodes = (
"108 196 LINE",
"50 153 OFFCURVE",
"25 119 OFFCURVE",
"24 86 CURVE SMOOTH",
"22 45 OFFCURVE",
"64 25 OFFCURVE",
"134 20 CURVE SMOOTH",
"240 13 OFFCURVE",
"248 0 OFFCURVE",
"248 -34 CURVE SMOOTH",
"248 -58 OFFCURVE",
"233 -94 OFFCURVE",
"184 -94 CURVE SMOOTH",
"139 -94 OFFCURVE",
"126 -80 OFFCURVE",
"126 -55 CURVE SMOOTH",
"126 -16 OFFCURVE",
"157 19 OFFCURVE",
"191 34 CURVE",
"156 66 LINE",
"76 43 OFFCURVE",
"10 -11 OFFCURVE",
"10 -84 CURVE SMOOTH",
"10 -135 OFFCURVE",
"35 -196 OFFCURVE",
"172 -196 CURVE SMOOTH",
"307 -196 OFFCURVE",
"362 -116 OFFCURVE",
"362 -18 CURVE SMOOTH",
"362 61 OFFCURVE",
"315 92 OFFCURVE",
"230 106 CURVE SMOOTH",
"182 114 OFFCURVE",
"144 111 OFFCURVE",
"144 127 CURVE SMOOTH",
"144 146 OFFCURVE",
"174 175 OFFCURVE",
"174 175 CURVE"
);
},
{
closed = 1;
nodes = (
"208 501 LINE",
"202 455 LINE",
"202 455 OFFCURVE",
"301 405 OFFCURVE",
"342 405 CURVE SMOOTH",
"362 405 OFFCURVE",
"377 417 OFFCURVE",
"377 446 CURVE SMOOTH",
"377 471 OFFCURVE",
"371 489 OFFCURVE",
"365 501 CURVE"
);
}
);
width = 382;
}
);
leftKerningGroup = g;
rightKerningGroup = g;
unicode = 0067;
},
{
glyphname = h;
lastChange = "2012-04-30 19:56:03 +0200";
layers = (
{
anchors = (
{
name = center;
position = "{208, 250}";
},
{
name = top;
position = "{208, 500}";
}
);
hints = (
{
horizontal = 1;
place = "{0.000000, 0.000000}";
},
{
horizontal = 1;
place = "{0.000000, 0.000000}";
}
);
layerId = UUID0;
name = Light;
paths = (
{
closed = 1;
nodes = (
"66 0 LINE",
"89 0 OFFCURVE",
"90 0 OFFCURVE",
"90 10 CURVE",
"90 430 LINE",
"132 472 OFFCURVE",
"191 486 OFFCURVE",
"232 486 CURVE SMOOTH",
"317 486 OFFCURVE",
"337 442 OFFCURVE",
"337 373 CURVE SMOOTH",
"337 0 LINE",
"361 0 OFFCURVE",
"361 0 OFFCURVE",
"361 10 CURVE",
"361 373 LINE SMOOTH",
"361 456 OFFCURVE",
"338 510 OFFCURVE",
"234 510 CURVE SMOOTH",
"188 510 OFFCURVE",
"136 497 OFFCURVE",
"90 463 CURVE",
"90 735 LINE",
"71 735 OFFCURVE",
"66 735 OFFCURVE",
"66 720 CURVE"
);
}
);
width = 415;
},
{
anchors = (
{
name = center;
position = "{181, 250}";
},
{
name = top;
position = "{181, 500}";
}
);
hints = (
{
horizontal = 1;
place = "{0.000000, 0.000000}";
},
{
horizontal = 1;
place = "{0.000000, 0.000000}";
}
);
layerId = UUID1;
name = Bold;
paths = (
{
closed = 1;
nodes = (
"33 0 LINE",
"145 0 OFFCURVE",
"145 0 OFFCURVE",
"145 20 CURVE",
"145 395 LINE",
"159 404 OFFCURVE",
"172 407 OFFCURVE",
"184 407 CURVE SMOOTH",
"214 407 OFFCURVE",
"216 376 OFFCURVE",
"216 346 CURVE SMOOTH",
"216 0 LINE",
"325 0 OFFCURVE",
"332 0 OFFCURVE",
"332 20 CURVE",
"332 381 LINE SMOOTH",
"332 466 OFFCURVE",
"317 510 OFFCURVE",
"240 510 CURVE SMOOTH",
"207 510 OFFCURVE",
"168 498 OFFCURVE",
"145 475 CURVE",
"145 735 LINE",
"53 735 OFFCURVE",
"33 735 OFFCURVE",
"33 686 CURVE"
);
}
);
width = 361;
}
);
rightKerningGroup = n;
unicode = 0068;
},
{
glyphname = dotlessi;
lastChange = "2012-04-30 12:10:40 +0200";
layers = (
{
anchors = (
{
name = ogonek;
position = "{149, 10}";
},
{
name = top;
position = "{82, 550}";
}
);
hints = (
{
horizontal = 1;
place = "{0.000000, 0.000000}";
},
{
horizontal = 1;
place = "{0.000000, 0.000000}";
}
);
layerId = UUID0;
name = Light;
paths = (
{
closed = 1;
nodes = (
"96 500 LINE",
"78 500 OFFCURVE",
"70 500 OFFCURVE",
"70 485 CURVE SMOOTH",
"70 0 LINE",
"95 0 OFFCURVE",
"96 0 OFFCURVE",
"96 10 CURVE SMOOTH"
);
}
);
width = 166;
},
{
anchors = (
{
name = ogonek;
position = "{162, 10}";
},
{
name = top;
position = "{95, 550}";
}
);
hints = (
{
horizontal = 1;
place = "{0.000000, 0.000000}";
},
{
horizontal = 1;
place = "{0.000000, 0.000000}";
}
);
layerId = UUID1;
name = Bold;
paths = (
{
closed = 1;
nodes = (
"147 500 LINE",
"55 500 OFFCURVE",
"33 500 OFFCURVE",
"33 451 CURVE SMOOTH",
"33 0 LINE",
"146 0 OFFCURVE",
"147 0 OFFCURVE",
"147 20 CURVE SMOOTH"
);
}
);
width = 180;
}
);
leftKerningGroup = i;
rightKerningGroup = i;
unicode = 0131;
},
{
glyphname = k;
lastChange = "2012-04-30 19:56:10 +0200";
layers = (
{
anchors = (
{
name = bottom;
position = "{202, 0}";
}
);
hints = (
{
horizontal = 1;
place = "{0.000000, 0.000000}";
},
{
horizontal = 1;
place = "{0.000000, 0.000000}";
}
);
layerId = UUID0;
name = Light;
paths = (
{
closed = 1;
nodes = (
"70 0 LINE",
"96 0 OFFCURVE",
"94 0 OFFCURVE",
"94 10 CURVE",
"94 208 LINE",
"94 208 OFFCURVE",
"149 229 OFFCURVE",
"170 235 CURVE SMOOTH",
"205 245 OFFCURVE",
"291 249 OFFCURVE",
"327 163 CURVE SMOOTH",
"342 127 OFFCURVE",
"348 75 OFFCURVE",
"338 0 CURVE",
"363 0 OFFCURVE",
"362 0 OFFCURVE",
"364 13 CURVE SMOOTH",
"370 58 OFFCURVE",
"369 97 OFFCURVE",
"363 128 CURVE SMOOTH",
"341 241 OFFCURVE",
"254 269 OFFCURVE",
"214 260 CURVE",
"242 271 OFFCURVE",
"344 323 OFFCURVE",
"344 421 CURVE SMOOTH",
"344 481 OFFCURVE",
"317 510 OFFCURVE",
"254 510 CURVE SMOOTH",
"211 510 OFFCURVE",
"140 484 OFFCURVE",
"94 431 CURVE",
"94 735 LINE",
"75 735 OFFCURVE",
"70 735 OFFCURVE",
"70 720 CURVE"
);
},
{
closed = 1;
nodes = (
"320 331 OFFCURVE",
"216 271 OFFCURVE",
"94 234 CURVE",
"94 402 LINE",
"147 463 OFFCURVE",
"205 486 OFFCURVE",
"252 486 CURVE SMOOTH",
"298 486 OFFCURVE",
"320 464 OFFCURVE",
"320 421 CURVE SMOOTH"
);
}
);
width = 404;
},
{
anchors = (
{
name = bottom;
position = "{185, 0}";
}
);
hints = (
{
horizontal = 1;
place = "{0.000000, 0.000000}";
},
{
horizontal = 1;
place = "{0.000000, 0.000000}";
}
);
layerId = UUID1;
name = Bold;
paths = (
{
closed = 1;
nodes = (
"33 0 LINE",
"147 0 OFFCURVE",
"146 0 OFFCURVE",
"146 20 CURVE",
"146 207 LINE",
"146 207 OFFCURVE",
"157 218 OFFCURVE",
"173 221 CURVE SMOOTH",
"212 228 OFFCURVE",
"223 178 OFFCURVE",
"223 101 CURVE SMOOTH",
"223 69 OFFCURVE",
"221 34 OFFCURVE",
"218 0 CURVE",
"343 0 OFFCURVE",
"344 0 OFFCURVE",
"346 17 CURVE SMOOTH",
"348 40 OFFCURVE",
"349 63 OFFCURVE",
"349 85 CURVE SMOOTH",
"348 165 OFFCURVE",
"329 236 OFFCURVE",
"277 274 CURVE",
"300 298 OFFCURVE",
"335 350 OFFCURVE",
"335 425 CURVE SMOOTH",
"335 464 OFFCURVE",
"320 510 OFFCURVE",
"252 510 CURVE SMOOTH",
"210 510 OFFCURVE",
"173 497 OFFCURVE",
"146 482 CURVE",
"146 735 LINE",
"54 735 OFFCURVE",
"33 735 OFFCURVE",
"33 686 CURVE"
);
},
{
closed = 1;
nodes = (
"209 334 OFFCURVE",
"187 305 OFFCURVE",
"146 282 CURVE",
"146 382 LINE",
"158 399 OFFCURVE",
"172 410 OFFCURVE",
"189 410 CURVE SMOOTH",
"203 410 OFFCURVE",
"209 400 OFFCURVE",
"209 383 CURVE SMOOTH"
);
}
);
width = 361;
}
);
rightKerningGroup = k;
unicode = 006B;
},
{
glyphname = l;
lastChange = "2012-04-30 19:56:16 +0200";
layers = (
{
anchors = (
{
name = bottom;
position = "{83, 0}";
},
{
name = top;
position = "{83, 500}";
},
{
name = topright;
position = "{145, 500}";
}
);
hints = (
{
horizontal = 1;
place = "{0.000000, 0.000000}";
},
{
horizontal = 1;
place = "{0.000000, 0.000000}";
}
);
layerId = UUID0;
name = Light;
paths = (
{
closed = 1;
nodes = (
"94 735 LINE",
"76 735 OFFCURVE",
"70 735 OFFCURVE",
"70 720 CURVE",
"70 0 LINE",
"93 0 OFFCURVE",
"94 0 OFFCURVE",
"94 10 CURVE"
);
}
);
width = 165;
},
{
anchors = (
{
name = bottom;
position = "{89, 0}";
},
{
name = top;
position = "{89, 500}";
},
{
name = topright;
position = "{158, 500}";
}
);
hints = (
{
horizontal = 1;
place = "{0.000000, 0.000000}";
},
{
horizontal = 1;
place = "{0.000000, 0.000000}";
}
);
layerId = UUID1;
name = Bold;
paths = (
{
closed = 1;
nodes = (
"145 735 LINE",
"54 735 OFFCURVE",
"33 735 OFFCURVE",
"33 686 CURVE",
"33 0 LINE",
"145 0 OFFCURVE",
"145 0 OFFCURVE",
"145 20 CURVE"
);
}
);
width = 178;
}
);
unicode = 006C;
},
{
glyphname = lslash;
lastChange = "2012-04-30 19:52:49 +0200";
layers = (
{
hints = (
{
horizontal = 1;
place = "{0.000000, 0.000000}";
},
{
horizontal = 1;
place = "{0.000000, 0.000000}";
},
{
horizontal = 1;
place = "{0.000000, 0.000000}";
},
{
horizontal = 1;
place = "{0.000000, 0.000000}";
}
);
layerId = UUID0;
name = Light;
paths = (
{
closed = 1;
nodes = (
"155 368 LINE SMOOTH",
"164 372 OFFCURVE",
"163 374 OFFCURVE",
"155 395 CURVE",
"9 336 LINE SMOOTH",
"0 332 OFFCURVE",
"1 329 OFFCURVE",
"9 309 CURVE"
);
},
{
closed = 1;
nodes = (
"94 735 LINE",
"76 735 OFFCURVE",
"70 735 OFFCURVE",
"70 720 CURVE",
"70 0 LINE",
"96 0 OFFCURVE",
"94 0 OFFCURVE",
"94 10 CURVE"
);
}
);
width = 165;
},
{
hints = (
{
horizontal = 1;
place = "{0.000000, 0.000000}";
},
{
horizontal = 1;
place = "{0.000000, 0.000000}";
},
{
horizontal = 1;
place = "{0.000000, 0.000000}";
},
{
horizontal = 1;
place = "{0.000000, 0.000000}";
}
);
layerId = UUID1;
name = Bold;
paths = (
{
closed = 1;
nodes = (
"189 328 LINE SMOOTH",
"209 332 OFFCURVE",
"202 362 OFFCURVE",
"188 426 CURVE",
"14 388 LINE SMOOTH",
"-6 383 OFFCURVE",
"0 353 OFFCURVE",
"14 289 CURVE"
);
},
{
closed = 1;
nodes = (
"155 735 LINE",
"64 735 OFFCURVE",
"43 735 OFFCURVE",
"43 686 CURVE",
"43 0 LINE",
"155 0 OFFCURVE",
"155 0 OFFCURVE",
"155 20 CURVE"
);
}
);
width = 198;
}
);
unicode = 0142;
},
{
glyphname = m;
lastChange = "2012-04-30 12:10:39 +0200";
layers = (
{
hints = (
{
horizontal = 1;
place = "{0.000000, 0.000000}";
}
);
layerId = UUID0;
name = Light;
paths = (
{
closed = 1;
nodes = (
"70 0 LINE",
"92 0 OFFCURVE",
"94 0 OFFCURVE",
"94 10 CURVE SMOOTH",
"94 459 LINE",
"140 480 OFFCURVE",
"178 486 OFFCURVE",
"216 486 CURVE SMOOTH",
"305 486 OFFCURVE",
"305 445 OFFCURVE",
"305 367 CURVE SMOOTH",
"305 0 LINE",
"329 0 OFFCURVE",
"329 0 OFFCURVE",
"329 10 CURVE SMOOTH",
"329 368 LINE SMOOTH",
"329 455 OFFCURVE",
"329 510 OFFCURVE",
"215 510 CURVE SMOOTH",
"171 510 OFFCURVE",
"124 500 OFFCURVE",
"70 477 CURVE"
);
},
{
closed = 1;
nodes = (
"305 0 LINE",
"327 0 OFFCURVE",
"329 0 OFFCURVE",
"329 10 CURVE SMOOTH",
"329 449 LINE",
"372 478 OFFCURVE",
"413 486 OFFCURVE",
"451 486 CURVE SMOOTH",
"524 486 OFFCURVE",
"537 449 OFFCURVE",
"537 367 CURVE SMOOTH",
"537 0 LINE",
"561 0 OFFCURVE",
"561 0 OFFCURVE",
"561 10 CURVE SMOOTH",
"561 360 LINE SMOOTH",
"561 458 OFFCURVE",
"547 510 OFFCURVE",
"450 510 CURVE SMOOTH",
"406 510 OFFCURVE",
"353 496 OFFCURVE",
"305 464 CURVE"
);
}
);
width = 625;
},
{
hints = (
{
horizontal = 1;
place = "{0.000000, 0.000000}";
}
);
layerId = UUID1;
name = Bold;
paths = (
{
closed = 1;
nodes = (
"33 0 LINE",
"142 0 OFFCURVE",
"145 0 OFFCURVE",
"145 20 CURVE SMOOTH",
"145 402 LINE",
"156 409 OFFCURVE",
"170 414 OFFCURVE",
"183 414 CURVE SMOOTH",
"206 414 OFFCURVE",
"211 408 OFFCURVE",
"211 375 CURVE SMOOTH",
"211 0 LINE",
"319 0 OFFCURVE",
"323 0 OFFCURVE",
"323 20 CURVE SMOOTH",
"323 255 LINE SMOOTH",
"323 415 OFFCURVE",
"306 510 OFFCURVE",
"187 510 CURVE SMOOTH",
"127 510 OFFCURVE",
"71 495 OFFCURVE",
"33 477 CURVE"
);
},
{
closed = 1;
nodes = (
"211 0 LINE",
"325 0 OFFCURVE",
"323 0 OFFCURVE",
"323 20 CURVE SMOOTH",
"323 403 LINE",
"334 409 OFFCURVE",
"346 412 OFFCURVE",
"360 412 CURVE SMOOTH",
"383 412 OFFCURVE",
"389 402 OFFCURVE",
"389 371 CURVE SMOOTH",
"389 0 LINE",
"497 0 OFFCURVE",
"501 0 OFFCURVE",
"501 20 CURVE SMOOTH",
"501 374 LINE SMOOTH",
"501 460 OFFCURVE",
"490 510 OFFCURVE",
"388 510 CURVE SMOOTH",
"311 510 OFFCURVE",
"211 470 OFFCURVE",
"211 421 CURVE"
);
}
);
width = 530;
}
);
leftKerningGroup = n;
rightKerningGroup = n;
unicode = 006D;
},
{
glyphname = n;
lastChange = "2012-04-30 12:10:40 +0200";
layers = (
{
anchors = (
{
name = bottom;
position = "{211, 0}";
},
{
name = top;
position = "{229, 550}";
}
);
hints = (
{
horizontal = 1;
place = "{0.000000, 0.000000}";
}
);
layerId = UUID0;
name = Light;
paths = (
{
closed = 1;
nodes = (
"67 0 LINE",
"90 0 OFFCURVE",
"91 0 OFFCURVE",
"91 10 CURVE",
"91 457 LINE",
"132 477 OFFCURVE",
"195 486 OFFCURVE",
"233 486 CURVE SMOOTH",
"323 486 OFFCURVE",
"342 447 OFFCURVE",
"342 364 CURVE SMOOTH",
"342 0 LINE",
"366 0 OFFCURVE",
"366 0 OFFCURVE",
"366 10 CURVE",
"366 368 LINE SMOOTH",
"366 459 OFFCURVE",
"344 510 OFFCURVE",
"232 510 CURVE SMOOTH",
"173 510 OFFCURVE",
"121 496 OFFCURVE",
"67 474 CURVE"
);
}
);
width = 422;
},
{
anchors = (
{
name = bottom;
position = "{181, 0}";
},
{
name = top;
position = "{184, 550}";
}
);
hints = (
{
horizontal = 1;
place = "{0.000000, 0.000000}";
}
);
layerId = UUID1;
name = Bold;
paths = (
{
closed = 1;
nodes = (
"33 0 LINE",
"143 0 OFFCURVE",
"145 0 OFFCURVE",
"145 20 CURVE",
"145 402 LINE",
"156 410 OFFCURVE",
"170 414 OFFCURVE",
"183 414 CURVE SMOOTH",
"211 414 OFFCURVE",
"216 398 OFFCURVE",
"216 346 CURVE SMOOTH",
"216 0 LINE",
"329 0 OFFCURVE",
"332 0 OFFCURVE",
"332 20 CURVE",
"332 381 LINE SMOOTH",
"332 481 OFFCURVE",
"289 510 OFFCURVE",
"188 510 CURVE SMOOTH",
"138 510 OFFCURVE",
"64 492 OFFCURVE",
"33 477 CURVE"
);
}
);
width = 361;
}
);
leftKerningGroup = n;
rightKerningGroup = n;
unicode = 006E;
},
{
glyphname = o;
lastChange = "2012-04-30 22:13:50 +0200";
layers = (
{
anchors = (
{
name = top;
position = "{207, 550}";
}
);
layerId = UUID0;
name = Light;
paths = (
{
closed = 1;
nodes = (
"40 21 OFFCURVE",
"103 -10 OFFCURVE",
"195 -10 CURVE SMOOTH",
"301 -10 OFFCURVE",
"361 75 OFFCURVE",
"361 248 CURVE SMOOTH",
"361 454 OFFCURVE",
"308 510 OFFCURVE",
"207 510 CURVE SMOOTH",
"105 510 OFFCURVE",
"40 435 OFFCURVE",
"40 248 CURVE"
);
},
{
closed = 1;
nodes = (
"64 423 OFFCURVE",
"120 486 OFFCURVE",
"206 486 CURVE SMOOTH",
"287 486 OFFCURVE",
"337 440 OFFCURVE",
"337 252 CURVE SMOOTH",
"337 93 OFFCURVE",
"283 14 OFFCURVE",
"196 14 CURVE SMOOTH",
"112 14 OFFCURVE",
"64 59 OFFCURVE",
"64 241 CURVE SMOOTH"
);
}
);
width = 401;
},
{
anchors = (
{
name = top;
position = "{185, 550}";
}
);
layerId = UUID1;
name = Bold;
paths = (
{
closed = 1;
nodes = (
"20 27 OFFCURVE",
"70 -10 OFFCURVE",
"178 -10 CURVE SMOOTH",
"286 -10 OFFCURVE",
"342 62 OFFCURVE",
"342 255 CURVE SMOOTH",
"342 457 OFFCURVE",
"293 510 OFFCURVE",
"186 510 CURVE SMOOTH",
"80 510 OFFCURVE",
"20 432 OFFCURVE",
"20 251 CURVE"
);
},
{
closed = 1;
nodes = (
"143 394 OFFCURVE",
"160 414 OFFCURVE",
"182 414 CURVE SMOOTH",
"211 414 OFFCURVE",
"219 396 OFFCURVE",
"219 252 CURVE SMOOTH",
"219 98 OFFCURVE",
"200 83 OFFCURVE",
"181 83 CURVE SMOOTH",
"156 83 OFFCURVE",
"143 96 OFFCURVE",
"143 252 CURVE SMOOTH"
);
}
);
width = 362;
}
);
leftKerningGroup = o;
rightKerningGroup = o;
unicode = 006F;
},
{
glyphname = oslash;
lastChange = "2012-04-30 12:12:55 +0200";
layers = (
{
anchors = (
{
name = top;
position = "{219, 500}";
}
);
layerId = UUID0;
name = Light;
paths = (
{
closed = 1;
nodes = (
"65 21 OFFCURVE",
"128 -10 OFFCURVE",
"227 -10 CURVE SMOOTH",
"326 -10 OFFCURVE",
"386 75 OFFCURVE",
"386 248 CURVE SMOOTH",
"386 454 OFFCURVE",
"331 510 OFFCURVE",
"230 510 CURVE SMOOTH",
"128 510 OFFCURVE",
"65 435 OFFCURVE",
"65 248 CURVE"
);
},
{
closed = 1;
nodes = (
"89 423 OFFCURVE",
"145 486 OFFCURVE",
"231 486 CURVE SMOOTH",
"312 486 OFFCURVE",
"362 440 OFFCURVE",
"362 252 CURVE SMOOTH",
"362 93 OFFCURVE",
"308 14 OFFCURVE",
"221 14 CURVE SMOOTH",
"137 14 OFFCURVE",
"89 59 OFFCURVE",
"89 241 CURVE SMOOTH"
);
},
{
closed = 1;
nodes = (
"59 -18 OFFCURVE",
"108 61 OFFCURVE",
"108 61 CURVE SMOOTH",
"108 71 OFFCURVE",
"91 74 OFFCURVE",
"91 74 CURVE",
"91 74 OFFCURVE",
"42 -5 OFFCURVE",
"42 -5 CURVE",
"42 -16 OFFCURVE",
"49 -18 OFFCURVE",
"59 -18 CURVE"
);
},
{
closed = 1;
nodes = (
"117 64 OFFCURVE",
"348 437 OFFCURVE",
"348 437 CURVE",
"348 447 OFFCURVE",
"331 450 OFFCURVE",
"331 450 CURVE",
"100 77 LINE",
"100 65 OFFCURVE",
"117 64 OFFCURVE",
"117 64 CURVE"
);
},
{
closed = 1;
nodes = (
"353 438 OFFCURVE",
"398 509 OFFCURVE",
"398 509 CURVE",
"398 519 OFFCURVE",
"381 522 OFFCURVE",
"381 522 CURVE",
"381 522 OFFCURVE",
"336 451 OFFCURVE",
"336 451 CURVE",
"336 439 OFFCURVE",
"353 438 OFFCURVE",
"353 438 CURVE"
);
}
);
width = 438;
},
{
anchors = (
{
name = top;
position = "{199, 500}";
}
);
layerId = UUID1;
name = Bold;
paths = (
{
closed = 1;
nodes = (
"38 27 OFFCURVE",
"88 -10 OFFCURVE",
"196 -10 CURVE SMOOTH",
"304 -10 OFFCURVE",
"360 62 OFFCURVE",
"360 255 CURVE SMOOTH",
"360 457 OFFCURVE",
"311 510 OFFCURVE",
"204 510 CURVE SMOOTH",
"98 510 OFFCURVE",
"38 432 OFFCURVE",
"38 251 CURVE"
);
},
{
closed = 1;
nodes = (
"161 394 OFFCURVE",
"178 414 OFFCURVE",
"200 414 CURVE SMOOTH",
"229 414 OFFCURVE",
"237 396 OFFCURVE",
"237 252 CURVE SMOOTH",
"237 98 OFFCURVE",
"218 83 OFFCURVE",
"199 83 CURVE SMOOTH",
"174 83 OFFCURVE",
"161 96 OFFCURVE",
"161 252 CURVE SMOOTH"
);
},
{
closed = 1;
nodes = (
"71 -17 OFFCURVE",
"117 61 OFFCURVE",
"117 80 CURVE SMOOTH",
"117 106 OFFCURVE",
"63 128 OFFCURVE",
"63 128 CURVE",
"63 128 OFFCURVE",
"3 26 OFFCURVE",
"3 15 CURVE",
"3 -6 OFFCURVE",
"39 -26 OFFCURVE",
"63 -30 CURVE"
);
},
{
closed = 1;
nodes = (
"142 77 OFFCURVE",
"297 359 OFFCURVE",
"297 377 CURVE",
"297 403 OFFCURVE",
"246 409 OFFCURVE",
"246 409 CURVE",
"87 106 LINE",
"87 85 OFFCURVE",
"123 74 OFFCURVE",
"139 69 CURVE"
);
},
{
closed = 1;
nodes = (
"323 312 OFFCURVE",
"406 459 OFFCURVE",
"406 478 CURVE",
"406 504 OFFCURVE",
"344 522 OFFCURVE",
"344 522 CURVE",
"327 502 OFFCURVE",
"252 367 OFFCURVE",
"252 367 CURVE",
"252 346 OFFCURVE",
"323 312 OFFCURVE",
"323 312 CURVE"
);
}
);
width = 398;
}
);
leftKerningGroup = o;
rightKerningGroup = o;
unicode = 00F8;
},
{
glyphname = oe;
lastChange = "2012-04-30 19:53:04 +0200";
layers = (
{
anchors = (
{
name = top;
position = "{348, 500}";
}
);
layerId = UUID0;
name = Light;
paths = (
{
closed = 1;
nodes = (
"447 510 OFFCURVE",
"347 498 OFFCURVE",
"347 221 CURVE SMOOTH",
"347 15 OFFCURVE",
"419 -10 OFFCURVE",
"516 -10 CURVE SMOOTH",
"586 -10 OFFCURVE",
"648 17 OFFCURVE",
"648 27 CURVE SMOOTH",
"648 32 OFFCURVE",
"647 43 OFFCURVE",
"643 51 CURVE",
"613 27 OFFCURVE",
"564 14 OFFCURVE",
"515 14 CURVE SMOOTH",
"435 14 OFFCURVE",
"371 31 OFFCURVE",
"371 217 CURVE SMOOTH",
"371 486 OFFCURVE",
"464 486 OFFCURVE",
"528 486 CURVE",
"606 486 OFFCURVE",
"626 435 OFFCURVE",
"628 347 CURVE SMOOTH",
"628 323 OFFCURVE",
"627 297 OFFCURVE",
"624 267 CURVE",
"529 247 OFFCURVE",
"366 252 OFFCURVE",
"366 252 CURVE",
"366 228 LINE",
"366 228 OFFCURVE",
"524 223 OFFCURVE",
"645 246 CURVE",
"650 276 OFFCURVE",
"652 320 OFFCURVE",
"652 359 CURVE SMOOTH",
"652 450 OFFCURVE",
"618 510 OFFCURVE",
"527 510 CURVE"
);
},
{
closed = 1;
nodes = (
"50 21 OFFCURVE",
"113 -10 OFFCURVE",
"212 -10 CURVE SMOOTH",
"311 -10 OFFCURVE",
"371 75 OFFCURVE",
"371 248 CURVE SMOOTH",
"371 454 OFFCURVE",
"316 510 OFFCURVE",
"215 510 CURVE SMOOTH",
"113 510 OFFCURVE",
"50 435 OFFCURVE",
"50 248 CURVE"
);
},
{
closed = 1;
nodes = (
"74 423 OFFCURVE",
"130 486 OFFCURVE",
"216 486 CURVE SMOOTH",
"297 486 OFFCURVE",
"347 440 OFFCURVE",
"347 252 CURVE SMOOTH",
"347 93 OFFCURVE",
"293 14 OFFCURVE",
"206 14 CURVE SMOOTH",
"122 14 OFFCURVE",
"74 59 OFFCURVE",
"74 241 CURVE SMOOTH"
);
}
);
width = 695;
},
{
anchors = (
{
name = top;
position = "{280, 500}";
}
);
layerId = UUID1;
name = Bold;
paths = (
{
closed = 1;
nodes = (
"310 510 OFFCURVE",
"228 476 OFFCURVE",
"228 226 CURVE SMOOTH",
"228 22 OFFCURVE",
"292 -10 OFFCURVE",
"383 -10 CURVE SMOOTH",
"461 -10 OFFCURVE",
"525 12 OFFCURVE",
"525 28 CURVE SMOOTH",
"525 60 OFFCURVE",
"522 107 OFFCURVE",
"516 127 CURVE",
"481 110 OFFCURVE",
"446 99 OFFCURVE",
"398 99 CURVE SMOOTH",
"353 99 OFFCURVE",
"344 114 OFFCURVE",
"344 233 CURVE SMOOTH",
"344 355 OFFCURVE",
"354 413 OFFCURVE",
"389 413 CURVE",
"414 413 OFFCURVE",
"423 403 OFFCURVE",
"423 339 CURVE SMOOTH",
"423 323 OFFCURVE",
"422 299 OFFCURVE",
"418 287 CURVE",
"389 274 OFFCURVE",
"296 279 OFFCURVE",
"296 279 CURVE",
"294 190 LINE",
"294 190 OFFCURVE",
"440 189 OFFCURVE",
"518 205 CURVE",
"528 244 OFFCURVE",
"532 299 OFFCURVE",
"532 347 CURVE SMOOTH",
"532 463 OFFCURVE",
"484 510 OFFCURVE",
"404 510 CURVE"
);
},
{
closed = 1;
nodes = (
"20 27 OFFCURVE",
"70 -10 OFFCURVE",
"178 -10 CURVE SMOOTH",
"286 -10 OFFCURVE",
"342 62 OFFCURVE",
"342 255 CURVE SMOOTH",
"342 457 OFFCURVE",
"293 509 OFFCURVE",
"186 509 CURVE SMOOTH",
"80 509 OFFCURVE",
"20 432 OFFCURVE",
"20 251 CURVE"
);
},
{
closed = 1;
nodes = (
"143 394 OFFCURVE",
"160 413 OFFCURVE",
"182 413 CURVE SMOOTH",
"211 413 OFFCURVE",
"219 396 OFFCURVE",
"219 252 CURVE SMOOTH",
"219 98 OFFCURVE",
"200 83 OFFCURVE",
"181 83 CURVE SMOOTH",
"156 83 OFFCURVE",
"143 96 OFFCURVE",
"143 252 CURVE SMOOTH"
);
}
);
width = 552;
}
);
leftKerningGroup = o;
leftMetricsKey = o;
rightKerningGroup = e;
rightMetricsKey = e;
unicode = 0153;
},
{
glyphname = p;
lastChange = "2012-04-30 19:56:25 +0200";
layers = (
{
hints = (
{
horizontal = 1;
place = "{0.000000, 0.000000}";
}
);
layerId = UUID0;
name = Light;
paths = (
{
closed = 1;
nodes = (
"70 -188 LINE",
"70 -194 OFFCURVE",
"74 -197 OFFCURVE",
"81 -197 CURVE SMOOTH",
"85 -197 OFFCURVE",
"89 -196 OFFCURVE",
"94 -195 CURVE",
"94 35 LINE",
"107 15 OFFCURVE",
"147 -10 OFFCURVE",
"197 -10 CURVE SMOOTH",
"257 -10 OFFCURVE",
"379 22 OFFCURVE",
"379 294 CURVE SMOOTH",
"379 458 OFFCURVE",
"318 510 OFFCURVE",
"212 510 CURVE SMOOTH",
"157 510 OFFCURVE",
"114 497 OFFCURVE",
"70 469 CURVE"
);
},
{
closed = 1;
nodes = (
"94 454 LINE",
"127 475 OFFCURVE",
"165 486 OFFCURVE",
"211 486 CURVE SMOOTH",
"304 486 OFFCURVE",
"355 443 OFFCURVE",
"355 281 CURVE SMOOTH",
"355 39 OFFCURVE",
"246 15 OFFCURVE",
"195 14 CURVE SMOOTH",
"158 14 OFFCURVE",
"117 34 OFFCURVE",
"94 75 CURVE"
);
}
);
width = 419;
},
{
hints = (
{
horizontal = 1;
place = "{0.000000, 0.000000}";
}
);
layerId = UUID1;
name = Bold;
paths = (
{
closed = 1;
nodes = (
"33 -148 LINE",
"33 -187 OFFCURVE",
"48 -197 OFFCURVE",
"87 -197 CURVE SMOOTH",
"105 -197 OFFCURVE",
"128 -194 OFFCURVE",
"145 -188 CURVE",
"145 9 LINE",
"161 -4 OFFCURVE",
"181 -10 OFFCURVE",
"211 -10 CURVE SMOOTH",
"283 -10 OFFCURVE",
"342 39 OFFCURVE",
"342 307 CURVE SMOOTH",
"342 471 OFFCURVE",
"276 510 OFFCURVE",
"181 510 CURVE SMOOTH",
"128 510 OFFCURVE",
"72 495 OFFCURVE",
"33 471 CURVE"
);
},
{
closed = 1;
nodes = (
"145 402 LINE",
"153 409 OFFCURVE",
"164 414 OFFCURVE",
"175 414 CURVE SMOOTH",
"204 414 OFFCURVE",
"216 396 OFFCURVE",
"216 300 CURVE SMOOTH",
"216 110 OFFCURVE",
"194 89 OFFCURVE",
"173 89 CURVE SMOOTH",
"162 89 OFFCURVE",
"154 94 OFFCURVE",
"145 107 CURVE"
);
}
);
width = 362;
}
);
leftKerningGroup = p;
rightKerningGroup = o;
unicode = 0070;
},
{
glyphname = thorn;
lastChange = "2012-04-30 12:10:39 +0200";
layers = (
{
hints = (
{
horizontal = 1;
place = "{0.000000, 0.000000}";
},
{
horizontal = 1;
place = "{0.000000, 0.000000}";
}
);
layerId = UUID0;
name = Light;
paths = (
{
closed = 1;
nodes = (
"70 -193 LINE",
"70 -200 OFFCURVE",
"74 -200 OFFCURVE",
"81 -200 CURVE SMOOTH",
"85 -200 OFFCURVE",
"89 -200 OFFCURVE",
"94 -199 CURVE",
"94 29 LINE",
"109 11 OFFCURVE",
"139 -9 OFFCURVE",
"189 -9 CURVE SMOOTH",
"249 -9 OFFCURVE",
"379 22 OFFCURVE",
"379 287 CURVE SMOOTH",
"379 458 OFFCURVE",
"318 509 OFFCURVE",
"212 509 CURVE SMOOTH",
"157 509 OFFCURVE",
"114 498 OFFCURVE",
"70 470 CURVE"
);
},
{
closed = 1;
nodes = (
"94 453 LINE",
"127 474 OFFCURVE",
"165 485 OFFCURVE",
"214 485 CURVE SMOOTH",
"298 485 OFFCURVE",
"355 443 OFFCURVE",
"355 281 CURVE SMOOTH",
"355 48 OFFCURVE",
"238 16 OFFCURVE",
"187 15 CURVE SMOOTH",
"150 15 OFFCURVE",
"117 29 OFFCURVE",
"94 63 CURVE"
);
},
{
closed = 1;
nodes = (
"94 735 LINE",
"76 735 OFFCURVE",
"70 735 OFFCURVE",
"70 720 CURVE SMOOTH",
"70 245 LINE",
"94 255 LINE"
);
}
);
width = 419;
},
{
hints = (
{
horizontal = 1;
place = "{0.000000, 0.000000}";
},
{
horizontal = 1;
place = "{0.000000, 0.000000}";
}
);
layerId = UUID1;
name = Bold;
paths = (
{
closed = 1;
nodes = (
"33 -151 LINE",
"33 -190 OFFCURVE",
"38 -200 OFFCURVE",
"78 -200 CURVE SMOOTH",
"105 -200 OFFCURVE",
"128 -197 OFFCURVE",
"145 -191 CURVE",
"145 9 LINE",
"161 -4 OFFCURVE",
"181 -10 OFFCURVE",
"211 -10 CURVE SMOOTH",
"268 -10 OFFCURVE",
"342 39 OFFCURVE",
"342 307 CURVE SMOOTH",
"342 471 OFFCURVE",
"276 509 OFFCURVE",
"181 509 CURVE SMOOTH",
"128 509 OFFCURVE",
"72 494 OFFCURVE",
"33 470 CURVE"
);
},
{
closed = 1;
nodes = (
"145 398 LINE",
"153 407 OFFCURVE",
"164 413 OFFCURVE",
"173 413 CURVE SMOOTH",
"204 413 OFFCURVE",
"216 406 OFFCURVE",
"216 300 CURVE SMOOTH",
"216 110 OFFCURVE",
"194 84 OFFCURVE",
"173 84 CURVE SMOOTH",
"162 84 OFFCURVE",
"151 86 OFFCURVE",
"145 102 CURVE"
);
},
{
closed = 1;
nodes = (
"145 735 LINE",
"54 735 OFFCURVE",
"33 735 OFFCURVE",
"33 686 CURVE SMOOTH",
"33 229 LINE",
"145 249 LINE"
);
}
);
width = 364;
}
);
unicode = 00FE;
},
{
glyphname = q;
lastChange = "2012-04-30 20:05:57 +0200";
layers = (
{
hints = (
{
horizontal = 1;
place = "{0.000000, 0.000000}";
}
);
layerId = UUID0;
name = Light;
paths = (
{
closed = 1;
nodes = (
"359 478 LINE",
"329 500 OFFCURVE",
"295 510 OFFCURVE",
"248 510 CURVE SMOOTH",
"125 510 OFFCURVE",
"49 414 OFFCURVE",
"49 224 CURVE SMOOTH",
"49 15 OFFCURVE",
"143 -10 OFFCURVE",
"203 -10 CURVE SMOOTH",
"262 -10 OFFCURVE",
"307 14 OFFCURVE",
"335 53 CURVE",
"335 -198 LINE",
"338 -198 OFFCURVE",
"341 -198 OFFCURVE",
"343 -198 CURVE SMOOTH",
"359 -198 OFFCURVE",
"359 -197 OFFCURVE",
"359 -188 CURVE"
);
},
{
closed = 1;
nodes = (
"335 93 LINE",
"308 34 OFFCURVE",
"253 13 OFFCURVE",
"210 14 CURVE SMOOTH",
"157 15 OFFCURVE",
"73 32 OFFCURVE",
"73 220 CURVE SMOOTH",
"73 400 OFFCURVE",
"136 486 OFFCURVE",
"246 486 CURVE SMOOTH",
"284 486 OFFCURVE",
"319 476 OFFCURVE",
"335 464 CURVE"
);
}
);
width = 430;
},
{
hints = (
{
horizontal = 1;
place = "{0.000000, 0.000000}";
}
);
layerId = UUID1;
name = Bold;
paths = (
{
closed = 1;
nodes = (
"333 480 LINE",
"303 500 OFFCURVE",
"273 510 OFFCURVE",
"228 510 CURVE SMOOTH",
"120 510 OFFCURVE",
"20 452 OFFCURVE",
"20 215 CURVE SMOOTH",
"20 26 OFFCURVE",
"80 -10 OFFCURVE",
"144 -10 CURVE SMOOTH",
"180 -10 OFFCURVE",
"205 1 OFFCURVE",
"219 24 CURVE",
"219 -194 LINE",
"234 -196 OFFCURVE",
"249 -198 OFFCURVE",
"267 -198 CURVE SMOOTH",
"322 -197 OFFCURVE",
"333 -192 OFFCURVE",
"333 -149 CURVE"
);
},
{
closed = 1;
nodes = (
"219 122 LINE",
"214 102 OFFCURVE",
"203 87 OFFCURVE",
"186 87 CURVE SMOOTH",
"161 87 OFFCURVE",
"148 112 OFFCURVE",
"148 220 CURVE SMOOTH",
"148 375 OFFCURVE",
"167 414 OFFCURVE",
"197 414 CURVE SMOOTH",
"208 414 OFFCURVE",
"213 411 OFFCURVE",
"219 404 CURVE"
);
}
);
width = 363;
}
);
leftKerningGroup = o;
unicode = 0071;
},
{
glyphname = r;
lastChange = "2012-04-30 12:10:40 +0200";
layers = (
{
anchors = (
{
name = bottom;
position = "{145, 0}";
},
{
name = top;
position = "{145, 500}";
}
);
hints = (
{
horizontal = 1;
place = "{0.000000, 0.000000}";
}
);
layerId = UUID0;
name = Light;
paths = (
{
closed = 1;
nodes = (
"67 0 LINE",
"88 0 OFFCURVE",
"91 0 OFFCURVE",
"91 10 CURVE",
"91 451 LINE",
"122 475 OFFCURVE",
"158 486 OFFCURVE",
"200 486 CURVE SMOOTH",
"230 486 OFFCURVE",
"252 476 OFFCURVE",
"267 467 CURVE",
"270 469 OFFCURVE",
"273 477 OFFCURVE",
"273 483 CURVE SMOOTH",
"273 497 OFFCURVE",
"244 510 OFFCURVE",
"198 510 CURVE SMOOTH",
"161 510 OFFCURVE",
"114 499 OFFCURVE",
"67 466 CURVE"
);
}
);
width = 289;
},
{
anchors = (
{
name = bottom;
position = "{125, 0}";
},
{
name = top;
position = "{125, 500}";
}
);
hints = (
{
horizontal = 1;
place = "{0.000000, 0.000000}";
}
);
layerId = UUID1;
name = Bold;
paths = (
{
closed = 1;
nodes = (
"33 0 LINE",
"147 0 OFFCURVE",
"147 0 OFFCURVE",
"147 20 CURVE",
"148 387 LINE",
"161 398 OFFCURVE",
"179 403 OFFCURVE",
"191 403 CURVE SMOOTH",
"201 403 OFFCURVE",
"214 402 OFFCURVE",
"228 395 CURVE",
"237 420 OFFCURVE",
"239 447 OFFCURVE",
"239 460 CURVE SMOOTH",
"239 494 OFFCURVE",
"226 510 OFFCURVE",
"172 510 CURVE SMOOTH",
"116 510 OFFCURVE",
"68 489 OFFCURVE",
"33 465 CURVE"
);
}
);
width = 249;
}
);
leftKerningGroup = n;
rightKerningGroup = r;
unicode = 0072;
},
{
glyphname = s;
lastChange = "2012-12-06 09:02:48 +0100";
layers = (
{
anchors = (
{
name = bottom;
position = "{188, 0}";
},
{
name = top;
position = "{217, 550}";
}
);
layerId = UUID0;
name = Light;
paths = (
{
closed = 1;
nodes = (
"126 510 OFFCURVE",
"54 472 OFFCURVE",
"54 402 CURVE SMOOTH",
"54 362 OFFCURVE",
"64 335 OFFCURVE",
"129 297 CURVE SMOOTH",
"244 230 LINE SMOOTH",
"294 196 OFFCURVE",
"318 162 OFFCURVE",
"318 111 CURVE SMOOTH",
"318 43 OFFCURVE",
"262 14 OFFCURVE",
"180 14 CURVE SMOOTH",
"122 14 OFFCURVE",
"89 23 OFFCURVE",
"58 43 CURVE",
"51 38 OFFCURVE",
"50 32 OFFCURVE",
"50 25 CURVE SMOOTH",
"50 11 OFFCURVE",
"97 -10 OFFCURVE",
"181 -10 CURVE SMOOTH",
"283 -10 OFFCURVE",
"342 33 OFFCURVE",
"342 120 CURVE SMOOTH",
"342 171 OFFCURVE",
"315 209 OFFCURVE",
"265 244 CURVE SMOOTH",
"138 321 LINE SMOOTH",
"89 351 OFFCURVE",
"78 373 OFFCURVE",
"78 403 CURVE SMOOTH",
"78 457 OFFCURVE",
"139 486 OFFCURVE",
"215 486 CURVE SMOOTH",
"265 486 OFFCURVE",
"299 474 OFFCURVE",
"336 449 CURVE",
"342 456 OFFCURVE",
"345 462 OFFCURVE",
"345 467 CURVE SMOOTH",
"345 478 OFFCURVE",
"300 510 OFFCURVE",
"215 510 CURVE SMOOTH"
);
}
);
width = 395;
},
{
anchors = (
{
name = bottom;
position = "{139, 0}";
},
{
name = top;
position = "{170, 550}";
}
);
layerId = UUID1;
name = Bold;
paths = (
{
closed = 1;
nodes = (
"59 510 OFFCURVE",
"18 456 OFFCURVE",
"18 386 CURVE SMOOTH",
"18 357 OFFCURVE",
"31 317 OFFCURVE",
"66 280 CURVE SMOOTH",
"153 188 LINE SMOOTH",
"173 165 OFFCURVE",
"175 146 OFFCURVE",
"175 132 CURVE SMOOTH",
"175 107 OFFCURVE",
"159 90 OFFCURVE",
"124 90 CURVE SMOOTH",
"96 90 OFFCURVE",
"65 97 OFFCURVE",
"37 112 CURVE",
"24 88 OFFCURVE",
"19 65 OFFCURVE",
"19 49 CURVE SMOOTH",
"19 4 OFFCURVE",
"72 -10 OFFCURVE",
"136 -10 CURVE SMOOTH",
"238 -10 OFFCURVE",
"304 44 OFFCURVE",
"304 134 CURVE SMOOTH",
"304 184 OFFCURVE",
"294 213 OFFCURVE",
"254 259 CURVE SMOOTH",
"180 334 LINE SMOOTH",
"154 361 OFFCURVE",
"151 373 OFFCURVE",
"151 384 CURVE SMOOTH",
"151 403 OFFCURVE",
"166 414 OFFCURVE",
"198 414 CURVE SMOOTH",
"229 414 OFFCURVE",
"257 408 OFFCURVE",
"284 393 CURVE",
"297 408 OFFCURVE",
"306 430 OFFCURVE",
"306 447 CURVE SMOOTH",
"306 472 OFFCURVE",
"295 510 OFFCURVE",
"183 510 CURVE SMOOTH"
);
}
);
width = 318;
}
);
leftKerningGroup = s;
rightKerningGroup = s;
unicode = 0073;
},
{
glyphname = germandbls;
lastChange = "2012-04-30 12:10:39 +0200";
layers = (
{
layerId = UUID0;
name = Light;
paths = (
{
closed = 1;
nodes = (
"68 30 LINE",
"68 11 OFFCURVE",
"62 -1 OFFCURVE",
"62 -1 CURVE",
"62 -1 OFFCURVE",
"68 -8 OFFCURVE",
"78 -8 CURVE SMOOTH",
"89 -8 OFFCURVE",
"92 -2 OFFCURVE",
"92 8 CURVE SMOOTH",
"92 533 LINE SMOOTH",
"92 642 OFFCURVE",
"137 681 OFFCURVE",
"224 681 CURVE SMOOTH",
"339 681 OFFCURVE",
"384 612 OFFCURVE",
"384 563 CURVE SMOOTH",
"384 485 OFFCURVE",
"232 478 OFFCURVE",
"232 387 CURVE SMOOTH",
"232 291 OFFCURVE",
"434 266 OFFCURVE",
"434 131 CURVE SMOOTH",
"434 48 OFFCURVE",
"375 14 OFFCURVE",
"306 14 CURVE SMOOTH",
"255 14 OFFCURVE",
"225 25 OFFCURVE",
"198 50 CURVE",
"198 50 OFFCURVE",
"189 40 OFFCURVE",
"189 31 CURVE SMOOTH",
"189 20 OFFCURVE",
"233 -9 OFFCURVE",
"305 -9 CURVE SMOOTH",
"396 -9 OFFCURVE",
"457 37 OFFCURVE",
"457 133 CURVE SMOOTH",
"457 285 OFFCURVE",
"256 307 OFFCURVE",
"256 388 CURVE SMOOTH",
"256 460 OFFCURVE",
"408 471 OFFCURVE",
"408 564 CURVE SMOOTH",
"408 615 OFFCURVE",
"362 704 OFFCURVE",
"220 704 CURVE SMOOTH",
"129 704 OFFCURVE",
"68 665 OFFCURVE",
"68 549 CURVE SMOOTH"
);
}
);
width = 477;
},
{
layerId = UUID1;
name = Bold;
paths = (
{
closed = 1;
nodes = (
"40 98 LINE",
"40 38 OFFCURVE",
"26 4 OFFCURVE",
"26 4 CURVE",
"26 4 OFFCURVE",
"44 -10 OFFCURVE",
"87 -10 CURVE SMOOTH",
"143 -10 OFFCURVE",
"153 11 OFFCURVE",
"153 64 CURVE SMOOTH",
"149 488 LINE SMOOTH",
"149 566 OFFCURVE",
"156 601 OFFCURVE",
"208 601 CURVE SMOOTH",
"259 601 OFFCURVE",
"288 586 OFFCURVE",
"288 559 CURVE SMOOTH",
"288 508 OFFCURVE",
"200 495 OFFCURVE",
"200 405 CURVE SMOOTH",
"200 300 OFFCURVE",
"328 228 OFFCURVE",
"328 141 CURVE SMOOTH",
"328 110 OFFCURVE",
"312 91 OFFCURVE",
"278 91 CURVE SMOOTH",
"239 91 OFFCURVE",
"213 113 OFFCURVE",
"213 113 CURVE",
"200 98 OFFCURVE",
"186 78 OFFCURVE",
"186 39 CURVE SMOOTH",
"186 15 OFFCURVE",
"223 -9 OFFCURVE",
"307 -9 CURVE SMOOTH",
"401 -9 OFFCURVE",
"455 53 OFFCURVE",
"455 141 CURVE SMOOTH",
"455 286 OFFCURVE",
"324 355 OFFCURVE",
"324 411 CURVE SMOOTH",
"324 473 OFFCURVE",
"409 469 OFFCURVE",
"409 559 CURVE SMOOTH",
"409 639 OFFCURVE",
"349 705 OFFCURVE",
"202 705 CURVE SMOOTH",
"101 705 OFFCURVE",
"36 655 OFFCURVE",
"36 550 CURVE SMOOTH"
);
}
);
width = 458;
}
);
leftKerningGroup = germandbls;
unicode = 00DF;
},
{
glyphname = longs;
lastChange = "2012-04-30 12:10:39 +0200";
layers = (
{
hints = (
{
horizontal = 1;
place = "{0.000000, 0.000000}";
}
);
layerId = UUID0;
name = Light;
paths = (
{
closed = 1;
nodes = (
"74 44 LINE",
"74 11 OFFCURVE",
"68 -1 OFFCURVE",
"68 -1 CURVE",
"68 -1 OFFCURVE",
"74 -8 OFFCURVE",
"84 -8 CURVE SMOOTH",
"95 -8 OFFCURVE",
"98 -6 OFFCURVE",
"98 4 CURVE SMOOTH",
"98 578 LINE SMOOTH",
"98 687 OFFCURVE",
"143 714 OFFCURVE",
"230 714 CURVE SMOOTH",
"285 714 OFFCURVE",
"323 695 OFFCURVE",
"338 682 CURVE",
"338 682 OFFCURVE",
"345 695 OFFCURVE",
"345 703 CURVE SMOOTH",
"345 711 OFFCURVE",
"300 738 OFFCURVE",
"230 738 CURVE SMOOTH",
"135 738 OFFCURVE",
"74 703 OFFCURVE",
"74 587 CURVE SMOOTH"
);
}
);
width = 173;
},
{
hints = (
{
horizontal = 1;
place = "{0.000000, 0.000000}";
}
);
layerId = UUID1;
name = Bold;
paths = (
{
closed = 1;
nodes = (
"31 88 LINE",
"31 49 OFFCURVE",
"22 6 OFFCURVE",
"22 6 CURVE",
"22 6 OFFCURVE",
"35 -8 OFFCURVE",
"78 -8 CURVE SMOOTH",
"127 -8 OFFCURVE",
"144 0 OFFCURVE",
"144 44 CURVE SMOOTH",
"144 545 LINE SMOOTH",
"144 604 OFFCURVE",
"157 642 OFFCURVE",
"210 642 CURVE SMOOTH",
"243 642 OFFCURVE",
"264 638 OFFCURVE",
"303 609 CURVE",
"320 629 OFFCURVE",
"331 656 OFFCURVE",
"331 676 CURVE SMOOTH",
"331 714 OFFCURVE",
"280 738 OFFCURVE",
"213 738 CURVE SMOOTH",
"92 738 OFFCURVE",
"31 693 OFFCURVE",
"31 588 CURVE SMOOTH"
);
}
);
width = 175;
}
);
leftKerningGroup = germandbls;
rightKerningGroup = f;
unicode = 017F;
},
{
glyphname = t;
lastChange = "2012-04-30 22:24:47 +0200";
layers = (
{
anchors = (
{
name = bottom;
position = "{153, 0}";
},
{
name = center;
position = "{153, 250}";
}
);
hints = (
{
horizontal = 1;
place = "{0.000000, 0.000000}";
}
);
layerId = UUID0;
name = Light;
paths = (
{
closed = 1;
nodes = (
"119 153 LINE SMOOTH",
"119 61 OFFCURVE",
"119 -10 OFFCURVE",
"199 -10 CURVE SMOOTH",
"240 -10 OFFCURVE",
"275 2 OFFCURVE",
"275 17 CURVE SMOOTH",
"275 22 OFFCURVE",
"274 27 OFFCURVE",
"272 32 CURVE",
"249 21 OFFCURVE",
"234 14 OFFCURVE",
"201 14 CURVE SMOOTH",
"145 14 OFFCURVE",
"143 71 OFFCURVE",
"143 150 CURVE SMOOTH",
"143 476 LINE",
"278 476 LINE",
"284 476 OFFCURVE",
"284 479 OFFCURVE",
"284 500 CURVE",
"143 500 LINE",
"143 680 LINE",
"121 680 OFFCURVE",
"119 680 OFFCURVE",
"119 665 CURVE",
"119 500 LINE",
"44 500 LINE",
"37 500 OFFCURVE",
"36 497 OFFCURVE",
"36 476 CURVE",
"119 476 LINE"
);
}
);
width = 305;
},
{
anchors = (
{
name = bottom;
position = "{142, 0}";
},
{
name = center;
position = "{142, 250}";
}
);
hints = (
{
horizontal = 1;
place = "{0.000000, 0.000000}";
}
);
layerId = UUID1;
name = Bold;
paths = (
{
closed = 1;
nodes = (
"69 131 LINE SMOOTH",
"69 42 OFFCURVE",
"85 -10 OFFCURVE",
"173 -10 CURVE SMOOTH",
"211 -10 OFFCURVE",
"264 -4 OFFCURVE",
"264 44 CURVE SMOOTH",
"264 66 OFFCURVE",
"260 84 OFFCURVE",
"257 98 CURVE",
"238 89 OFFCURVE",
"223 85 OFFCURVE",
"205 85 CURVE SMOOTH",
"181 85 OFFCURVE",
"181 110 OFFCURVE",
"181 133 CURVE SMOOTH",
"181 405 LINE",
"241 405 LINE",
"262 405 OFFCURVE",
"263 414 OFFCURVE",
"263 500 CURVE",
"181 500 LINE",
"181 680 LINE",
"91 680 OFFCURVE",
"69 680 OFFCURVE",
"69 645 CURVE",
"69 500 LINE",
"32 500 LINE",
"10 500 OFFCURVE",
"9 490 OFFCURVE",
"9 405 CURVE",
"69 405 LINE"
);
}
);
width = 284;
}
);
leftKerningGroup = t;
rightKerningGroup = t;
unicode = 0074;
},
{
glyphname = u;
lastChange = "2012-04-30 22:12:51 +0200";
layers = (
{
anchors = (
{
name = ogonek;
position = "{400, 10}";
},
{
name = top;
position = "{227, 550}";
}
);
hints = (
{
horizontal = 1;
place = "{0.000000, 0.000000}";
}
);
layerId = UUID0;
name = Light;
paths = (
{
closed = 1;
nodes = (
"372 500 LINE",
"353 500 OFFCURVE",
"348 500 OFFCURVE",
"348 490 CURVE SMOOTH",
"348 42 LINE",
"308 20 OFFCURVE",
"254 14 OFFCURVE",
"227 14 CURVE SMOOTH",
"123 14 OFFCURVE",
"97 51 OFFCURVE",
"97 178 CURVE SMOOTH",
"97 500 LINE",
"73 500 OFFCURVE",
"73 500 OFFCURVE",
"73 490 CURVE SMOOTH",
"73 185 LINE SMOOTH",
"73 40 OFFCURVE",
"103 -10 OFFCURVE",
"219 -10 CURVE SMOOTH",
"263 -10 OFFCURVE",
"322 -2 OFFCURVE",
"372 23 CURVE"
);
}
);
width = 445;
},
{
anchors = (
{
name = ogonek;
position = "{325, 10}";
},
{
name = top;
position = "{183, 550}";
}
);
hints = (
{
horizontal = 1;
place = "{0.000000, 0.000000}";
}
);
layerId = UUID1;
name = Bold;
paths = (
{
closed = 1;
nodes = (
"328 500 LINE",
"214 500 OFFCURVE",
"216 500 OFFCURVE",
"216 480 CURVE SMOOTH",
"216 99 LINE",
"205 89 OFFCURVE",
"191 86 OFFCURVE",
"178 86 CURVE SMOOTH",
"150 86 OFFCURVE",
"145 102 OFFCURVE",
"145 133 CURVE SMOOTH",
"145 500 LINE",
"28 500 OFFCURVE",
"29 500 OFFCURVE",
"29 480 CURVE SMOOTH",
"29 140 LINE SMOOTH",
"29 46 OFFCURVE",
"60 -10 OFFCURVE",
"180 -10 CURVE SMOOTH",
"240 -10 OFFCURVE",
"296 9 OFFCURVE",
"328 28 CURVE"
);
}
);
width = 358;
}
);
leftKerningGroup = u;
rightKerningGroup = u;
unicode = 0075;
},
{
glyphname = v;
lastChange = "2012-04-30 22:24:49 +0200";
layers = (
{
hints = (
{
horizontal = 1;
place = "{0.000000, 0.000000}";
},
{
horizontal = 1;
place = "{0.000000, 0.000000}";
}
);
layerId = UUID0;
name = Light;
paths = (
{
closed = 1;
nodes = (
"167 40 LINE",
"176 10 OFFCURVE",
"181 -9 OFFCURVE",
"181 -9 CURVE SMOOTH",
"181 -9 OFFCURVE",
"194 -9 OFFCURVE",
"194 -9 CURVE",
"337 500 LINE",
"316 500 OFFCURVE",
"315 500 OFFCURVE",
"312 490 CURVE SMOOTH",
"261 312 LINE SMOOTH",
"221 173 OFFCURVE",
"189 32 OFFCURVE",
"189 32 CURVE",
"188 32 LINE",
"188 32 OFFCURVE",
"153 173 OFFCURVE",
"112 310 CURVE",
"55 500 LINE",
"37 500 OFFCURVE",
"31 500 OFFCURVE",
"34 490 CURVE"
);
}
);
width = 370;
},
{
hints = (
{
horizontal = 1;
place = "{0.000000, 0.000000}";
},
{
horizontal = 1;
place = "{0.000000, 0.000000}";
}
);
layerId = UUID1;
name = Bold;
paths = (
{
closed = 1;
nodes = (
"95 45 LINE",
"101 17 OFFCURVE",
"113 -5 OFFCURVE",
"142 -5 CURVE SMOOTH",
"163 -5 OFFCURVE",
"200 -4 OFFCURVE",
"223 0 CURVE",
"323 500 LINE",
"208 500 OFFCURVE",
"208 500 OFFCURVE",
"205 478 CURVE SMOOTH",
"191 356 LINE SMOOTH",
"181 270 OFFCURVE",
"172 117 OFFCURVE",
"172 117 CURVE",
"170 117 LINE",
"170 117 OFFCURVE",
"161 270 OFFCURVE",
"150 356 CURVE",
"132 500 LINE",
"4 500 OFFCURVE",
"3 500 OFFCURVE",
"10 467 CURVE"
);
}
);
width = 330;
}
);
leftKerningGroup = v;
rightKerningGroup = v;
unicode = 0076;
},
{
glyphname = w;
lastChange = "2012-04-30 22:14:21 +0200";
layers = (
{
anchors = (
{
name = top;
position = "{284, 500}";
}
);
hints = (
{
horizontal = 1;
place = "{0.000000, 0.000000}";
},
{
horizontal = 1;
place = "{0.000000, 0.000000}";
}
);
layerId = UUID0;
name = Light;
paths = (
{
closed = 1;
nodes = (
"33 490 OFFCURVE",
"117 170 OFFCURVE",
"148 40 CURVE SMOOTH",
"155 10 OFFCURVE",
"161 -9 OFFCURVE",
"161 -9 CURVE",
"161 -9 OFFCURVE",
"175 -9 OFFCURVE",
"175 -9 CURVE",
"207 117 LINE SMOOTH",
"253 297 OFFCURVE",
"287 445 OFFCURVE",
"287 445 CURVE",
"294 470 LINE SMOOTH",
"295 475 OFFCURVE",
"294 480 OFFCURVE",
"284 480 CURVE SMOOTH",
"278 480 LINE SMOOTH",
"273 480 OFFCURVE",
"269 476 OFFCURVE",
"268 470 CURVE SMOOTH",
"229 297 LINE SMOOTH",
"209 209 OFFCURVE",
"179 87 OFFCURVE",
"169 41 CURVE",
"168 41 LINE",
"168 41 OFFCURVE",
"141 156 OFFCURVE",
"107 295 CURVE SMOOTH",
"56 500 LINE",
"32 500 OFFCURVE",
"31 500 OFFCURVE",
"33 490 CURVE"
);
},
{
closed = 1;
nodes = (
"277 445 LINE",
"277 445 OFFCURVE",
"315 298 OFFCURVE",
"364 118 CURVE SMOOTH",
"383 48 LINE SMOOTH",
"392 14 OFFCURVE",
"399 -9 OFFCURVE",
"399 -9 CURVE",
"399 -9 OFFCURVE",
"412 -9 OFFCURVE",
"412 -9 CURVE",
"412 -9 OFFCURVE",
"534 500 OFFCURVE",
"534 500 CURVE",
"508 500 OFFCURVE",
"508 500 OFFCURVE",
"506 490 CURVE SMOOTH",
"461 295 LINE SMOOTH",
"438 195 OFFCURVE",
"413 82 OFFCURVE",
"406 41 CURVE",
"405 41 LINE",
"405 41 OFFCURVE",
"376 158 OFFCURVE",
"341 293 CURVE SMOOTH",
"293 480 LINE",
"282 480 LINE SMOOTH",
"272 480 OFFCURVE",
"270 476 OFFCURVE",
"272 470 CURVE"
);
}
);
width = 567;
},
{
anchors = (
{
name = top;
position = "{263, 500}";
}
);
hints = (
{
horizontal = 1;
place = "{0.000000, 0.000000}";
},
{
horizontal = 1;
place = "{0.000000, 0.000000}";
}
);
layerId = UUID1;
name = Bold;
paths = (
{
closed = 1;
nodes = (
"6 479 OFFCURVE",
"66 163 OFFCURVE",
"93 44 CURVE SMOOTH",
"99 17 OFFCURVE",
"112 -5 OFFCURVE",
"139 -5 CURVE",
"179 -5 OFFCURVE",
"236 0 OFFCURVE",
"236 0 CURVE",
"254 111 LINE SMOOTH",
"269 205 OFFCURVE",
"274 396 OFFCURVE",
"274 396 CURVE",
"274 451 LINE SMOOTH",
"276 463 OFFCURVE",
"307 490 OFFCURVE",
"282 490 CURVE SMOOTH",
"252 490 LINE SMOOTH",
"222 490 OFFCURVE",
"219 487 OFFCURVE",
"216 468 CURVE SMOOTH",
"189 267 LINE SMOOTH",
"182 218 OFFCURVE",
"180 151 OFFCURVE",
"178 122 CURVE",
"170 122 LINE",
"170 122 OFFCURVE",
"162 263 OFFCURVE",
"149 360 CURVE SMOOTH",
"130 500 LINE",
"13 500 OFFCURVE",
"3 500 OFFCURVE",
"6 479 CURVE"
);
},
{
closed = 1;
nodes = (
"264 394 LINE",
"264 394 OFFCURVE",
"267 205 OFFCURVE",
"281 111 CURVE SMOOTH",
"291 45 LINE SMOOTH",
"297 8 OFFCURVE",
"325 -5 OFFCURVE",
"348 -5 CURVE",
"400 -5 OFFCURVE",
"421 0 OFFCURVE",
"421 0 CURVE",
"428 0 OFFCURVE",
"521 500 OFFCURVE",
"521 500 CURVE",
"420 500 OFFCURVE",
"416 500 OFFCURVE",
"413 478 CURVE SMOOTH",
"398 360 LINE SMOOTH",
"389 292 OFFCURVE",
"383 192 OFFCURVE",
"380 122 CURVE",
"372 122 LINE",
"372 122 OFFCURVE",
"367 224 OFFCURVE",
"360 267 CURVE SMOOTH",
"326 490 LINE",
"270 490 LINE SMOOTH",
"257 490 OFFCURVE",
"247 463 OFFCURVE",
"249 451 CURVE"
);
}
);
width = 526;
}
);
leftKerningGroup = v;
rightKerningGroup = v;
unicode = 0077;
},
{
glyphname = x;
lastChange = "2012-04-30 22:24:52 +0200";
layers = (
{
hints = (
{
horizontal = 1;
place = "{0.000000, 0.000000}";
},
{
horizontal = 1;
place = "{0.000000, 0.000000}";
}
);
layerId = UUID0;
name = Light;
paths = (
{
closed = 1;
nodes = (
"224 259 LINE",
"232 253 LINE",
"232 253 OFFCURVE",
"291 168 OFFCURVE",
"341 98 CURVE SMOOTH",
"410 0 LINE",
"440 0 OFFCURVE",
"442 0 OFFCURVE",
"435 9 CURVE SMOOTH",
"247 272 LINE",
"239 279 LINE",
"239 279 OFFCURVE",
"189 351 OFFCURVE",
"149 407 CURVE",
"83 500 LINE",
"56 500 OFFCURVE",
"55 499 OFFCURVE",
"58 495 CURVE"
);
},
{
closed = 1;
nodes = (
"417 500 LINE",
"387 500 OFFCURVE",
"389 500 OFFCURVE",
"385 495 CURVE",
"324 409 LINE SMOOTH",
"283 351 OFFCURVE",
"232 279 OFFCURVE",
"232 279 CURVE",
"223 271 LINE",
"30 0 LINE",
"56 0 OFFCURVE",
"60 0 OFFCURVE",
"64 6 CURVE SMOOTH",
"127 96 LINE SMOOTH",
"178 168 OFFCURVE",
"240 255 OFFCURVE",
"240 255 CURVE",
"247 261 LINE"
);
}
);
width = 468;
},
{
hints = (
{
horizontal = 1;
place = "{0.000000, 0.000000}";
},
{
horizontal = 1;
place = "{0.000000, 0.000000}";
}
);
layerId = UUID1;
name = Bold;
paths = (
{
closed = 1;
nodes = (
"142 220 LINE",
"166 205 LINE",
"166 205 OFFCURVE",
"199 103 OFFCURVE",
"222 48 CURVE SMOOTH",
"242 0 LINE",
"377 0 OFFCURVE",
"378 -1 OFFCURVE",
"367 24 CURVE SMOOTH",
"245 297 LINE",
"204 319 LINE",
"204 319 OFFCURVE",
"180 399 OFFCURVE",
"162 445 CURVE",
"140 500 LINE",
"14 500 OFFCURVE",
"14 500 OFFCURVE",
"22 482 CURVE"
);
},
{
closed = 1;
nodes = (
"369 500 LINE",
"257 500 OFFCURVE",
"255 500 OFFCURVE",
"247 481 CURVE",
"233 445 LINE SMOOTH",
"214 397 OFFCURVE",
"191 319 OFFCURVE",
"191 319 CURVE",
"133 278 LINE",
"7 0 LINE",
"109 0 OFFCURVE",
"123 0 OFFCURVE",
"131 21 CURVE SMOOTH",
"141 48 LINE SMOOTH",
"162 105 OFFCURVE",
"192 205 OFFCURVE",
"192 205 CURVE",
"235 217 LINE"
);
}
);
width = 379;
}
);
leftKerningGroup = x;
rightKerningGroup = x;
unicode = 0078;
},
{
glyphname = y;
lastChange = "2012-04-30 22:24:54 +0200";
layers = (
{
anchors = (
{
name = top;
position = "{201, 550}";
}
);
hints = (
{
horizontal = 1;
place = "{0.000000, 0.000000}";
}
);
layerId = UUID0;
name = Light;
paths = (
{
closed = 1;
nodes = (
"186 -16 LINE",
"157 -130 OFFCURVE",
"116 -169 OFFCURVE",
"72 -169 CURVE SMOOTH",
"59 -169 OFFCURVE",
"33 -165 OFFCURVE",
"16 -157 CURVE",
"12 -160 OFFCURVE",
"8 -168 OFFCURVE",
"8 -174 CURVE SMOOTH",
"8 -187 OFFCURVE",
"36 -193 OFFCURVE",
"71 -193 CURVE SMOOTH",
"128 -193 OFFCURVE",
"173 -153 OFFCURVE",
"205 -35 CURVE",
"348 500 LINE",
"322 500 OFFCURVE",
"323 500 OFFCURVE",
"320 490 CURVE SMOOTH",
"228 143 LINE SMOOTH",
"210 74 OFFCURVE",
"198 9 OFFCURVE",
"198 9 CURVE",
"198 9 OFFCURVE",
"185 75 OFFCURVE",
"167 141 CURVE SMOOTH",
"67 500 LINE",
"43 500 OFFCURVE",
"42 500 OFFCURVE",
"45 490 CURVE"
);
}
);
width = 386;
},
{
anchors = (
{
name = top;
position = "{177, 550}";
}
);
hints = (
{
horizontal = 1;
place = "{0.000000, 0.000000}";
}
);
layerId = UUID1;
name = Bold;
paths = (
{
closed = 1;
nodes = (
"121 -16 LINE",
"114 -81 OFFCURVE",
"95 -99 OFFCURVE",
"71 -99 CURVE SMOOTH",
"42 -99 OFFCURVE",
"15 -91 OFFCURVE",
"3 -82 CURVE",
"-6 -97 OFFCURVE",
"-11 -123 OFFCURVE",
"-11 -143 CURVE SMOOTH",
"-11 -171 OFFCURVE",
"7 -193 OFFCURVE",
"81 -193 CURVE SMOOTH",
"162 -193 OFFCURVE",
"195 -154 OFFCURVE",
"223 -23 CURVE",
"335 500 LINE",
"222 500 OFFCURVE",
"220 500 OFFCURVE",
"216 469 CURVE SMOOTH",
"197 327 LINE SMOOTH",
"185 239 OFFCURVE",
"176 125 OFFCURVE",
"176 125 CURVE",
"176 125 OFFCURVE",
"166 240 OFFCURVE",
"151 327 CURVE SMOOTH",
"122 500 LINE",
"5 500 OFFCURVE",
"5 500 OFFCURVE",
"12 471 CURVE"
);
}
);
width = 340;
}
);
leftKerningGroup = y;
rightKerningGroup = y;
unicode = 0079;
},
{
glyphname = z;
lastChange = "2012-04-30 22:24:56 +0200";
layers = (
{
anchors = (
{
name = top;
position = "{206, 550}";
}
);
layerId = UUID0;
name = Light;
paths = (
{
closed = 1;
nodes = (
"54 500 LINE SMOOTH",
"49 500 OFFCURVE",
"45 494 OFFCURVE",
"45 486 CURVE SMOOTH",
"45 482 OFFCURVE",
"45 479 OFFCURVE",
"46 472 CURVE",
"74 475 OFFCURVE",
"121 476 OFFCURVE",
"184 476 CURVE SMOOTH",
"326 476 LINE",
"43 26 LINE SMOOTH",
"41 23 OFFCURVE",
"40 18 OFFCURVE",
"40 13 CURVE SMOOTH",
"40 5 OFFCURVE",
"44 0 OFFCURVE",
"44 0 CURVE",
"347 0 LINE SMOOTH",
"354 0 OFFCURVE",
"356 4 OFFCURVE",
"356 15 CURVE SMOOTH",
"356 19 OFFCURVE",
"356 26 OFFCURVE",
"356 29 CURVE",
"331 26 OFFCURVE",
"292 24 OFFCURVE",
"218 24 CURVE",
"69 24 LINE",
"354 474 LINE SMOOTH",
"357 479 OFFCURVE",
"358 484 OFFCURVE",
"358 490 CURVE SMOOTH",
"358 497 OFFCURVE",
"354 500 OFFCURVE",
"354 500 CURVE"
);
}
);
width = 398;
},
{
anchors = (
{
name = top;
position = "{157, 550}";
}
);
layerId = UUID1;
name = Bold;
paths = (
{
closed = 1;
nodes = (
"49 500 LINE SMOOTH",
"23 500 OFFCURVE",
"14 486 OFFCURVE",
"14 453 CURVE SMOOTH",
"14 444 OFFCURVE",
"14 425 OFFCURVE",
"18 402 CURVE",
"35 405 OFFCURVE",
"60 407 OFFCURVE",
"84 407 CURVE SMOOTH",
"165 407 LINE",
"19 95 LINE SMOOTH",
"12 80 OFFCURVE",
"10 69 OFFCURVE",
"10 55 CURVE SMOOTH",
"10 16 OFFCURVE",
"29 0 OFFCURVE",
"29 0 CURVE",
"243 0 LINE SMOOTH",
"280 0 OFFCURVE",
"287 23 OFFCURVE",
"288 69 CURVE SMOOTH",
"288 81 OFFCURVE",
"287 105 OFFCURVE",
"284 117 CURVE",
"267 110 OFFCURVE",
"241 103 OFFCURVE",
"196 103 CURVE",
"141 103 LINE",
"277 414 LINE SMOOTH",
"288 440 OFFCURVE",
"290 457 OFFCURVE",
"290 467 CURVE SMOOTH",
"290 489 OFFCURVE",
"279 500 OFFCURVE",
"279 500 CURVE"
);
}
);
width = 300;
}
);
leftKerningGroup = z;
rightKerningGroup = z;
unicode = 007A;
},
{
glyphname = fi;
lastChange = "2012-04-30 12:10:39 +0200";
layers = (
{
hints = (
{
horizontal = 1;
place = "{0.000000, 0.000000}";
},
{
horizontal = 1;
place = "{0.000000, 0.000000}";
}
);
layerId = UUID0;
name = Light;
paths = (
{
closed = 1;
nodes = (
"321 500 LINE",
"303 500 OFFCURVE",
"297 500 OFFCURVE",
"297 485 CURVE SMOOTH",
"297 0 LINE",
"322 0 OFFCURVE",
"321 0 OFFCURVE",
"321 10 CURVE SMOOTH"
);
},
{
closed = 1;
nodes = (
"96 476 LINE",
"96 0 LINE",
"110 0 LINE SMOOTH",
"120 0 OFFCURVE",
"120 10 OFFCURVE",
"120 10 CURVE",
"120 476 LINE",
"212 476 LINE SMOOTH",
"222 476 OFFCURVE",
"222 478 OFFCURVE",
"222 500 CURVE",
"120 500 LINE",
"120 563 LINE SMOOTH",
"120 706 OFFCURVE",
"194 716 OFFCURVE",
"251 716 CURVE SMOOTH",
"283 716 OFFCURVE",
"310 711 OFFCURVE",
"334 703 CURVE",
"336 708 OFFCURVE",
"338 713 OFFCURVE",
"338 718 CURVE SMOOTH",
"338 730 OFFCURVE",
"304 740 OFFCURVE",
"253 740 CURVE SMOOTH",
"186 740 OFFCURVE",
"96 732 OFFCURVE",
"96 567 CURVE SMOOTH",
"96 500 LINE",
"21 500 LINE SMOOTH",
"11 500 OFFCURVE",
"11 498 OFFCURVE",
"11 476 CURVE"
);
}
);
width = 390;
},
{
hints = (
{
horizontal = 1;
place = "{0.000000, 0.000000}";
},
{
horizontal = 1;
place = "{0.000000, 0.000000}";
}
);
layerId = UUID1;
name = Bold;
paths = (
{
closed = 1;
nodes = (
"377 500 LINE",
"285 500 OFFCURVE",
"263 500 OFFCURVE",
"263 451 CURVE SMOOTH",
"263 0 LINE",
"376 0 OFFCURVE",
"377 0 OFFCURVE",
"377 20 CURVE SMOOTH"
);
},
{
closed = 1;
nodes = (
"70 407 LINE",
"70 0 LINE",
"162 0 LINE SMOOTH",
"182 0 OFFCURVE",
"182 20 OFFCURVE",
"182 20 CURVE",
"182 407 LINE",
"213 407 LINE SMOOTH",
"232 407 OFFCURVE",
"234 413 OFFCURVE",
"234 500 CURVE",
"182 500 LINE",
"182 561 LINE SMOOTH",
"182 628 OFFCURVE",
"215 638 OFFCURVE",
"268 638 CURVE SMOOTH",
"308 638 OFFCURVE",
"354 627 OFFCURVE",
"383 610 CURVE",
"390 629 OFFCURVE",
"394 658 OFFCURVE",
"394 675 CURVE SMOOTH",
"394 718 OFFCURVE",
"349 738 OFFCURVE",
"263 738 CURVE SMOOTH",
"168 738 OFFCURVE",
"70 712 OFFCURVE",
"70 557 CURVE SMOOTH",
"70 500 LINE",
"37 500 LINE SMOOTH",
"10 500 OFFCURVE",
"10 494 OFFCURVE",
"10 407 CURVE"
);
}
);
width = 409;
}
);
leftKerningGroup = f;
rightKerningGroup = i;
unicode = FB01;
},
{
glyphname = fl;
lastChange = "2012-04-30 12:10:39 +0200";
layers = (
{
hints = (
{
horizontal = 1;
place = "{0.000000, 0.000000}";
}
);
layerId = UUID0;
name = Light;
paths = (
{
closed = 1;
nodes = (
"330 718 LINE",
"306 709 LINE",
"306 0 LINE",
"306 0 OFFCURVE",
"304 0 OFFCURVE",
"320 0 CURVE",
"330 0 OFFCURVE",
"330 10 OFFCURVE",
"330 10 CURVE"
);
},
{
closed = 1;
nodes = (
"95 476 LINE",
"95 0 LINE",
"109 0 LINE SMOOTH",
"119 0 OFFCURVE",
"119 10 OFFCURVE",
"119 10 CURVE",
"119 476 LINE",
"231 476 LINE SMOOTH",
"241 476 OFFCURVE",
"241 478 OFFCURVE",
"241 500 CURVE",
"119 500 LINE",
"119 563 LINE SMOOTH",
"119 715 OFFCURVE",
"193 714 OFFCURVE",
"235 714 CURVE SMOOTH",
"261 714 OFFCURVE",
"287 710 OFFCURVE",
"312 700 CURVE",
"330 718 LINE",
"302 732 OFFCURVE",
"273 738 OFFCURVE",
"235 738 CURVE SMOOTH",
"185 738 OFFCURVE",
"95 732 OFFCURVE",
"95 567 CURVE SMOOTH",
"95 500 LINE",
"20 500 LINE SMOOTH",
"10 500 OFFCURVE",
"10 498 OFFCURVE",
"10 476 CURVE"
);
}
);
width = 400;
},
{
hints = (
{
horizontal = 1;
place = "{0.000000, 0.000000}";
}
);
layerId = UUID1;
name = Bold;
paths = (
{
closed = 1;
nodes = (
"386 696 LINE",
"274 689 LINE",
"274 0 LINE",
"274 0 OFFCURVE",
"272 0 OFFCURVE",
"366 0 CURVE",
"386 0 OFFCURVE",
"386 20 OFFCURVE",
"386 20 CURVE"
);
},
{
closed = 1;
nodes = (
"70 407 LINE",
"70 0 LINE",
"162 0 LINE SMOOTH",
"182 0 OFFCURVE",
"182 20 OFFCURVE",
"182 20 CURVE",
"182 407 LINE",
"219 407 LINE SMOOTH",
"238 407 OFFCURVE",
"240 413 OFFCURVE",
"240 500 CURVE",
"182 500 LINE",
"182 579 LINE SMOOTH",
"182 635 OFFCURVE",
"215 648 OFFCURVE",
"244 648 CURVE SMOOTH",
"260 648 OFFCURVE",
"287 643 OFFCURVE",
"301 631 CURVE",
"386 696 LINE",
"351 719 OFFCURVE",
"294 738 OFFCURVE",
"236 738 CURVE SMOOTH",
"168 738 OFFCURVE",
"70 712 OFFCURVE",
"70 557 CURVE SMOOTH",
"70 500 LINE",
"37 500 LINE SMOOTH",
"10 500 OFFCURVE",
"10 494 OFFCURVE",
"10 407 CURVE"
);
}
);
width = 419;
}
);
leftKerningGroup = f;
rightKerningGroup = l;
unicode = FB02;
},
{
glyphname = ordfeminine;
lastChange = "2012-04-30 12:10:39 +0200";
layers = (
{
anchors = (
{
name = bottom;
position = "{304, -47}";
},
{
name = top;
position = "{253, 559}";
}
);
layerId = UUID0;
name = Light;
paths = (
{
closed = 1;
nodes = (
"62 677 OFFCURVE",
"65 662 OFFCURVE",
"72 658 CURVE",
"92 670 OFFCURVE",
"131 686 OFFCURVE",
"180 686 CURVE SMOOTH",
"218 686 OFFCURVE",
"265 680 OFFCURVE",
"265 615 CURVE",
"265 513 LINE",
"246 519 OFFCURVE",
"215 525 OFFCURVE",
"187 525 CURVE SMOOTH",
"120 525 OFFCURVE",
"60 512 OFFCURVE",
"60 407 CURVE SMOOTH",
"60 302 OFFCURVE",
"115 289 OFFCURVE",
"173 289 CURVE SMOOTH",
"228 289 OFFCURVE",
"276 309 OFFCURVE",
"289 317 CURVE",
"289 620 LINE SMOOTH",
"289 693 OFFCURVE",
"237 710 OFFCURVE",
"188 710 CURVE SMOOTH",
"128 710 OFFCURVE",
"88 694 OFFCURVE",
"68 681 CURVE SMOOTH"
);
},
{
closed = 1;
nodes = (
"265 331 LINE",
"250 322 OFFCURVE",
"213 312 OFFCURVE",
"180 312 CURVE SMOOTH",
"127 312 OFFCURVE",
"83 325 OFFCURVE",
"83 403 CURVE SMOOTH",
"83 497 OFFCURVE",
"131 501 OFFCURVE",
"193 501 CURVE SMOOTH",
"213 501 OFFCURVE",
"245 495 OFFCURVE",
"265 489 CURVE"
);
}
);
width = 349;
},
{
anchors = (
{
name = bottom;
position = "{304, -47}";
},
{
name = top;
position = "{253, 559}";
}
);
layerId = UUID1;
name = Bold;
paths = (
{
closed = 1;
nodes = (
"32 655 OFFCURVE",
"35 613 OFFCURVE",
"49 594 CURVE",
"75 604 OFFCURVE",
"107 613 OFFCURVE",
"136 613 CURVE SMOOTH",
"165 613 OFFCURVE",
"186 604 OFFCURVE",
"186 563 CURVE",
"186 530 LINE",
"171 535 OFFCURVE",
"148 539 OFFCURVE",
"130 539 CURVE SMOOTH",
"68 539 OFFCURVE",
"30 503 OFFCURVE",
"30 413 CURVE SMOOTH",
"30 302 OFFCURVE",
"82 288 OFFCURVE",
"143 288 CURVE SMOOTH",
"193 288 OFFCURVE",
"246 302 OFFCURVE",
"278 317 CURVE",
"278 602 LINE SMOOTH",
"278 674 OFFCURVE",
"238 710 OFFCURVE",
"169 710 CURVE SMOOTH",
"100 710 OFFCURVE",
"61 696 OFFCURVE",
"44 672 CURVE SMOOTH"
);
},
{
closed = 1;
nodes = (
"186 373 LINE",
"180 369 OFFCURVE",
"167 365 OFFCURVE",
"156 365 CURVE SMOOTH",
"134 365 OFFCURVE",
"118 377 OFFCURVE",
"118 412 CURVE SMOOTH",
"118 455 OFFCURVE",
"136 462 OFFCURVE",
"160 462 CURVE SMOOTH",
"167 462 OFFCURVE",
"179 460 OFFCURVE",
"186 456 CURVE"
);
}
);
width = 308;
}
);
unicode = 00AA;
},
{
glyphname = ordmasculine;
lastChange = "2012-04-30 12:10:39 +0200";
layers = (
{
anchors = (
{
name = top;
position = "{286, 559}";
}
);
layerId = UUID0;
name = Light;
paths = (
{
closed = 1;
nodes = (
"50 324 OFFCURVE",
"101 290 OFFCURVE",
"176 290 CURVE SMOOTH",
"261 290 OFFCURVE",
"310 358 OFFCURVE",
"310 498 CURVE SMOOTH",
"310 665 OFFCURVE",
"268 710 OFFCURVE",
"186 710 CURVE SMOOTH",
"108 710 OFFCURVE",
"50 649 OFFCURVE",
"50 498 CURVE"
);
},
{
closed = 1;
nodes = (
"74 636 OFFCURVE",
"118 686 OFFCURVE",
"188 686 CURVE SMOOTH",
"250 686 OFFCURVE",
"287 648 OFFCURVE",
"287 502 CURVE SMOOTH",
"287 377 OFFCURVE",
"245 314 OFFCURVE",
"176 314 CURVE SMOOTH",
"111 314 OFFCURVE",
"74 350 OFFCURVE",
"74 493 CURVE SMOOTH"
);
}
);
width = 360;
},
{
anchors = (
{
name = top;
position = "{286, 559}";
}
);
layerId = UUID1;
name = Bold;
paths = (
{
closed = 1;
nodes = (
"27 336 OFFCURVE",
"72 289 OFFCURVE",
"159 289 CURVE SMOOTH",
"250 289 OFFCURVE",
"299 356 OFFCURVE",
"299 502 CURVE SMOOTH",
"299 667 OFFCURVE",
"257 710 OFFCURVE",
"168 710 CURVE SMOOTH",
"80 710 OFFCURVE",
"27 647 OFFCURVE",
"27 499 CURVE"
);
},
{
closed = 1;
nodes = (
"120 585 OFFCURVE",
"137 612 OFFCURVE",
"167 612 CURVE SMOOTH",
"195 612 OFFCURVE",
"206 591 OFFCURVE",
"206 497 CURVE SMOOTH",
"206 404 OFFCURVE",
"189 379 OFFCURVE",
"160 379 CURVE SMOOTH",
"133 379 OFFCURVE",
"120 400 OFFCURVE",
"120 495 CURVE SMOOTH"
);
}
);
width = 326;
}
);
unicode = 00BA;
},
{
glyphname = uni0237;
lastChange = "2012-04-30 12:10:39 +0200";
layers = (
{
anchors = (
{
name = top;
position = "{89, 550}";
}
);
hints = (
{
horizontal = 1;
place = "{0.000000, 0.000000}";
}
);
layerId = UUID0;
name = Light;
paths = (
{
closed = 1;
nodes = (
"101 500 LINE",
"82 500 OFFCURVE",
"77 500 OFFCURVE",
"77 485 CURVE",
"77 -28 LINE SMOOTH",
"77 -118 OFFCURVE",
"68 -170 OFFCURVE",
"-11 -170 CURVE SMOOTH",
"-64 -170 OFFCURVE",
"-97 -154 OFFCURVE",
"-119 -137 CURVE",
"-124 -144 OFFCURVE",
"-125 -149 OFFCURVE",
"-125 -155 CURVE SMOOTH",
"-125 -170 OFFCURVE",
"-83 -194 OFFCURVE",
"-14 -194 CURVE SMOOTH",
"83 -194 OFFCURVE",
"101 -131 OFFCURVE",
"101 -37 CURVE SMOOTH"
);
}
);
width = 179;
},
{
anchors = (
{
name = top;
position = "{100, 550}";
}
);
hints = (
{
horizontal = 1;
place = "{0.000000, 0.000000}";
}
);
layerId = UUID1;
name = Bold;
paths = (
{
closed = 1;
nodes = (
"153 500 LINE",
"62 500 OFFCURVE",
"41 500 OFFCURVE",
"41 451 CURVE",
"41 -21 LINE SMOOTH",
"41 -79 OFFCURVE",
"33 -95 OFFCURVE",
"-3 -95 CURVE SMOOTH",
"-28 -95 OFFCURVE",
"-52 -92 OFFCURVE",
"-75 -82 CURVE",
"-86 -96 OFFCURVE",
"-90 -117 OFFCURVE",
"-90 -137 CURVE SMOOTH",
"-90 -178 OFFCURVE",
"-63 -197 OFFCURVE",
"14 -197 CURVE SMOOTH",
"127 -197 OFFCURVE",
"153 -120 OFFCURVE",
"153 -36 CURVE SMOOTH"
);
}
);
width = 187;
}
);
},
{
glyphname = g.ss01;
lastChange = "2012-04-30 19:57:06 +0200";
layers = (
{
anchors = (
{
name = top;
position = "{215, 500}";
}
);
layerId = UUID0;
name = Light;
paths = (
{
closed = 1;
nodes = (
"287 -200 OFFCURVE",
"361 -158 OFFCURVE",
"361 -49 CURVE SMOOTH",
"361 467 LINE",
"340 492 OFFCURVE",
"299 509 OFFCURVE",
"254 509 CURVE SMOOTH",
"163 509 OFFCURVE",
"54 458 OFFCURVE",
"54 235 CURVE SMOOTH",
"54 29 OFFCURVE",
"129 -9 OFFCURVE",
"205 -9 CURVE SMOOTH",
"262 -9 OFFCURVE",
"314 20 OFFCURVE",
"337 46 CURVE",
"337 46 OFFCURVE",
"337 -17 OFFCURVE",
"337 -45 CURVE SMOOTH",
"337 -156 OFFCURVE",
"258 -177 OFFCURVE",
"200 -177 CURVE SMOOTH",
"130 -177 OFFCURVE",
"103 -161 OFFCURVE",
"77 -147 CURVE",
"72 -152 OFFCURVE",
"70 -158 OFFCURVE",
"70 -162 CURVE SMOOTH",
"70 -178 OFFCURVE",
"119 -200 OFFCURVE",
"198 -200 CURVE SMOOTH"
);
},
{
closed = 1;
nodes = (
"337 81 LINE",
"306 37 OFFCURVE",
"256 15 OFFCURVE",
"205 15 CURVE SMOOTH",
"142 15 OFFCURVE",
"77 52 OFFCURVE",
"77 227 CURVE SMOOTH",
"77 449 OFFCURVE",
"179 485 OFFCURVE",
"249 485 CURVE SMOOTH",
"296 485 OFFCURVE",
"328 467 OFFCURVE",
"337 453 CURVE"
);
}
);
width = 430;
},
{
anchors = (
{
name = top;
position = "{185, 500}";
}
);
layerId = UUID1;
name = Bold;
paths = (
{
closed = 1;
nodes = (
"269 -200 OFFCURVE",
"337 -151 OFFCURVE",
"337 -45 CURVE SMOOTH",
"337 486 LINE",
"309 502 OFFCURVE",
"269 513 OFFCURVE",
"235 513 CURVE SMOOTH",
"119 513 OFFCURVE",
"28 451 OFFCURVE",
"28 231 CURVE SMOOTH",
"28 59 OFFCURVE",
"54 -9 OFFCURVE",
"146 -9 CURVE SMOOTH",
"188 -9 OFFCURVE",
"214 7 OFFCURVE",
"225 23 CURVE",
"225 23 OFFCURVE",
"225 -3 OFFCURVE",
"225 -31 CURVE SMOOTH",
"225 -81 OFFCURVE",
"187 -95 OFFCURVE",
"166 -95 CURVE SMOOTH",
"121 -95 OFFCURVE",
"91 -84 OFFCURVE",
"57 -63 CURVE",
"42 -86 OFFCURVE",
"35 -108 OFFCURVE",
"35 -131 CURVE SMOOTH",
"35 -168 OFFCURVE",
"81 -200 OFFCURVE",
"164 -200 CURVE SMOOTH"
);
},
{
closed = 1;
nodes = (
"228 164 LINE",
"228 111 OFFCURVE",
"213 90 OFFCURVE",
"189 90 CURVE SMOOTH",
"164 90 OFFCURVE",
"154 129 OFFCURVE",
"154 248 CURVE SMOOTH",
"154 379 OFFCURVE",
"170 422 OFFCURVE",
"203 422 CURVE SMOOTH",
"210 422 OFFCURVE",
"218 421 OFFCURVE",
"228 416 CURVE"
);
}
);
width = 370;
}
);
leftKerningGroup = g;
rightKerningGroup = g;
},
{
glyphname = f.ss02;
lastChange = "2012-04-30 19:57:06 +0200";
layers = (
{
hints = (
{
horizontal = 1;
place = "{0.000000, 0.000000}";
}
);
layerId = UUID0;
name = Light;
paths = (
{
closed = 1;
nodes = (
"102 476 LINE",
"102 0 LINE",
"116 0 LINE",
"126 0 OFFCURVE",
"126 10 OFFCURVE",
"126 10 CURVE",
"126 476 LINE",
"238 476 LINE SMOOTH",
"248 476 OFFCURVE",
"248 478 OFFCURVE",
"248 500 CURVE",
"126 500 LINE",
"126 623 LINE SMOOTH",
"126 706 OFFCURVE",
"165 714 OFFCURVE",
"201 714 CURVE SMOOTH",
"219 714 OFFCURVE",
"247 710 OFFCURVE",
"259 704 CURVE",
"261 709 OFFCURVE",
"262 713 OFFCURVE",
"262 717 CURVE SMOOTH",
"262 728 OFFCURVE",
"241 737 OFFCURVE",
"203 737 CURVE SMOOTH",
"161 737 OFFCURVE",
"102 726 OFFCURVE",
"102 628 CURVE SMOOTH",
"102 500 LINE",
"27 500 LINE",
"17 500 OFFCURVE",
"17 498 OFFCURVE",
"17 476 CURVE"
);
}
);
width = 241;
},
{
hints = (
{
horizontal = 1;
place = "{0.000000, 0.000000}";
}
);
layerId = UUID1;
name = Bold;
paths = (
{
closed = 1;
nodes = (
"65 407 LINE",
"65 0 LINE",
"157 0 LINE",
"177 0 OFFCURVE",
"177 20 OFFCURVE",
"177 20 CURVE",
"177 407 LINE",
"228 407 LINE SMOOTH",
"247 407 OFFCURVE",
"249 413 OFFCURVE",
"249 500 CURVE",
"177 500 LINE",
"177 599 LINE SMOOTH",
"177 632 OFFCURVE",
"186 646 OFFCURVE",
"214 646 CURVE SMOOTH",
"225 646 OFFCURVE",
"240 643 OFFCURVE",
"254 637 CURVE",
"261 656 OFFCURVE",
"265 681 OFFCURVE",
"265 694 CURVE SMOOTH",
"265 723 OFFCURVE",
"250 740 OFFCURVE",
"185 740 CURVE SMOOTH",
"117 740 OFFCURVE",
"65 712 OFFCURVE",
"65 609 CURVE SMOOTH",
"65 500 LINE",
"32 500 LINE",
"5 500 OFFCURVE",
"5 494 OFFCURVE",
"5 407 CURVE"
);
}
);
width = 257;
}
);
leftKerningGroup = f;
rightKerningGroup = f;
},
{
glyphname = germandbls.ss05;
lastChange = "2012-04-30 19:57:06 +0200";
layers = (
{
hints = (
{
horizontal = 1;
place = "{0.000000, 0.000000}";
}
);
layerId = UUID0;
name = Light;
paths = (
{
closed = 1;
nodes = (
"74 44 LINE",
"74 11 OFFCURVE",
"68 -1 OFFCURVE",
"68 -1 CURVE",
"68 -1 OFFCURVE",
"74 -8 OFFCURVE",
"84 -8 CURVE SMOOTH",
"95 -8 OFFCURVE",
"98 -6 OFFCURVE",
"98 4 CURVE",
"98 572 LINE",
"98 681 OFFCURVE",
"143 712 OFFCURVE",
"230 712 CURVE SMOOTH",
"285 712 OFFCURVE",
"323 693 OFFCURVE",
"338 680 CURVE",
"338 680 OFFCURVE",
"345 693 OFFCURVE",
"345 701 CURVE SMOOTH",
"345 709 OFFCURVE",
"300 736 OFFCURVE",
"235 736 CURVE SMOOTH",
"135 736 OFFCURVE",
"74 704 OFFCURVE",
"74 588 CURVE SMOOTH"
);
},
{
closed = 1;
nodes = (
"418 476 LINE",
"228 228 LINE",
"266 228 OFFCURVE",
"306 226 OFFCURVE",
"340 216 CURVE SMOOTH",
"397 199 OFFCURVE",
"439 162 OFFCURVE",
"439 84 CURVE SMOOTH",
"439 -32 OFFCURVE",
"381 -112 OFFCURVE",
"270 -112 CURVE SMOOTH",
"212 -112 OFFCURVE",
"192 -99 OFFCURVE",
"164 -81 CURVE",
"164 -81 OFFCURVE",
"158 -89 OFFCURVE",
"158 -98 CURVE SMOOTH",
"158 -111 OFFCURVE",
"181 -136 OFFCURVE",
"270 -136 CURVE SMOOTH",
"393 -136 OFFCURVE",
"463 -45 OFFCURVE",
"463 87 CURVE SMOOTH",
"463 212 OFFCURVE",
"352 250 OFFCURVE",
"275 249 CURVE",
"448 476 LINE SMOOTH",
"460 492 OFFCURVE",
"451 500 OFFCURVE",
"451 500 CURVE",
"93 500 LINE SMOOTH",
"86 500 OFFCURVE",
"86 497 OFFCURVE",
"86 476 CURVE"
);
}
);
width = 489;
},
{
hints = (
{
horizontal = 1;
place = "{0.000000, 0.000000}";
}
);
layerId = UUID1;
name = Bold;
paths = (
{
closed = 1;
nodes = (
"31 88 LINE",
"31 49 OFFCURVE",
"22 6 OFFCURVE",
"22 6 CURVE",
"22 6 OFFCURVE",
"35 -8 OFFCURVE",
"78 -8 CURVE SMOOTH",
"127 -8 OFFCURVE",
"144 15 OFFCURVE",
"144 84 CURVE",
"144 526 LINE",
"144 604 OFFCURVE",
"151 639 OFFCURVE",
"210 639 CURVE SMOOTH",
"243 639 OFFCURVE",
"264 635 OFFCURVE",
"303 606 CURVE",
"303 606 OFFCURVE",
"331 653 OFFCURVE",
"331 679 CURVE SMOOTH",
"331 702 OFFCURVE",
"280 735 OFFCURVE",
"213 735 CURVE SMOOTH",
"92 735 OFFCURVE",
"31 693 OFFCURVE",
"31 588 CURVE SMOOTH"
);
},
{
closed = 1;
nodes = (
"297 407 LINE",
"212 197 LINE",
"245 195 OFFCURVE",
"268 188 OFFCURVE",
"287 179 CURVE SMOOTH",
"316 164 OFFCURVE",
"334 138 OFFCURVE",
"334 86 CURVE SMOOTH",
"334 10 OFFCURVE",
"288 -26 OFFCURVE",
"249 -26 CURVE SMOOTH",
"221 -26 OFFCURVE",
"199 -17 OFFCURVE",
"181 0 CURVE",
"164 -28 OFFCURVE",
"155 -60 OFFCURVE",
"155 -81 CURVE SMOOTH",
"155 -103 OFFCURVE",
"181 -133 OFFCURVE",
"260 -133 CURVE SMOOTH",
"392 -133 OFFCURVE",
"456 -27 OFFCURVE",
"456 94 CURVE SMOOTH",
"456 159 OFFCURVE",
"441 225 OFFCURVE",
"361 259 CURVE",
"417 408 LINE SMOOTH",
"440 470 OFFCURVE",
"430 500 OFFCURVE",
"430 500 CURVE",
"113 500 LINE SMOOTH",
"97 500 OFFCURVE",
"97 495 OFFCURVE",
"97 407 CURVE"
);
}
);
width = 471;
}
);
leftKerningGroup = germandbls;
},
{
glyphname = z.ss05;
lastChange = "2012-04-30 19:57:06 +0200";
layers = (
{
anchors = (
{
name = top;
position = "{188, 500}";
}
);
layerId = UUID0;
name = Light;
paths = (
{
closed = 1;
nodes = (
"296 476 LINE",
"106 228 LINE",
"144 228 OFFCURVE",
"184 226 OFFCURVE",
"218 216 CURVE SMOOTH",
"275 199 OFFCURVE",
"317 162 OFFCURVE",
"317 84 CURVE SMOOTH",
"317 -32 OFFCURVE",
"259 -112 OFFCURVE",
"148 -112 CURVE SMOOTH",
"90 -112 OFFCURVE",
"70 -99 OFFCURVE",
"42 -81 CURVE",
"42 -81 OFFCURVE",
"36 -89 OFFCURVE",
"36 -98 CURVE SMOOTH",
"36 -106 OFFCURVE",
"59 -136 OFFCURVE",
"148 -136 CURVE SMOOTH",
"271 -136 OFFCURVE",
"341 -45 OFFCURVE",
"341 87 CURVE SMOOTH",
"341 212 OFFCURVE",
"230 250 OFFCURVE",
"153 249 CURVE",
"326 476 LINE",
"338 492 OFFCURVE",
"329 500 OFFCURVE",
"329 500 CURVE",
"41 500 LINE",
"34 500 OFFCURVE",
"34 497 OFFCURVE",
"34 476 CURVE"
);
}
);
width = 375;
},
{
anchors = (
{
name = top;
position = "{167, 500}";
}
);
layerId = UUID1;
name = Bold;
paths = (
{
closed = 1;
nodes = (
"159 407 LINE",
"74 197 LINE",
"107 195 OFFCURVE",
"130 188 OFFCURVE",
"149 179 CURVE SMOOTH",
"178 164 OFFCURVE",
"196 138 OFFCURVE",
"196 86 CURVE SMOOTH",
"196 10 OFFCURVE",
"150 -26 OFFCURVE",
"111 -26 CURVE SMOOTH",
"83 -26 OFFCURVE",
"61 -17 OFFCURVE",
"43 0 CURVE",
"26 -28 OFFCURVE",
"17 -60 OFFCURVE",
"17 -81 CURVE SMOOTH",
"17 -103 OFFCURVE",
"43 -133 OFFCURVE",
"122 -133 CURVE SMOOTH",
"254 -133 OFFCURVE",
"318 -27 OFFCURVE",
"318 94 CURVE SMOOTH",
"318 159 OFFCURVE",
"303 225 OFFCURVE",
"223 259 CURVE",
"279 408 LINE",
"302 470 OFFCURVE",
"292 500 OFFCURVE",
"292 500 CURVE",
"25 500 LINE",
"9 500 OFFCURVE",
"9 495 OFFCURVE",
"9 407 CURVE"
);
}
);
width = 333;
}
);
leftKerningGroup = z;
rightKerningGroup = z;
},
{
glyphname = f_f;
lastChange = "2012-05-01 19:57:24 +0200";
layers = (
{
hints = (
{
horizontal = 1;
place = "{0.000000, 0.000000}";
}
);
layerId = UUID0;
name = Light;
paths = (
{
closed = 1;
nodes = (
"102 476 LINE",
"102 0 LINE",
"116 0 LINE",
"126 0 OFFCURVE",
"126 10 OFFCURVE",
"126 10 CURVE",
"126 476 LINE",
"284 476 LINE SMOOTH",
"294 476 OFFCURVE",
"294 478 OFFCURVE",
"294 500 CURVE",
"126 500 LINE",
"126 575 LINE SMOOTH",
"126 706 OFFCURVE",
"209 711 OFFCURVE",
"249 711 CURVE SMOOTH",
"294 711 OFFCURVE",
"323 702 OFFCURVE",
"351 677 CURVE",
"368 697 LINE",
"341 718 OFFCURVE",
"300 735 OFFCURVE",
"257 735 CURVE SMOOTH",
"211 735 OFFCURVE",
"102 732 OFFCURVE",
"102 579 CURVE SMOOTH",
"102 500 LINE",
"27 500 LINE",
"17 500 OFFCURVE",
"17 498 OFFCURVE",
"17 476 CURVE"
);
},
{
closed = 1;
nodes = (
"328 476 LINE",
"328 0 LINE",
"342 0 LINE",
"352 0 OFFCURVE",
"352 10 OFFCURVE",
"352 10 CURVE",
"352 476 LINE",
"464 476 LINE SMOOTH",
"474 476 OFFCURVE",
"474 478 OFFCURVE",
"474 500 CURVE",
"352 500 LINE",
"352 563 LINE SMOOTH",
"352 706 OFFCURVE",
"426 716 OFFCURVE",
"483 716 CURVE SMOOTH",
"515 716 OFFCURVE",
"536 712 OFFCURVE",
"560 705 CURVE",
"562 710 OFFCURVE",
"564 712 OFFCURVE",
"564 718 CURVE SMOOTH",
"564 729 OFFCURVE",
"537 740 OFFCURVE",
"485 740 CURVE SMOOTH",
"430 740 OFFCURVE",
"328 732 OFFCURVE",
"328 567 CURVE SMOOTH",
"328 500 LINE",
"273 500 LINE",
"263 500 OFFCURVE",
"263 498 OFFCURVE",
"263 476 CURVE"
);
}
);
width = 466;
},
{
hints = (
{
horizontal = 1;
place = "{0.000000, 0.000000}";
}
);
layerId = UUID1;
name = Bold;
paths = (
{
closed = 1;
nodes = (
"70 407 LINE",
"70 0 LINE",
"162 0 LINE",
"182 0 OFFCURVE",
"182 20 OFFCURVE",
"182 20 CURVE",
"182 407 LINE",
"223 407 LINE SMOOTH",
"242 407 OFFCURVE",
"244 413 OFFCURVE",
"244 500 CURVE",
"182 500 LINE",
"182 579 LINE SMOOTH",
"182 635 OFFCURVE",
"215 640 OFFCURVE",
"233 640 CURVE SMOOTH",
"258 640 OFFCURVE",
"273 634 OFFCURVE",
"287 627 CURVE",
"352 691 LINE",
"323 715 OFFCURVE",
"280 734 OFFCURVE",
"228 734 CURVE SMOOTH",
"163 734 OFFCURVE",
"70 712 OFFCURVE",
"70 564 CURVE SMOOTH",
"70 500 LINE",
"37 500 LINE",
"10 500 OFFCURVE",
"10 494 OFFCURVE",
"10 407 CURVE"
);
},
{
closed = 1;
nodes = (
"260 407 LINE",
"260 0 LINE",
"352 0 LINE",
"372 0 OFFCURVE",
"372 20 OFFCURVE",
"372 20 CURVE",
"372 407 LINE",
"423 407 LINE SMOOTH",
"442 407 OFFCURVE",
"444 413 OFFCURVE",
"444 500 CURVE",
"372 500 LINE",
"372 569 LINE SMOOTH",
"372 625 OFFCURVE",
"405 638 OFFCURVE",
"455 638 CURVE SMOOTH",
"472 638 OFFCURVE",
"498 637 OFFCURVE",
"523 625 CURVE",
"530 644 OFFCURVE",
"534 668 OFFCURVE",
"534 678 CURVE SMOOTH",
"534 721 OFFCURVE",
"507 738 OFFCURVE",
"434 738 CURVE SMOOTH",
"353 738 OFFCURVE",
"260 712 OFFCURVE",
"260 557 CURVE SMOOTH",
"260 500 LINE",
"227 500 LINE",
"200 500 OFFCURVE",
"200 494 OFFCURVE",
"200 407 CURVE"
);
}
);
width = 450;
}
);
leftKerningGroup = f;
rightKerningGroup = f;
},
{
glyphname = f_f_i;
lastChange = "2012-05-01 19:57:28 +0200";
layers = (
{
hints = (
{
horizontal = 1;
place = "{0.000000, 0.000000}";
}
);
layerId = UUID0;
name = Light;
paths = (
{
closed = 1;
nodes = (
"555 500 LINE",
"537 500 OFFCURVE",
"531 500 OFFCURVE",
"531 485 CURVE SMOOTH",
"531 0 LINE",
"556 0 OFFCURVE",
"555 0 OFFCURVE",
"555 10 CURVE SMOOTH"
);
},
{
closed = 1;
nodes = (
"330 476 LINE",
"330 0 LINE",
"344 0 LINE SMOOTH",
"354 0 OFFCURVE",
"354 10 OFFCURVE",
"354 10 CURVE",
"354 476 LINE",
"446 476 LINE SMOOTH",
"456 476 OFFCURVE",
"456 478 OFFCURVE",
"456 500 CURVE",
"354 500 LINE",
"354 563 LINE SMOOTH",
"354 706 OFFCURVE",
"428 716 OFFCURVE",
"485 716 CURVE SMOOTH",
"517 716 OFFCURVE",
"544 711 OFFCURVE",
"568 703 CURVE",
"570 708 OFFCURVE",
"572 713 OFFCURVE",
"572 718 CURVE SMOOTH",
"572 730 OFFCURVE",
"538 740 OFFCURVE",
"487 740 CURVE SMOOTH",
"420 740 OFFCURVE",
"330 732 OFFCURVE",
"330 567 CURVE SMOOTH",
"330 500 LINE",
"255 500 LINE SMOOTH",
"245 500 OFFCURVE",
"245 498 OFFCURVE",
"245 476 CURVE"
);
},
{
closed = 1;
nodes = (
"104 476 LINE",
"104 0 LINE",
"118 0 LINE SMOOTH",
"128 0 OFFCURVE",
"128 10 OFFCURVE",
"128 10 CURVE",
"128 476 LINE",
"286 476 LINE SMOOTH",
"296 476 OFFCURVE",
"296 478 OFFCURVE",
"296 500 CURVE",
"128 500 LINE",
"128 575 LINE SMOOTH",
"128 706 OFFCURVE",
"211 711 OFFCURVE",
"251 711 CURVE SMOOTH",
"296 711 OFFCURVE",
"325 702 OFFCURVE",
"353 677 CURVE",
"370 697 LINE",
"343 718 OFFCURVE",
"302 735 OFFCURVE",
"259 735 CURVE SMOOTH",
"213 735 OFFCURVE",
"104 732 OFFCURVE",
"104 579 CURVE SMOOTH",
"104 500 LINE",
"29 500 LINE SMOOTH",
"19 500 OFFCURVE",
"19 498 OFFCURVE",
"19 476 CURVE"
);
}
);
width = 627;
},
{
hints = (
{
horizontal = 1;
place = "{0.000000, 0.000000}";
}
);
layerId = UUID1;
name = Bold;
paths = (
{
closed = 1;
nodes = (
"562 500 LINE",
"470 500 OFFCURVE",
"448 500 OFFCURVE",
"448 451 CURVE SMOOTH",
"448 0 LINE",
"561 0 OFFCURVE",
"562 0 OFFCURVE",
"562 20 CURVE SMOOTH"
);
},
{
closed = 1;
nodes = (
"255 407 LINE",
"255 0 LINE",
"347 0 LINE SMOOTH",
"367 0 OFFCURVE",
"367 20 OFFCURVE",
"367 20 CURVE",
"367 407 LINE",
"398 407 LINE SMOOTH",
"417 407 OFFCURVE",
"419 413 OFFCURVE",
"419 500 CURVE",
"367 500 LINE",
"367 561 LINE SMOOTH",
"367 628 OFFCURVE",
"400 638 OFFCURVE",
"453 638 CURVE SMOOTH",
"493 638 OFFCURVE",
"539 627 OFFCURVE",
"568 610 CURVE",
"575 629 OFFCURVE",
"579 658 OFFCURVE",
"579 675 CURVE SMOOTH",
"579 718 OFFCURVE",
"534 738 OFFCURVE",
"448 738 CURVE SMOOTH",
"353 738 OFFCURVE",
"255 712 OFFCURVE",
"255 557 CURVE SMOOTH",
"255 500 LINE",
"222 500 LINE SMOOTH",
"195 500 OFFCURVE",
"195 494 OFFCURVE",
"195 407 CURVE"
);
},
{
closed = 1;
nodes = (
"65 407 LINE",
"65 0 LINE",
"157 0 LINE SMOOTH",
"177 0 OFFCURVE",
"177 20 OFFCURVE",
"177 20 CURVE",
"177 407 LINE",
"218 407 LINE SMOOTH",
"237 407 OFFCURVE",
"239 413 OFFCURVE",
"239 500 CURVE",
"177 500 LINE",
"177 579 LINE SMOOTH",
"177 635 OFFCURVE",
"210 640 OFFCURVE",
"228 640 CURVE SMOOTH",
"253 640 OFFCURVE",
"268 634 OFFCURVE",
"282 627 CURVE",
"347 691 LINE",
"318 715 OFFCURVE",
"275 734 OFFCURVE",
"223 734 CURVE SMOOTH",
"158 734 OFFCURVE",
"65 712 OFFCURVE",
"65 564 CURVE SMOOTH",
"65 500 LINE",
"32 500 LINE SMOOTH",
"5 500 OFFCURVE",
"5 494 OFFCURVE",
"5 407 CURVE"
);
}
);
width = 594;
}
);
leftKerningGroup = f;
},
{
glyphname = f_f_l;
lastChange = "2012-05-01 19:57:32 +0200";
layers = (
{
hints = (
{
horizontal = 1;
place = "{0.000000, 0.000000}";
}
);
layerId = UUID0;
name = Light;
paths = (
{
closed = 1;
nodes = (
"330 476 LINE",
"330 0 LINE",
"344 0 LINE SMOOTH",
"354 0 OFFCURVE",
"354 10 OFFCURVE",
"354 10 CURVE",
"354 476 LINE",
"446 476 LINE SMOOTH",
"456 476 OFFCURVE",
"456 478 OFFCURVE",
"456 500 CURVE",
"354 500 LINE",
"354 570 LINE SMOOTH",
"354 713 OFFCURVE",
"416 715 OFFCURVE",
"470 715 CURVE SMOOTH",
"520 715 OFFCURVE",
"547 701 OFFCURVE",
"547 701 CURVE",
"565 719 LINE",
"548 728 OFFCURVE",
"516 739 OFFCURVE",
"470 739 CURVE SMOOTH",
"410 739 OFFCURVE",
"330 732 OFFCURVE",
"330 567 CURVE SMOOTH",
"330 500 LINE",
"275 500 LINE SMOOTH",
"265 500 OFFCURVE",
"265 498 OFFCURVE",
"265 476 CURVE"
);
},
{
closed = 1;
nodes = (
"565 719 LINE",
"541 716 LINE",
"541 0 LINE",
"567 0 OFFCURVE",
"565 0 OFFCURVE",
"565 10 CURVE"
);
},
{
closed = 1;
nodes = (
"104 476 LINE",
"104 0 LINE",
"118 0 LINE SMOOTH",
"128 0 OFFCURVE",
"128 10 OFFCURVE",
"128 10 CURVE",
"128 476 LINE",
"286 476 LINE SMOOTH",
"296 476 OFFCURVE",
"296 478 OFFCURVE",
"296 500 CURVE",
"128 500 LINE",
"128 575 LINE SMOOTH",
"128 706 OFFCURVE",
"211 711 OFFCURVE",
"251 711 CURVE SMOOTH",
"296 711 OFFCURVE",
"325 702 OFFCURVE",
"353 677 CURVE",
"370 697 LINE",
"343 718 OFFCURVE",
"302 735 OFFCURVE",
"259 735 CURVE SMOOTH",
"213 735 OFFCURVE",
"104 732 OFFCURVE",
"104 579 CURVE SMOOTH",
"104 500 LINE",
"29 500 LINE SMOOTH",
"19 500 OFFCURVE",
"19 498 OFFCURVE",
"19 476 CURVE"
);
}
);
width = 636;
},
{
hints = (
{
horizontal = 1;
place = "{0.000000, 0.000000}";
}
);
layerId = UUID1;
name = Bold;
paths = (
{
closed = 1;
nodes = (
"255 407 LINE",
"255 0 LINE",
"347 0 LINE SMOOTH",
"367 0 OFFCURVE",
"367 20 OFFCURVE",
"367 20 CURVE",
"367 407 LINE",
"397 407 LINE SMOOTH",
"416 407 OFFCURVE",
"418 413 OFFCURVE",
"418 500 CURVE",
"367 500 LINE",
"367 573 LINE SMOOTH",
"367 629 OFFCURVE",
"400 639 OFFCURVE",
"430 639 CURVE SMOOTH",
"469 639 OFFCURVE",
"487 621 OFFCURVE",
"487 621 CURVE",
"572 698 LINE",
"543 716 OFFCURVE",
"492 739 OFFCURVE",
"421 739 CURVE SMOOTH",
"357 739 OFFCURVE",
"255 712 OFFCURVE",
"255 557 CURVE SMOOTH",
"255 500 LINE",
"222 500 LINE SMOOTH",
"195 500 OFFCURVE",
"195 494 OFFCURVE",
"195 407 CURVE"
);
},
{
closed = 1;
nodes = (
"572 697 LINE",
"460 690 LINE",
"460 0 LINE",
"572 0 OFFCURVE",
"572 0 OFFCURVE",
"572 20 CURVE"
);
},
{
closed = 1;
nodes = (
"65 407 LINE",
"65 0 LINE",
"157 0 LINE SMOOTH",
"177 0 OFFCURVE",
"177 20 OFFCURVE",
"177 20 CURVE",
"177 407 LINE",
"218 407 LINE SMOOTH",
"237 407 OFFCURVE",
"239 413 OFFCURVE",
"239 500 CURVE",
"177 500 LINE",
"177 579 LINE SMOOTH",
"177 635 OFFCURVE",
"210 640 OFFCURVE",
"228 640 CURVE SMOOTH",
"253 640 OFFCURVE",
"268 634 OFFCURVE",
"282 627 CURVE",
"347 691 LINE",
"318 715 OFFCURVE",
"275 734 OFFCURVE",
"223 734 CURVE SMOOTH",
"158 734 OFFCURVE",
"65 712 OFFCURVE",
"65 564 CURVE SMOOTH",
"65 500 LINE",
"32 500 LINE SMOOTH",
"5 500 OFFCURVE",
"5 494 OFFCURVE",
"5 407 CURVE"
);
}
);
width = 605;
}
);
leftKerningGroup = f;
},
{
glyphname = t_z.ss05;
lastChange = "2012-04-30 19:57:06 +0200";
layers = (
{
anchors = (
{
name = bottom;
position = "{266, 0}";
},
{
name = center;
position = "{266, 250}";
}
);
hints = (
{
horizontal = 1;
place = "{0.000000, 0.000000}";
},
{
horizontal = 1;
place = "{0.000000, 0.000000}";
}
);
layerId = UUID0;
name = Light;
paths = (
{
closed = 1;
nodes = (
"113 0 LINE",
"137 0 OFFCURVE",
"137 0 OFFCURVE",
"137 17 CURVE",
"137 476 LINE",
"272 476 LINE SMOOTH",
"278 476 OFFCURVE",
"278 479 OFFCURVE",
"278 500 CURVE",
"137 500 LINE",
"137 680 LINE",
"115 680 OFFCURVE",
"113 680 OFFCURVE",
"113 665 CURVE SMOOTH",
"113 500 LINE",
"8 500 LINE SMOOTH",
"1 500 OFFCURVE",
"0 497 OFFCURVE",
"0 476 CURVE",
"113 476 LINE"
);
},
{
closed = 1;
nodes = (
"455 476 LINE",
"265 228 LINE",
"303 228 OFFCURVE",
"343 226 OFFCURVE",
"377 216 CURVE SMOOTH",
"434 199 OFFCURVE",
"476 162 OFFCURVE",
"476 84 CURVE SMOOTH",
"476 -32 OFFCURVE",
"418 -112 OFFCURVE",
"307 -112 CURVE SMOOTH",
"249 -112 OFFCURVE",
"229 -99 OFFCURVE",
"201 -81 CURVE",
"201 -81 OFFCURVE",
"195 -89 OFFCURVE",
"195 -98 CURVE SMOOTH",
"195 -106 OFFCURVE",
"218 -136 OFFCURVE",
"307 -136 CURVE SMOOTH",
"430 -136 OFFCURVE",
"500 -45 OFFCURVE",
"500 87 CURVE SMOOTH",
"500 212 OFFCURVE",
"389 250 OFFCURVE",
"312 249 CURVE",
"485 476 LINE SMOOTH",
"497 492 OFFCURVE",
"488 500 OFFCURVE",
"488 500 CURVE",
"150 500 LINE SMOOTH",
"143 500 OFFCURVE",
"143 497 OFFCURVE",
"143 476 CURVE"
);
}
);
width = 532;
},
{
anchors = (
{
name = bottom;
position = "{247, 0}";
},
{
name = center;
position = "{247, 250}";
}
);
hints = (
{
horizontal = 1;
place = "{0.000000, 0.000000}";
},
{
horizontal = 1;
place = "{0.000000, 0.000000}";
}
);
layerId = UUID1;
name = Bold;
paths = (
{
closed = 1;
nodes = (
"69 0 LINE",
"179 0 OFFCURVE",
"181 0 OFFCURVE",
"181 27 CURVE",
"181 405 LINE",
"241 405 LINE SMOOTH",
"262 405 OFFCURVE",
"263 414 OFFCURVE",
"263 500 CURVE",
"181 500 LINE",
"181 680 LINE",
"91 680 OFFCURVE",
"69 680 OFFCURVE",
"69 645 CURVE SMOOTH",
"69 500 LINE",
"32 500 LINE SMOOTH",
"10 500 OFFCURVE",
"9 490 OFFCURVE",
"9 405 CURVE",
"69 405 LINE"
);
},
{
closed = 1;
nodes = (
"319 405 LINE",
"234 197 LINE",
"267 195 OFFCURVE",
"290 188 OFFCURVE",
"309 179 CURVE SMOOTH",
"338 164 OFFCURVE",
"356 138 OFFCURVE",
"356 86 CURVE SMOOTH",
"356 10 OFFCURVE",
"325 -26 OFFCURVE",
"286 -26 CURVE SMOOTH",
"271 -26 OFFCURVE",
"255 -26 OFFCURVE",
"233 -10 CURVE",
"216 -38 OFFCURVE",
"207 -70 OFFCURVE",
"207 -91 CURVE SMOOTH",
"207 -113 OFFCURVE",
"233 -133 OFFCURVE",
"294 -133 CURVE SMOOTH",
"428 -133 OFFCURVE",
"478 -27 OFFCURVE",
"478 94 CURVE SMOOTH",
"478 159 OFFCURVE",
"463 225 OFFCURVE",
"383 259 CURVE",
"439 408 LINE SMOOTH",
"462 470 OFFCURVE",
"452 500 OFFCURVE",
"452 500 CURVE",
"185 500 LINE SMOOTH",
"169 500 OFFCURVE",
"169 493 OFFCURVE",
"169 405 CURVE"
);
}
);
width = 493;
}
);
leftKerningGroup = t;
rightKerningGroup = t;
},
{
glyphname = "Be-cy";
lastChange = "2012-04-30 13:16:52 +0200";
layers = (
{
layerId = UUID0;
name = Light;
paths = (
{
closed = 1;
nodes = (
"92 379 LINE",
"92 379 OFFCURVE",
"185 382 OFFCURVE",
"194 382 CURVE SMOOTH",
"284 382 OFFCURVE",
"356 337 OFFCURVE",
"356 221 CURVE SMOOTH",
"356 58 OFFCURVE",
"274 24 OFFCURVE",
"193 24 CURVE SMOOTH",
"184 24 OFFCURVE",
"92 25 OFFCURVE",
"92 25 CURVE"
);
},
{
closed = 1;
nodes = (
"92 676 LINE",
"332 676 LINE SMOOTH",
"337 676 OFFCURVE",
"337 680 OFFCURVE",
"337 700 CURVE",
"78 700 LINE SMOOTH",
"68 700 OFFCURVE",
"68 690 OFFCURVE",
"68 690 CURVE",
"68 0 LINE",
"189 0 LINE",
"291 0 OFFCURVE",
"379 63 OFFCURVE",
"379 212 CURVE SMOOTH",
"379 336 OFFCURVE",
"316 402 OFFCURVE",
"196 402 CURVE",
"92 402 LINE"
);
}
);
width = 409;
},
{
layerId = UUID1;
name = Bold;
paths = (
{
closed = 1;
nodes = (
"144 328 LINE",
"144 328 OFFCURVE",
"152 330 OFFCURVE",
"166 330 CURVE SMOOTH",
"197 330 OFFCURVE",
"214 311 OFFCURVE",
"214 234 CURVE SMOOTH",
"214 146 OFFCURVE",
"195 97 OFFCURVE",
"164 97 CURVE SMOOTH",
"151 97 OFFCURVE",
"144 99 OFFCURVE",
"144 99 CURVE"
);
},
{
closed = 1;
nodes = (
"144 605 LINE",
"294 605 LINE SMOOTH",
"314 605 OFFCURVE",
"314 610 OFFCURVE",
"314 700 CURVE",
"50 700 LINE SMOOTH",
"31 700 OFFCURVE",
"30 680 OFFCURVE",
"30 680 CURVE",
"30 0 LINE",
"165 0 LINE",
"270 0 OFFCURVE",
"347 72 OFFCURVE",
"347 230 CURVE SMOOTH",
"347 368 OFFCURVE",
"296 435 OFFCURVE",
"172 435 CURVE",
"144 435 LINE"
);
}
);
width = 357;
}
);
unicode = 0411;
},
{
glyphname = "Ge-cy";
lastChange = "2012-04-30 19:57:41 +0200";
layers = (
{
anchors = (
{
name = top;
position = "{174, 700}";
}
);
layerId = UUID0;
name = Light;
paths = (
{
closed = 1;
nodes = (
"85 0 LINE SMOOTH",
"95 0 OFFCURVE",
"95 10 OFFCURVE",
"95 10 CURVE",
"95 676 LINE",
"326 676 LINE",
"331 676 OFFCURVE",
"331 680 OFFCURVE",
"331 700 CURVE",
"81 700 LINE",
"71 700 OFFCURVE",
"71 690 OFFCURVE",
"71 690 CURVE",
"71 0 LINE"
);
}
);
width = 347;
},
{
anchors = (
{
name = top;
position = "{156, 700}";
}
);
layerId = UUID1;
name = Bold;
paths = (
{
closed = 1;
nodes = (
"124 0 LINE SMOOTH",
"142 0 OFFCURVE",
"142 20 OFFCURVE",
"142 20 CURVE",
"142 605 LINE",
"288 605 LINE",
"308 605 OFFCURVE",
"308 610 OFFCURVE",
"308 700 CURVE",
"50 700 LINE",
"31 700 OFFCURVE",
"30 680 OFFCURVE",
"30 680 CURVE",
"30 0 LINE"
);
}
);
width = 311;
}
);
unicode = 0413;
},
{
glyphname = "De-cy";
lastChange = "2012-05-01 19:46:53 +0200";
layers = (
{
layerId = UUID0;
name = Light;
paths = (
{
closed = 1;
nodes = (
"151 156 OFFCURVE",
"168 323 OFFCURVE",
"176 690 CURVE SMOOTH",
"176 700 OFFCURVE",
"186 700 OFFCURVE",
"228 700 CURVE SMOOTH",
"445 700 LINE",
"445 24 LINE",
"501 24 LINE",
"501 -156 LINE SMOOTH",
"501 -159 OFFCURVE",
"484 -159 OFFCURVE",
"485 -159 CURVE",
"476 -92 OFFCURVE",
"474 -24 OFFCURVE",
"475 0 CURVE",
"51 0 LINE",
"51 -55 OFFCURVE",
"48 -135 OFFCURVE",
"44 -152 CURVE SMOOTH",
"43 -157 OFFCURVE",
"33 -159 OFFCURVE",
"27 -159 CURVE",
"27 14 LINE SMOOTH",
"27 24 OFFCURVE",
"63 24 OFFCURVE",
"82 24 CURVE"
);
},
{
closed = 1;
nodes = (
"422 24 LINE",
"422 677 LINE",
"200 677 LINE",
"190 321 OFFCURVE",
"173 149 OFFCURVE",
"107 24 CURVE"
);
}
);
width = 557;
},
{
layerId = UUID1;
name = Bold;
paths = (
{
closed = 1;
nodes = (
"96 197 OFFCURVE",
"109 365 OFFCURVE",
"119 680 CURVE SMOOTH",
"119 700 OFFCURVE",
"117 700 OFFCURVE",
"231 700 CURVE SMOOTH",
"393 700 LINE",
"393 105 LINE",
"435 105 LINE",
"435 -115 LINE SMOOTH",
"435 -147 OFFCURVE",
"412 -147 OFFCURVE",
"357 -147 CURVE",
"345 -106 OFFCURVE",
"331 -64 OFFCURVE",
"324 0 CURVE",
"115 0 LINE",
"108 -65 OFFCURVE",
"102 -92 OFFCURVE",
"91 -120 CURVE SMOOTH",
"81 -145 OFFCURVE",
"59 -147 OFFCURVE",
"5 -147 CURVE",
"5 85 LINE SMOOTH",
"5 106 OFFCURVE",
"16 104 OFFCURVE",
"49 105 CURVE"
);
},
{
closed = 1;
nodes = (
"283 105 LINE",
"283 595 LINE",
"227 595 LINE",
"218 372 OFFCURVE",
"203 223 OFFCURVE",
"161 105 CURVE"
);
}
);
width = 450;
}
);
unicode = 0414;
},
{
glyphname = "Zhe-cy";
lastChange = "2012-05-01 19:38:26 +0200";
layers = (
{
layerId = UUID0;
name = Light;
paths = (
{
closed = 1;
nodes = (
"45 699 LINE",
"45 699 OFFCURVE",
"38 700 OFFCURVE",
"30 700 CURVE SMOOTH",
"21 700 OFFCURVE",
"21 694 OFFCURVE",
"28 685 CURVE SMOOTH",
"260 383 LINE",
"111 308 OFFCURVE",
"21 13 OFFCURVE",
"21 13 CURVE",
"18 3 OFFCURVE",
"21 -1 OFFCURVE",
"24 -1 CURVE SMOOTH",
"30 -1 OFFCURVE",
"35 -1 OFFCURVE",
"39 0 CURVE",
"43 15 OFFCURVE",
"128 299 OFFCURVE",
"280 367 CURVE",
"280 0 LINE",
"304 0 OFFCURVE",
"304 0 OFFCURVE",
"304 10 CURVE SMOOTH",
"304 367 LINE",
"454 299 OFFCURVE",
"542 13 OFFCURVE",
"545 0 CURVE",
"551 -1 OFFCURVE",
"554 -1 OFFCURVE",
"559 -1 CURVE SMOOTH",
"563 -1 OFFCURVE",
"565 3 OFFCURVE",
"562 13 CURVE",
"562 13 OFFCURVE",
"472 308 OFFCURVE",
"324 384 CURVE",
"556 685 LINE SMOOTH",
"563 694 OFFCURVE",
"562 700 OFFCURVE",
"553 700 CURVE SMOOTH",
"545 700 OFFCURVE",
"538 699 OFFCURVE",
"539 699 CURVE",
"304 393 LINE",
"304 700 LINE",
"280 700 OFFCURVE",
"280 700 OFFCURVE",
"280 690 CURVE SMOOTH",
"280 393 LINE"
);
}
);
width = 583;
},
{
layerId = UUID1;
name = Bold;
paths = (
{
closed = 1;
nodes = (
"134 693 LINE",
"108 699 OFFCURVE",
"69 699 OFFCURVE",
"53 699 CURVE SMOOTH",
"25 699 OFFCURVE",
"10 693 OFFCURVE",
"17 673 CURVE SMOOTH",
"121 401 LINE",
"7 268 OFFCURVE",
"23 21 OFFCURVE",
"23 21 CURVE",
"23 3 OFFCURVE",
"30 -2 OFFCURVE",
"56 -2 CURVE SMOOTH",
"93 -2 OFFCURVE",
"119 -2 OFFCURVE",
"147 0 CURVE",
"147 111 OFFCURVE",
"151 291 OFFCURVE",
"238 330 CURVE",
"238 0 LINE",
"352 0 OFFCURVE",
"352 0 OFFCURVE",
"352 20 CURVE SMOOTH",
"352 330 LINE",
"439 291 OFFCURVE",
"444 111 OFFCURVE",
"444 0 CURVE",
"471 -2 OFFCURVE",
"497 -2 OFFCURVE",
"534 -2 CURVE SMOOTH",
"561 -2 OFFCURVE",
"567 3 OFFCURVE",
"567 21 CURVE",
"567 21 OFFCURVE",
"583 268 OFFCURVE",
"469 401 CURVE",
"573 673 LINE SMOOTH",
"581 693 OFFCURVE",
"566 699 OFFCURVE",
"537 699 CURVE SMOOTH",
"522 699 OFFCURVE",
"483 699 OFFCURVE",
"457 693 CURVE",
"352 413 LINE",
"352 700 LINE",
"238 700 OFFCURVE",
"238 700 OFFCURVE",
"238 680 CURVE SMOOTH",
"238 413 LINE"
);
}
);
width = 590;
}
);
leftKerningGroup = X;
rightKerningGroup = X;
unicode = 0416;
},
{
glyphname = "Ze-cy";
lastChange = "2012-04-30 13:15:44 +0200";
layers = (
{
anchors = (
{
name = bottom;
position = "{170, 0}";
},
{
name = top;
position = "{170, 700}";
}
);
layerId = UUID0;
name = Light;
paths = (
{
closed = 1;
nodes = (
"88 354 LINE",
"182 354 OFFCURVE",
"279 325 OFFCURVE",
"279 190 CURVE SMOOTH",
"279 61 OFFCURVE",
"217 16 OFFCURVE",
"144 16 CURVE SMOOTH",
"83 16 OFFCURVE",
"47 54 OFFCURVE",
"37 73 CURVE",
"33 68 OFFCURVE",
"30 58 OFFCURVE",
"30 50 CURVE SMOOTH",
"30 26 OFFCURVE",
"79 -10 OFFCURVE",
"147 -10 CURVE SMOOTH",
"229 -10 OFFCURVE",
"307 43 OFFCURVE",
"307 193 CURVE SMOOTH",
"307 322 OFFCURVE",
"218 353 OFFCURVE",
"206 356 CURVE SMOOTH",
"193 360 OFFCURVE",
"181 362 OFFCURVE",
"168 365 CURVE",
"182 365 OFFCURVE",
"196 371 OFFCURVE",
"211 382 CURVE SMOOTH",
"258 417 OFFCURVE",
"284 468 OFFCURVE",
"284 562 CURVE SMOOTH",
"284 658 OFFCURVE",
"233 710 OFFCURVE",
"147 710 CURVE SMOOTH",
"72 710 OFFCURVE",
"37 675 OFFCURVE",
"37 668 CURVE SMOOTH",
"37 662 OFFCURVE",
"38 654 OFFCURVE",
"43 650 CURVE",
"57 662 OFFCURVE",
"84 686 OFFCURVE",
"143 686 CURVE SMOOTH",
"216 686 OFFCURVE",
"259 641 OFFCURVE",
"259 556 CURVE SMOOTH",
"259 423 OFFCURVE",
"187 370 OFFCURVE",
"88 370 CURVE"
);
}
);
width = 339;
},
{
anchors = (
{
name = bottom;
position = "{161, 0}";
},
{
name = top;
position = "{161, 700}";
}
);
layerId = UUID1;
name = Bold;
paths = (
{
closed = 1;
nodes = (
"61 316 LINE",
"131 315 OFFCURVE",
"192 303 OFFCURVE",
"192 228 CURVE SMOOTH",
"192 135 OFFCURVE",
"148 104 OFFCURVE",
"112 104 CURVE SMOOTH",
"80 104 OFFCURVE",
"55 119 OFFCURVE",
"31 144 CURVE",
"22 120 OFFCURVE",
"11 87 OFFCURVE",
"11 61 CURVE SMOOTH",
"11 21 OFFCURVE",
"55 -14 OFFCURVE",
"121 -14 CURVE SMOOTH",
"216 -14 OFFCURVE",
"311 49 OFFCURVE",
"311 231 CURVE SMOOTH",
"311 321 OFFCURVE",
"266 359 OFFCURVE",
"232 373 CURVE SMOOTH",
"225 376 OFFCURVE",
"215 378 OFFCURVE",
"202 378 CURVE",
"223 381 OFFCURVE",
"230 389 OFFCURVE",
"236 393 CURVE SMOOTH",
"264 412 OFFCURVE",
"296 455 OFFCURVE",
"296 554 CURVE SMOOTH",
"296 655 OFFCURVE",
"238 714 OFFCURVE",
"140 714 CURVE SMOOTH",
"47 714 OFFCURVE",
"10 673 OFFCURVE",
"10 652 CURVE SMOOTH",
"10 626 OFFCURVE",
"19 600 OFFCURVE",
"32 576 CURVE",
"53 594 OFFCURVE",
"82 607 OFFCURVE",
"117 607 CURVE SMOOTH",
"151 607 OFFCURVE",
"178 587 OFFCURVE",
"178 528 CURVE SMOOTH",
"178 422 OFFCURVE",
"124 414 OFFCURVE",
"61 406 CURVE"
);
}
);
width = 321;
}
);
unicode = 0417;
},
{
glyphname = "Ii-cy";
lastChange = "2012-04-30 21:54:05 +0200";
layers = (
{
anchors = (
{
name = top;
position = "{245, 750}";
}
);
layerId = UUID0;
name = Light;
paths = (
{
closed = 1;
nodes = (
"221 288 LINE SMOOTH",
"295 456 OFFCURVE",
"352 585 OFFCURVE",
"387 676 CURVE",
"380 557 OFFCURVE",
"378 461 OFFCURVE",
"378 257 CURVE SMOOTH",
"378 0 LINE",
"402 0 OFFCURVE",
"402 0 OFFCURVE",
"402 10 CURVE SMOOTH",
"402 700 LINE",
"396 700 OFFCURVE",
"383 702 OFFCURVE",
"375 691 CURVE",
"252 418 LINE SMOOTH",
"168 225 OFFCURVE",
"112 104 OFFCURVE",
"87 32 CURVE",
"91 104 OFFCURVE",
"92 157 OFFCURVE",
"92 245 CURVE SMOOTH",
"92 700 LINE",
"68 700 OFFCURVE",
"68 700 OFFCURVE",
"68 690 CURVE SMOOTH",
"68 0 LINE",
"73 0 OFFCURVE",
"89 -3 OFFCURVE",
"95 9 CURVE SMOOTH"
);
}
);
width = 470;
},
{
anchors = (
{
name = top;
position = "{223, 750}";
}
);
layerId = UUID1;
name = Bold;
paths = (
{
closed = 1;
nodes = (
"244 268 LINE",
"259 302 OFFCURVE",
"291 434 OFFCURVE",
"303 486 CURVE",
"296 426 OFFCURVE",
"289 301 OFFCURVE",
"289 257 CURVE SMOOTH",
"289 0 LINE",
"403 0 OFFCURVE",
"401 0 OFFCURVE",
"401 20 CURVE SMOOTH",
"401 700 LINE",
"293 700 OFFCURVE",
"292 700 OFFCURVE",
"281 673 CURVE",
"185 429 LINE",
"176 404 OFFCURVE",
"148 294 OFFCURVE",
"131 232 CURVE",
"136 294 OFFCURVE",
"143 396 OFFCURVE",
"143 437 CURVE SMOOTH",
"143 700 LINE",
"29 700 OFFCURVE",
"31 700 OFFCURVE",
"31 680 CURVE SMOOTH",
"31 0 LINE",
"140 0 OFFCURVE",
"138 0 OFFCURVE",
"149 27 CURVE SMOOTH"
);
}
);
width = 432;
}
);
unicode = 0418;
},
{
glyphname = "El-cy";
lastChange = "2012-05-01 19:46:44 +0200";
layers = (
{
layerId = UUID0;
name = Light;
paths = (
{
closed = 1;
nodes = (
"170 700 OFFCURVE",
"172 700 OFFCURVE",
"195 700 CURVE SMOOTH",
"428 700 LINE",
"428 10 LINE SMOOTH",
"428 0 OFFCURVE",
"426 0 OFFCURVE",
"404 0 CURVE",
"404 676 LINE",
"195 676 LINE",
"178 273 OFFCURVE",
"163 -5 OFFCURVE",
"69 -5 CURVE SMOOTH",
"40 -5 OFFCURVE",
"12 0 OFFCURVE",
"12 11 CURVE SMOOTH",
"12 19 OFFCURVE",
"15 26 OFFCURVE",
"18 30 CURVE",
"31 25 OFFCURVE",
"51 22 OFFCURVE",
"65 22 CURVE SMOOTH",
"136 22 OFFCURVE",
"158 300 OFFCURVE",
"170 690 CURVE SMOOTH"
);
}
);
width = 495;
},
{
layerId = UUID1;
name = Bold;
paths = (
{
closed = 1;
nodes = (
"136 700 OFFCURVE",
"134 700 OFFCURVE",
"248 700 CURVE SMOOTH",
"420 700 LINE",
"420 20 LINE SMOOTH",
"420 0 OFFCURVE",
"422 0 OFFCURVE",
"308 0 CURVE",
"308 595 LINE",
"245 595 LINE",
"222 166 OFFCURVE",
"210 -5 OFFCURVE",
"78 -5 CURVE SMOOTH",
"46 -5 OFFCURVE",
"-1 7 OFFCURVE",
"-1 33 CURVE SMOOTH",
"-1 61 OFFCURVE",
"6 91 OFFCURVE",
"15 110 CURVE",
"27 103 OFFCURVE",
"48 101 OFFCURVE",
"59 101 CURVE SMOOTH",
"118 101 OFFCURVE",
"131 381 OFFCURVE",
"136 680 CURVE SMOOTH"
);
}
);
width = 451;
}
);
unicode = 041B;
},
{
glyphname = "Pe-cy";
lastChange = "2012-04-30 12:46:37 +0200";
layers = (
{
layerId = UUID0;
name = Light;
paths = (
{
closed = 1;
nodes = (
"357 0 LINE",
"380 0 OFFCURVE",
"381 0 OFFCURVE",
"381 10 CURVE",
"381 700 LINE",
"92 700 LINE",
"69 700 OFFCURVE",
"68 700 OFFCURVE",
"68 690 CURVE",
"68 0 LINE",
"91 0 OFFCURVE",
"92 0 OFFCURVE",
"92 10 CURVE",
"92 676 LINE",
"357 676 LINE"
);
}
);
width = 449;
},
{
layerId = UUID1;
name = Bold;
paths = (
{
closed = 1;
nodes = (
"237 0 LINE",
"348 0 OFFCURVE",
"349 0 OFFCURVE",
"349 20 CURVE",
"349 700 LINE",
"143 700 LINE",
"33 700 OFFCURVE",
"31 700 OFFCURVE",
"31 680 CURVE",
"31 0 LINE",
"142 0 OFFCURVE",
"143 0 OFFCURVE",
"143 20 CURVE",
"143 595 LINE",
"237 595 LINE"
);
}
);
width = 380;
}
);
unicode = 041F;
},
{
glyphname = "U-cy";
lastChange = "2012-05-01 19:36:47 +0200";
layers = (
{
anchors = (
{
name = top;
position = "{183, 700}";
}
);
layerId = UUID0;
name = Light;
paths = (
{
closed = 1;
nodes = (
"134 303 OFFCURVE",
"87 442 OFFCURVE",
"27 632 CURVE SMOOTH",
"19 655 OFFCURVE",
"10 683 OFFCURVE",
"10 690 CURVE SMOOTH",
"10 698 OFFCURVE",
"14 700 OFFCURVE",
"24 700 CURVE SMOOTH",
"37 700 LINE",
"109 471 LINE SMOOTH",
"136 384 OFFCURVE",
"159 322 OFFCURVE",
"202 149 CURVE",
"232 291 OFFCURVE",
"246 352 OFFCURVE",
"260 409 CURVE SMOOTH",
"303 580 LINE SMOOTH",
"312 618 OFFCURVE",
"322 659 OFFCURVE",
"330 700 CURVE",
"327 700 OFFCURVE",
"324 699 OFFCURVE",
"361 700 CURVE",
"312 504 OFFCURVE",
"275 362 OFFCURVE",
"228 169 CURVE SMOOTH",
"206 81 OFFCURVE",
"193 -3 OFFCURVE",
"131 -3 CURVE SMOOTH",
"100 -3 OFFCURVE",
"85 4 OFFCURVE",
"82 11 CURVE SMOOTH",
"80 16 OFFCURVE",
"83 27 OFFCURVE",
"89 32 CURVE",
"98 29 OFFCURVE",
"112 23 OFFCURVE",
"130 23 CURVE SMOOTH",
"160 23 OFFCURVE",
"180 53 OFFCURVE",
"189 122 CURVE"
);
}
);
width = 365;
},
{
anchors = (
{
name = top;
position = "{188, 700}";
}
);
background = {
paths = (
{
closed = 1;
nodes = (
"121 226 OFFCURVE",
"9 664 OFFCURVE",
"7 674 CURVE SMOOTH",
"6 678 OFFCURVE",
"4 685 OFFCURVE",
"8 690 CURVE",
"12 695 OFFCURVE",
"20 700 OFFCURVE",
"37 700 CURVE SMOOTH",
"117 700 LINE",
"159 519 LINE SMOOTH",
"173 421 OFFCURVE",
"191 332 OFFCURVE",
"199 266 CURVE",
"200 331 OFFCURVE",
"213 421 OFFCURVE",
"229 519 CURVE SMOOTH",
"253 663 LINE SMOOTH",
"258 688 OFFCURVE",
"264 700 OFFCURVE",
"290 700 CURVE",
"317 700 OFFCURVE",
"343 700 OFFCURVE",
"370 700 CURVE",
"370 688 OFFCURVE",
"273 204 OFFCURVE",
"262 155 CURVE SMOOTH",
"243 58 OFFCURVE",
"230 -6 OFFCURVE",
"152 -5 CURVE SMOOTH",
"108 -6 OFFCURVE",
"67 10 OFFCURVE",
"63 32 CURVE SMOOTH",
"58 58 OFFCURVE",
"73 93 OFFCURVE",
"82 112 CURVE",
"98 103 OFFCURVE",
"121 94 OFFCURVE",
"131 94 CURVE SMOOTH",
"147 94 OFFCURVE",
"154 117 OFFCURVE",
"157 141 CURVE"
);
}
);
};
layerId = UUID1;
name = Bold;
paths = (
{
closed = 1;
nodes = (
"127 212 OFFCURVE",
"44 526 OFFCURVE",
"16 641 CURVE SMOOTH",
"10 664 OFFCURVE",
"7 676 OFFCURVE",
"7 684 CURVE SMOOTH",
"7 697 OFFCURVE",
"17 700 OFFCURVE",
"37 700 CURVE SMOOTH",
"117 700 LINE",
"159 519 LINE SMOOTH",
"173 421 OFFCURVE",
"191 332 OFFCURVE",
"199 266 CURVE",
"200 331 OFFCURVE",
"213 421 OFFCURVE",
"229 519 CURVE SMOOTH",
"253 663 LINE SMOOTH",
"258 688 OFFCURVE",
"264 700 OFFCURVE",
"290 700 CURVE",
"317 700 OFFCURVE",
"343 700 OFFCURVE",
"370 700 CURVE",
"370 688 OFFCURVE",
"273 204 OFFCURVE",
"262 155 CURVE SMOOTH",
"243 58 OFFCURVE",
"230 -6 OFFCURVE",
"152 -5 CURVE SMOOTH",
"108 -6 OFFCURVE",
"67 10 OFFCURVE",
"63 32 CURVE SMOOTH",
"58 58 OFFCURVE",
"73 93 OFFCURVE",
"82 112 CURVE",
"98 103 OFFCURVE",
"121 94 OFFCURVE",
"131 94 CURVE SMOOTH",
"147 94 OFFCURVE",
"154 117 OFFCURVE",
"157 141 CURVE"
);
}
);
width = 375;
}
);
unicode = 0423;
},
{
glyphname = "Ef-cy";
lastChange = "2012-04-30 21:20:24 +0200";
layers = (
{
layerId = UUID0;
name = Light;
paths = (
{
closed = 1;
nodes = (
"310 -10 OFFCURVE",
"310 -10 OFFCURVE",
"310 0 CURVE",
"310 62 LINE",
"481 62 OFFCURVE",
"550 200 OFFCURVE",
"550 358 CURVE SMOOTH",
"550 512 OFFCURVE",
"480 642 OFFCURVE",
"310 642 CURVE",
"310 710 LINE",
"287 710 OFFCURVE",
"287 710 OFFCURVE",
"287 694 CURVE SMOOTH",
"287 642 LINE",
"120 642 OFFCURVE",
"46 504 OFFCURVE",
"46 354 CURVE SMOOTH",
"46 187 OFFCURVE",
"115 61 OFFCURVE",
"287 61 CURVE",
"287 -10 LINE"
);
},
{
closed = 1;
nodes = (
"67 481 OFFCURVE",
"129 621 OFFCURVE",
"287 621 CURVE",
"287 84 LINE",
"123 84 OFFCURVE",
"67 216 OFFCURVE",
"67 342 CURVE SMOOTH"
);
},
{
closed = 1;
nodes = (
"474 621 OFFCURVE",
"526 490 OFFCURVE",
"526 356 CURVE SMOOTH",
"526 223 OFFCURVE",
"465 84 OFFCURVE",
"310 84 CURVE",
"310 620 LINE"
);
}
);
width = 596;
},
{
layerId = UUID1;
name = Bold;
paths = (
{
closed = 1;
nodes = (
"334 -10 OFFCURVE",
"333 -10 OFFCURVE",
"333 10 CURVE",
"333 61 LINE",
"477 85 OFFCURVE",
"541 206 OFFCURVE",
"541 357 CURVE SMOOTH",
"541 511 OFFCURVE",
"480 621 OFFCURVE",
"333 645 CURVE",
"333 710 LINE",
"221 710 OFFCURVE",
"220 710 OFFCURVE",
"220 661 CURVE SMOOTH",
"220 643 LINE",
"77 617 OFFCURVE",
"12 501 OFFCURVE",
"12 354 CURVE SMOOTH",
"12 188 OFFCURVE",
"69 76 OFFCURVE",
"221 57 CURVE",
"221 -10 LINE"
);
},
{
closed = 1;
nodes = (
"129 433 OFFCURVE",
"156 513 OFFCURVE",
"221 537 CURVE",
"221 164 LINE",
"152 185 OFFCURVE",
"129 258 OFFCURVE",
"129 342 CURVE SMOOTH"
);
},
{
closed = 1;
nodes = (
"401 517 OFFCURVE",
"420 444 OFFCURVE",
"420 355 CURVE SMOOTH",
"420 269 OFFCURVE",
"397 192 OFFCURVE",
"332 168 CURVE",
"332 539 LINE"
);
}
);
width = 553;
}
);
unicode = 0424;
},
{
glyphname = "Che-cy";
lastChange = "2012-04-30 21:47:53 +0200";
layers = (
{
layerId = UUID0;
name = Light;
paths = (
{
closed = 1;
nodes = (
"339 700 LINE",
"315 700 OFFCURVE",
"316 699 OFFCURVE",
"316 690 CURVE",
"316 346 LINE",
"272 323 OFFCURVE",
"232 312 OFFCURVE",
"189 312 CURVE SMOOTH",
"89 312 OFFCURVE",
"53 385 OFFCURVE",
"53 475 CURVE",
"53 700 LINE",
"30 700 OFFCURVE",
"30 700 OFFCURVE",
"30 690 CURVE",
"30 458 LINE",
"30 352 OFFCURVE",
"80 290 OFFCURVE",
"187 290 CURVE SMOOTH",
"241 290 OFFCURVE",
"277 302 OFFCURVE",
"316 321 CURVE",
"316 0 LINE",
"339 0 OFFCURVE",
"339 0 OFFCURVE",
"339 10 CURVE"
);
}
);
width = 407;
},
{
layerId = UUID1;
name = Bold;
paths = (
{
closed = 1;
nodes = (
"325 700 LINE",
"216 700 OFFCURVE",
"214 700 OFFCURVE",
"214 680 CURVE",
"214 371 LINE",
"201 365 OFFCURVE",
"187 362 OFFCURVE",
"172 362 CURVE SMOOTH",
"129 362 OFFCURVE",
"121 405 OFFCURVE",
"121 458 CURVE",
"121 700 LINE",
"12 700 OFFCURVE",
"11 700 OFFCURVE",
"11 680 CURVE",
"11 444 LINE",
"11 321 OFFCURVE",
"58 260 OFFCURVE",
"145 260 CURVE SMOOTH",
"168 260 OFFCURVE",
"191 262 OFFCURVE",
"214 268 CURVE",
"214 0 LINE",
"324 0 OFFCURVE",
"325 0 OFFCURVE",
"325 20 CURVE"
);
}
);
width = 356;
}
);
unicode = 0427;
},
{
glyphname = "Tse-cy";
lastChange = "2012-04-30 12:52:55 +0200";
layers = (
{
layerId = UUID0;
name = Light;
paths = (
{
closed = 1;
nodes = (
"68 0 LINE",
"400 0 LINE",
"400 -45 OFFCURVE",
"402 -94 OFFCURVE",
"409 -159 CURVE",
"416 -159 OFFCURVE",
"425 -159 OFFCURVE",
"425 -152 CURVE SMOOTH",
"425 24 LINE",
"381 24 LINE",
"381 700 LINE",
"358 700 OFFCURVE",
"357 700 OFFCURVE",
"357 690 CURVE SMOOTH",
"357 24 LINE",
"92 24 LINE",
"92 700 LINE",
"69 700 OFFCURVE",
"68 700 OFFCURVE",
"68 690 CURVE SMOOTH"
);
}
);
width = 469;
},
{
layerId = UUID1;
name = Bold;
paths = (
{
closed = 1;
nodes = (
"31 0 LINE",
"284 0 LINE",
"291 -61 OFFCURVE",
"303 -105 OFFCURVE",
"317 -147 CURVE",
"372 -147 OFFCURVE",
"395 -147 OFFCURVE",
"395 -115 CURVE SMOOTH",
"395 105 LINE",
"348 105 LINE",
"348 700 LINE",
"238 700 OFFCURVE",
"236 700 OFFCURVE",
"236 680 CURVE SMOOTH",
"236 105 LINE",
"143 105 LINE",
"143 700 LINE",
"32 700 OFFCURVE",
"31 700 OFFCURVE",
"31 680 CURVE SMOOTH"
);
}
);
width = 410;
}
);
unicode = 0426;
},
{
glyphname = "Sha-cy";
lastChange = "2012-04-30 12:53:15 +0200";
layers = (
{
layerId = UUID0;
name = Light;
paths = (
{
closed = 1;
nodes = (
"68 0 LINE",
"494 0 LINE SMOOTH",
"524 0 OFFCURVE",
"540 0 OFFCURVE",
"540 17 CURVE",
"540 700 LINE",
"518 700 OFFCURVE",
"516 700 OFFCURVE",
"516 690 CURVE SMOOTH",
"516 24 LINE",
"316 24 LINE",
"316 700 LINE",
"293 700 OFFCURVE",
"292 700 OFFCURVE",
"292 690 CURVE SMOOTH",
"292 24 LINE",
"92 24 LINE",
"92 700 LINE",
"69 700 OFFCURVE",
"68 700 OFFCURVE",
"68 690 CURVE SMOOTH"
);
}
);
width = 608;
},
{
layerId = UUID1;
name = Bold;
paths = (
{
closed = 1;
nodes = (
"31 0 LINE",
"394 0 LINE SMOOTH",
"508 0 OFFCURVE",
"506 0 OFFCURVE",
"506 52 CURVE",
"506 700 LINE",
"392 700 OFFCURVE",
"397 700 OFFCURVE",
"397 680 CURVE SMOOTH",
"397 105 LINE",
"323 105 LINE",
"323 700 LINE",
"209 700 OFFCURVE",
"214 700 OFFCURVE",
"214 680 CURVE SMOOTH",
"214 105 LINE",
"141 105 LINE",
"141 700 LINE",
"27 700 OFFCURVE",
"31 700 OFFCURVE",
"31 680 CURVE SMOOTH"
);
}
);
width = 537;
}
);
unicode = 0428;
},
{
glyphname = "Shcha-cy";
lastChange = "2012-04-30 12:53:56 +0200";
layers = (
{
layerId = UUID0;
name = Light;
paths = (
{
closed = 1;
nodes = (
"68 0 LINE",
"558 0 LINE",
"558 -37 OFFCURVE",
"560 -97 OFFCURVE",
"568 -158 CURVE",
"577 -158 OFFCURVE",
"584 -157 OFFCURVE",
"584 -151 CURVE SMOOTH",
"584 24 LINE",
"540 24 LINE",
"540 700 LINE",
"518 700 OFFCURVE",
"516 700 OFFCURVE",
"516 690 CURVE SMOOTH",
"516 24 LINE",
"316 24 LINE",
"316 700 LINE",
"293 700 OFFCURVE",
"292 700 OFFCURVE",
"292 690 CURVE SMOOTH",
"292 24 LINE",
"92 24 LINE",
"92 700 LINE",
"69 700 OFFCURVE",
"68 700 OFFCURVE",
"68 690 CURVE SMOOTH"
);
}
);
width = 628;
},
{
layerId = UUID1;
name = Bold;
paths = (
{
closed = 1;
nodes = (
"31 0 LINE",
"442 0 LINE",
"448 -49 OFFCURVE",
"457 -96 OFFCURVE",
"474 -147 CURVE",
"529 -147 OFFCURVE",
"552 -147 OFFCURVE",
"552 -115 CURVE SMOOTH",
"552 105 LINE",
"506 105 LINE",
"506 700 LINE",
"392 700 OFFCURVE",
"397 700 OFFCURVE",
"397 680 CURVE SMOOTH",
"397 105 LINE",
"323 105 LINE",
"323 700 LINE",
"209 700 OFFCURVE",
"214 700 OFFCURVE",
"214 680 CURVE SMOOTH",
"214 105 LINE",
"141 105 LINE",
"141 700 LINE",
"27 700 OFFCURVE",
"31 700 OFFCURVE",
"31 680 CURVE SMOOTH"
);
}
);
width = 567;
}
);
unicode = 0429;
},
{
glyphname = "Ia-cy";
lastChange = "2012-04-30 12:35:58 +0200";
layers = (
{
layerId = UUID0;
name = Light;
paths = (
{
closed = 1;
nodes = (
"69 602 OFFCURVE",
"109 676 OFFCURVE",
"222 676 CURVE SMOOTH",
"278 676 OFFCURVE",
"304 676 OFFCURVE",
"313 676 CURVE",
"313 320 LINE",
"296 320 OFFCURVE",
"279 321 OFFCURVE",
"264 321 CURVE SMOOTH",
"248 321 OFFCURVE",
"231 320 OFFCURVE",
"215 320 CURVE SMOOTH",
"111 319 OFFCURVE",
"69 406 OFFCURVE",
"69 518 CURVE SMOOTH"
);
},
{
closed = 1;
nodes = (
"76 1 OFFCURVE",
"78 3 OFFCURVE",
"80 12 CURVE",
"111 220 OFFCURVE",
"176 285 OFFCURVE",
"190 298 CURVE",
"197 296 OFFCURVE",
"205 296 OFFCURVE",
"213 296 CURVE SMOOTH",
"313 296 LINE",
"313 10 LINE SMOOTH",
"313 0 OFFCURVE",
"313 0 OFFCURVE",
"337 0 CURVE",
"337 690 LINE",
"337 690 OFFCURVE",
"337 700 OFFCURVE",
"327 700 CURVE SMOOTH",
"217 700 LINE SMOOTH",
"91 700 OFFCURVE",
"45 610 OFFCURVE",
"45 518 CURVE SMOOTH",
"45 403 OFFCURVE",
"85 321 OFFCURVE",
"162 300 CURVE",
"137 273 OFFCURVE",
"70 168 OFFCURVE",
"53 0 CURVE",
"58 0 OFFCURVE",
"61 0 OFFCURVE",
"67 0 CURVE SMOOTH"
);
}
);
width = 405;
},
{
layerId = UUID1;
name = Bold;
paths = (
{
closed = 1;
nodes = (
"139 572 OFFCURVE",
"159 603 OFFCURVE",
"190 603 CURVE SMOOTH",
"206 603 OFFCURVE",
"217 600 OFFCURVE",
"217 600 CURVE",
"217 369 LINE",
"217 369 OFFCURVE",
"210 365 OFFCURVE",
"197 365 CURVE SMOOTH",
"192 365 OFFCURVE",
"187 366 OFFCURVE",
"182 368 CURVE SMOOTH",
"158 378 OFFCURVE",
"139 415 OFFCURVE",
"139 508 CURVE SMOOTH"
);
},
{
closed = 1;
nodes = (
"132 -3 OFFCURVE",
"136 3 OFFCURVE",
"136 22 CURVE",
"144 176 OFFCURVE",
"170 226 OFFCURVE",
"193 262 CURVE",
"197 262 OFFCURVE",
"201 262 OFFCURVE",
"205 262 CURVE SMOOTH",
"217 262 LINE",
"217 20 LINE SMOOTH",
"217 0 OFFCURVE",
"215 0 OFFCURVE",
"329 0 CURVE",
"329 680 LINE",
"329 680 OFFCURVE",
"329 700 OFFCURVE",
"309 700 CURVE SMOOTH",
"215 700 LINE SMOOTH",
"89 700 OFFCURVE",
"13 658 OFFCURVE",
"13 494 CURVE SMOOTH",
"13 395 OFFCURVE",
"49 330 OFFCURVE",
"90 298 CURVE",
"57 255 OFFCURVE",
"12 161 OFFCURVE",
"12 0 CURVE",
"37 -2 OFFCURVE",
"67 -3 OFFCURVE",
"85 -3 CURVE SMOOTH"
);
}
);
width = 359;
}
);
unicode = 042F;
},
{
glyphname = "Softsign-cy";
lastChange = "2012-04-30 13:23:45 +0200";
layers = (
{
layerId = UUID0;
name = Light;
paths = (
{
closed = 1;
nodes = (
"92 379 LINE",
"92 379 OFFCURVE",
"185 382 OFFCURVE",
"194 382 CURVE SMOOTH",
"284 382 OFFCURVE",
"356 337 OFFCURVE",
"356 221 CURVE SMOOTH",
"356 58 OFFCURVE",
"274 24 OFFCURVE",
"193 24 CURVE SMOOTH",
"184 24 OFFCURVE",
"92 25 OFFCURVE",
"92 25 CURVE"
);
},
{
closed = 1;
nodes = (
"68 0 LINE",
"189 0 LINE SMOOTH",
"291 0 OFFCURVE",
"379 63 OFFCURVE",
"379 212 CURVE SMOOTH",
"379 336 OFFCURVE",
"316 402 OFFCURVE",
"196 402 CURVE SMOOTH",
"92 402 LINE",
"92 700 LINE",
"69 700 OFFCURVE",
"68 700 OFFCURVE",
"68 681 CURVE SMOOTH"
);
}
);
width = 407;
},
{
layerId = UUID1;
name = Bold;
paths = (
{
closed = 1;
nodes = (
"144 328 LINE",
"144 328 OFFCURVE",
"152 330 OFFCURVE",
"166 330 CURVE SMOOTH",
"197 330 OFFCURVE",
"214 311 OFFCURVE",
"214 234 CURVE SMOOTH",
"214 146 OFFCURVE",
"195 97 OFFCURVE",
"164 97 CURVE SMOOTH",
"151 97 OFFCURVE",
"144 99 OFFCURVE",
"144 99 CURVE"
);
},
{
closed = 1;
nodes = (
"30 0 LINE",
"165 0 LINE SMOOTH",
"270 0 OFFCURVE",
"347 72 OFFCURVE",
"347 230 CURVE SMOOTH",
"347 368 OFFCURVE",
"296 435 OFFCURVE",
"172 435 CURVE SMOOTH",
"144 435 LINE",
"144 700 LINE",
"30 700 OFFCURVE",
"30 700 OFFCURVE",
"30 680 CURVE SMOOTH"
);
}
);
width = 357;
}
);
rightKerningGroup = "Softsign-cy";
unicode = 042C;
},
{
glyphname = "Hardsign-cy";
lastChange = "2012-05-01 19:37:38 +0200";
layers = (
{
layerId = UUID0;
name = Light;
paths = (
{
closed = 1;
nodes = (
"173 0 LINE",
"295 0 LINE SMOOTH",
"397 0 OFFCURVE",
"485 63 OFFCURVE",
"485 212 CURVE SMOOTH",
"485 336 OFFCURVE",
"422 402 OFFCURVE",
"302 402 CURVE SMOOTH",
"197 402 LINE",
"197 700 LINE",
"33 700 LINE",
"28 700 OFFCURVE",
"23 700 OFFCURVE",
"23 688 CURVE SMOOTH",
"23 684 OFFCURVE",
"23 680 OFFCURVE",
"23 675 CURVE",
"173 675 LINE"
);
},
{
closed = 1;
nodes = (
"197 379 LINE",
"197 379 OFFCURVE",
"291 382 OFFCURVE",
"299 382 CURVE SMOOTH",
"389 382 OFFCURVE",
"462 337 OFFCURVE",
"462 221 CURVE SMOOTH",
"462 58 OFFCURVE",
"379 24 OFFCURVE",
"298 24 CURVE SMOOTH",
"290 24 OFFCURVE",
"197 25 OFFCURVE",
"197 25 CURVE"
);
}
);
width = 513;
},
{
layerId = UUID1;
name = Bold;
paths = (
{
closed = 1;
nodes = (
"110 0 LINE",
"245 0 LINE SMOOTH",
"350 0 OFFCURVE",
"427 72 OFFCURVE",
"427 230 CURVE SMOOTH",
"427 368 OFFCURVE",
"376 435 OFFCURVE",
"252 435 CURVE SMOOTH",
"224 435 LINE",
"224 700 LINE",
"36 700 LINE",
"15 700 OFFCURVE",
"10 688 OFFCURVE",
"10 671 CURVE SMOOTH",
"10 642 OFFCURVE",
"10 628 OFFCURVE",
"10 605 CURVE",
"110 605 LINE"
);
},
{
closed = 1;
nodes = (
"224 328 LINE",
"224 328 OFFCURVE",
"232 330 OFFCURVE",
"246 330 CURVE SMOOTH",
"277 330 OFFCURVE",
"294 311 OFFCURVE",
"294 234 CURVE SMOOTH",
"294 146 OFFCURVE",
"275 97 OFFCURVE",
"244 97 CURVE SMOOTH",
"231 97 OFFCURVE",
"224 99 OFFCURVE",
"224 99 CURVE"
);
}
);
width = 437;
}
);
rightKerningGroup = "Softsign-cy";
unicode = 042A;
},
{
glyphname = "Yeru-cy";
lastChange = "2012-04-30 12:35:58 +0200";
layers = (
{
layerId = UUID0;
name = Light;
paths = (
{
closed = 1;
nodes = (
"92 379 LINE",
"92 379 OFFCURVE",
"185 382 OFFCURVE",
"194 382 CURVE SMOOTH",
"284 382 OFFCURVE",
"357 337 OFFCURVE",
"357 221 CURVE SMOOTH",
"357 58 OFFCURVE",
"275 24 OFFCURVE",
"193 24 CURVE SMOOTH",
"184 24 OFFCURVE",
"92 25 OFFCURVE",
"92 25 CURVE"
);
},
{
closed = 1;
nodes = (
"68 0 LINE",
"190 0 LINE SMOOTH",
"292 0 OFFCURVE",
"380 63 OFFCURVE",
"380 212 CURVE SMOOTH",
"380 336 OFFCURVE",
"317 402 OFFCURVE",
"197 402 CURVE SMOOTH",
"92 402 LINE",
"92 700 LINE",
"69 700 OFFCURVE",
"68 700 OFFCURVE",
"68 681 CURVE SMOOTH"
);
},
{
closed = 1;
nodes = (
"487 0 OFFCURVE",
"488 0 OFFCURVE",
"488 10 CURVE SMOOTH",
"488 10 OFFCURVE",
"487 169 OFFCURVE",
"487 350 CURVE SMOOTH",
"487 508 OFFCURVE",
"488 700 OFFCURVE",
"488 700 CURVE",
"465 700 OFFCURVE",
"464 700 OFFCURVE",
"464 684 CURVE SMOOTH",
"464 684 OFFCURVE",
"465 509 OFFCURVE",
"465 350 CURVE SMOOTH",
"465 169 OFFCURVE",
"464 0 OFFCURVE",
"464 0 CURVE"
);
}
);
width = 556;
},
{
layerId = UUID1;
name = Bold;
paths = (
{
closed = 1;
nodes = (
"144 328 LINE",
"144 328 OFFCURVE",
"152 330 OFFCURVE",
"165 330 CURVE SMOOTH",
"191 330 OFFCURVE",
"207 311 OFFCURVE",
"207 234 CURVE SMOOTH",
"207 146 OFFCURVE",
"189 97 OFFCURVE",
"163 97 CURVE SMOOTH",
"151 97 OFFCURVE",
"144 99 OFFCURVE",
"144 99 CURVE"
);
},
{
closed = 1;
nodes = (
"30 0 LINE",
"164 0 LINE SMOOTH",
"265 0 OFFCURVE",
"340 72 OFFCURVE",
"340 230 CURVE SMOOTH",
"340 368 OFFCURVE",
"291 435 OFFCURVE",
"171 435 CURVE SMOOTH",
"144 435 LINE",
"144 700 LINE",
"30 700 OFFCURVE",
"30 700 OFFCURVE",
"30 680 CURVE SMOOTH"
);
},
{
closed = 1;
nodes = (
"484 0 OFFCURVE",
"485 0 OFFCURVE",
"485 20 CURVE SMOOTH",
"485 20 OFFCURVE",
"483 173 OFFCURVE",
"483 350 CURVE SMOOTH",
"483 499 OFFCURVE",
"485 700 OFFCURVE",
"485 700 CURVE",
"373 700 OFFCURVE",
"371 700 OFFCURVE",
"371 651 CURVE SMOOTH",
"371 651 OFFCURVE",
"373 499 OFFCURVE",
"373 350 CURVE SMOOTH",
"373 173 OFFCURVE",
"371 0 OFFCURVE",
"371 0 CURVE"
);
}
);
width = 515;
}
);
unicode = 042B;
},
{
glyphname = "Ereversed-cy";
lastChange = "2012-04-30 20:02:09 +0200";
layers = (
{
background = {
paths = (
{
closed = 1;
nodes = (
"108 354 LINE",
"202 354 OFFCURVE",
"299 325 OFFCURVE",
"299 190 CURVE SMOOTH",
"299 61 OFFCURVE",
"237 11 OFFCURVE",
"164 11 CURVE SMOOTH",
"103 11 OFFCURVE",
"67 49 OFFCURVE",
"57 68 CURVE",
"53 63 OFFCURVE",
"50 53 OFFCURVE",
"50 45 CURVE SMOOTH",
"50 21 OFFCURVE",
"99 -15 OFFCURVE",
"167 -15 CURVE SMOOTH",
"249 -15 OFFCURVE",
"327 43 OFFCURVE",
"327 193 CURVE SMOOTH",
"327 322 OFFCURVE",
"238 353 OFFCURVE",
"226 356 CURVE SMOOTH",
"213 360 OFFCURVE",
"201 362 OFFCURVE",
"188 365 CURVE",
"202 365 OFFCURVE",
"216 371 OFFCURVE",
"231 382 CURVE SMOOTH",
"278 417 OFFCURVE",
"304 468 OFFCURVE",
"304 562 CURVE SMOOTH",
"304 658 OFFCURVE",
"253 715 OFFCURVE",
"167 715 CURVE SMOOTH",
"92 715 OFFCURVE",
"57 680 OFFCURVE",
"57 673 CURVE SMOOTH",
"57 667 OFFCURVE",
"58 659 OFFCURVE",
"63 655 CURVE",
"77 667 OFFCURVE",
"104 691 OFFCURVE",
"163 691 CURVE SMOOTH",
"236 691 OFFCURVE",
"279 641 OFFCURVE",
"279 556 CURVE SMOOTH",
"279 423 OFFCURVE",
"207 370 OFFCURVE",
"108 370 CURVE"
);
}
);
};
layerId = UUID0;
name = Light;
paths = (
{
closed = 1;
nodes = (
"90 710 OFFCURVE",
"52 677 OFFCURVE",
"52 665 CURVE SMOOTH",
"52 658 OFFCURVE",
"56 651 OFFCURVE",
"59 648 CURVE",
"68 659 OFFCURVE",
"102 687 OFFCURVE",
"161 687 CURVE SMOOTH",
"220 687 OFFCURVE",
"302 672 OFFCURVE",
"309 367 CURVE",
"107 367 LINE",
"107 348 OFFCURVE",
"107 344 OFFCURVE",
"115 344 CURVE SMOOTH",
"311 344 LINE",
"311 70 OFFCURVE",
"238 15 OFFCURVE",
"160 15 CURVE SMOOTH",
"109 15 OFFCURVE",
"68 51 OFFCURVE",
"52 76 CURVE",
"49 70 OFFCURVE",
"45 58 OFFCURVE",
"45 52 CURVE SMOOTH",
"45 30 OFFCURVE",
"102 -10 OFFCURVE",
"162 -10 CURVE SMOOTH",
"234 -10 OFFCURVE",
"336 16 OFFCURVE",
"336 329 CURVE SMOOTH",
"336 695 OFFCURVE",
"233 710 OFFCURVE",
"161 710 CURVE SMOOTH"
);
}
);
width = 383;
},
{
layerId = UUID1;
name = Bold;
paths = (
{
closed = 1;
nodes = (
"45 708 OFFCURVE",
"16 681 OFFCURVE",
"16 649 CURVE SMOOTH",
"16 624 OFFCURVE",
"22 601 OFFCURVE",
"32 584 CURVE",
"44 593 OFFCURVE",
"62 601 OFFCURVE",
"84 601 CURVE SMOOTH",
"138 601 OFFCURVE",
"180 589 OFFCURVE",
"185 403 CURVE",
"54 403 LINE",
"54 319 OFFCURVE",
"54 301 OFFCURVE",
"73 301 CURVE SMOOTH",
"184 301 LINE",
"179 173 OFFCURVE",
"156 115 OFFCURVE",
"108 115 CURVE SMOOTH",
"77 115 OFFCURVE",
"49 120 OFFCURVE",
"30 130 CURVE",
"22 113 OFFCURVE",
"15 88 OFFCURVE",
"15 52 CURVE SMOOTH",
"15 16 OFFCURVE",
"61 -10 OFFCURVE",
"121 -10 CURVE SMOOTH",
"235 -10 OFFCURVE",
"304 49 OFFCURVE",
"304 361 CURVE SMOOTH",
"304 651 OFFCURVE",
"220 708 OFFCURVE",
"124 708 CURVE SMOOTH"
);
}
);
width = 318;
}
);
rightKerningGroup = O;
unicode = 042D;
},
{
glyphname = "Iu-cy";
lastChange = "2012-04-30 20:02:13 +0200";
layers = (
{
layerId = UUID0;
name = Light;
paths = (
{
closed = 1;
nodes = (
"92 700 LINE",
"69 700 OFFCURVE",
"67 700 OFFCURVE",
"67 690 CURVE SMOOTH",
"67 0 LINE",
"90 0 OFFCURVE",
"92 0 OFFCURVE",
"92 10 CURVE SMOOTH",
"92 339 LINE",
"197 339 LINE",
"199 76 OFFCURVE",
"253 -10 OFFCURVE",
"376 -10 CURVE SMOOTH",
"505 -10 OFFCURVE",
"561 91 OFFCURVE",
"561 355 CURVE SMOOTH",
"561 615 OFFCURVE",
"512 710 OFFCURVE",
"384 710 CURVE SMOOTH",
"259 710 OFFCURVE",
"199 611 OFFCURVE",
"197 363 CURVE",
"92 363 LINE"
);
},
{
closed = 1;
nodes = (
"220 596 OFFCURVE",
"276 686 OFFCURVE",
"385 686 CURVE SMOOTH",
"489 686 OFFCURVE",
"537 605 OFFCURVE",
"537 358 CURVE SMOOTH",
"537 104 OFFCURVE",
"487 14 OFFCURVE",
"374 14 CURVE SMOOTH",
"268 14 OFFCURVE",
"220 101 OFFCURVE",
"220 343 CURVE SMOOTH"
);
}
);
width = 609;
},
{
layerId = UUID1;
name = Bold;
paths = (
{
closed = 1;
nodes = (
"146 700 LINE",
"32 700 OFFCURVE",
"34 700 OFFCURVE",
"34 680 CURVE SMOOTH",
"34 0 LINE",
"148 0 OFFCURVE",
"146 0 OFFCURVE",
"146 20 CURVE SMOOTH",
"146 307 LINE",
"185 307 LINE",
"190 50 OFFCURVE",
"240 -10 OFFCURVE",
"362 -10 CURVE SMOOTH",
"491 -10 OFFCURVE",
"548 77 OFFCURVE",
"548 358 CURVE SMOOTH",
"548 634 OFFCURVE",
"498 710 OFFCURVE",
"370 710 CURVE SMOOTH",
"252 710 OFFCURVE",
"193 638 OFFCURVE",
"186 409 CURVE",
"146 409 LINE"
);
},
{
closed = 1;
nodes = (
"310 525 OFFCURVE",
"323 595 OFFCURVE",
"367 595 CURVE SMOOTH",
"418 595 OFFCURVE",
"423 528 OFFCURVE",
"423 354 CURVE SMOOTH",
"423 177 OFFCURVE",
"413 106 OFFCURVE",
"366 106 CURVE SMOOTH",
"317 106 OFFCURVE",
"310 173 OFFCURVE",
"310 329 CURVE SMOOTH"
);
}
);
width = 568;
}
);
rightKerningGroup = O;
unicode = 042E;
},
{
glyphname = "Kadescender-cy";
lastChange = "2012-04-30 20:02:17 +0200";
layers = (
{
components = (
{
name = K;
transform = "{1, 0, 0, 1, 0, 0}";
}
);
layerId = UUID0;
name = Light;
paths = (
{
closed = 1;
nodes = (
"382 -29 OFFCURVE",
"382 -94 OFFCURVE",
"392 -158 CURVE",
"397 -158 OFFCURVE",
"408 -158 OFFCURVE",
"408 -152 CURVE SMOOTH",
"408 28 LINE",
"358 28 LINE",
"357 0 LINE",
"382 0 LINE"
);
}
);
width = 402;
},
{
background = {
paths = (
{
closed = 1;
nodes = (
"306 -70 OFFCURVE",
"315 -97 OFFCURVE",
"324 -127 CURVE SMOOTH",
"330 -147 LINE",
"385 -147 OFFCURVE",
"408 -147 OFFCURVE",
"408 -115 CURVE SMOOTH",
"408 105 LINE",
"362 105 LINE",
"298 0 LINE"
);
}
);
};
components = (
{
name = K;
transform = "{1, 0, 0, 1, 0, 0}";
}
);
layerId = UUID1;
name = Bold;
paths = (
{
closed = 1;
nodes = (
"303 -55 OFFCURVE",
"315 -97 OFFCURVE",
"330 -147 CURVE",
"395 -147 OFFCURVE",
"408 -143 OFFCURVE",
"408 -115 CURVE SMOOTH",
"408 105 LINE",
"330 105 LINE",
"285 0 LINE",
"298 0 LINE"
);
}
);
width = 407;
}
);
rightKerningGroup = K;
unicode = 049A;
},
{
glyphname = "Endescender-cy";
lastChange = "2012-04-30 20:02:19 +0200";
layers = (
{
background = {
paths = (
{
closed = 1;
nodes = (
"399 -29 OFFCURVE",
"399 -94 OFFCURVE",
"409 -158 CURVE",
"414 -158 OFFCURVE",
"431 -158 OFFCURVE",
"431 -152 CURVE SMOOTH",
"431 32 LINE",
"381 32 LINE",
"380 0 LINE",
"399 0 LINE"
);
}
);
};
components = (
{
name = H;
transform = "{1, 0, 0, 1, 0, 0}";
}
);
layerId = UUID0;
name = Light;
paths = (
{
closed = 1;
nodes = (
"405 -29 OFFCURVE",
"405 -94 OFFCURVE",
"415 -158 CURVE",
"420 -158 OFFCURVE",
"431 -158 OFFCURVE",
"431 -152 CURVE SMOOTH",
"431 28 LINE",
"381 28 LINE",
"380 0 LINE",
"405 0 LINE"
);
}
);
width = 469;
},
{
components = (
{
name = H;
transform = "{1, 0, 0, 1, 0, 0}";
}
);
layerId = UUID1;
name = Bold;
paths = (
{
closed = 1;
nodes = (
"303 -55 OFFCURVE",
"315 -97 OFFCURVE",
"330 -147 CURVE",
"395 -147 OFFCURVE",
"408 -143 OFFCURVE",
"408 -115 CURVE SMOOTH",
"408 105 LINE",
"330 105 LINE",
"285 0 LINE",
"298 0 LINE"
);
}
);
width = 408;
}
);
unicode = 04A2;
},
{
glyphname = "be-cy";
lastChange = "2012-05-01 19:49:50 +0200";
layers = (
{
layerId = UUID0;
name = Light;
paths = (
{
closed = 1;
nodes = (
"293 486 OFFCURVE",
"337 399 OFFCURVE",
"337 236 CURVE SMOOTH",
"337 98 OFFCURVE",
"282 18 OFFCURVE",
"198 18 CURVE SMOOTH",
"99 18 OFFCURVE",
"56 85 OFFCURVE",
"56 289 CURVE SMOOTH",
"56 369 OFFCURVE",
"121 486 OFFCURVE",
"208 486 CURVE SMOOTH"
);
},
{
closed = 1;
nodes = (
"163 679 LINE SMOOTH",
"62 640 OFFCURVE",
"43 505 OFFCURVE",
"36 455 CURVE",
"35 419 OFFCURVE",
"30 375 OFFCURVE",
"30 315 CURVE SMOOTH",
"30 274 LINE SMOOTH",
"30 97 OFFCURVE",
"68 -10 OFFCURVE",
"195 -10 CURVE SMOOTH",
"301 -10 OFFCURVE",
"363 70 OFFCURVE",
"363 254 CURVE SMOOTH",
"363 432 OFFCURVE",
"299 510 OFFCURVE",
"209 510 CURVE SMOOTH",
"157 510 OFFCURVE",
"87 479 OFFCURVE",
"50 356 CURVE",
"61 516 OFFCURVE",
"91 621 OFFCURVE",
"173 653 CURVE SMOOTH",
"258 687 LINE SMOOTH",
"285 698 OFFCURVE",
"298 704 OFFCURVE",
"298 712 CURVE SMOOTH",
"298 717 OFFCURVE",
"296 722 OFFCURVE",
"293 730 CURVE"
);
}
);
width = 387;
},
{
layerId = UUID1;
name = Bold;
paths = (
{
closed = 1;
nodes = (
"228 396 OFFCURVE",
"236 328 OFFCURVE",
"236 229 CURVE SMOOTH",
"236 149 OFFCURVE",
"223 91 OFFCURVE",
"183 91 CURVE SMOOTH",
"141 91 OFFCURVE",
"127 144 OFFCURVE",
"127 281 CURVE SMOOTH",
"127 370 OFFCURVE",
"157 396 OFFCURVE",
"186 396 CURVE SMOOTH"
);
},
{
closed = 1;
nodes = (
"125 665 LINE SMOOTH",
"66 642 OFFCURVE",
"42 537 OFFCURVE",
"32 469 CURVE",
"23 419 OFFCURVE",
"21 383 OFFCURVE",
"20 304 CURVE SMOOTH",
"20 271 LINE SMOOTH",
"20 97 OFFCURVE",
"46 -10 OFFCURVE",
"185 -10 CURVE SMOOTH",
"295 -10 OFFCURVE",
"345 72 OFFCURVE",
"345 245 CURVE SMOOTH",
"345 439 OFFCURVE",
"307 510 OFFCURVE",
"223 510 CURVE SMOOTH",
"168 510 OFFCURVE",
"135 488 OFFCURVE",
"106 404 CURVE",
"115 468 OFFCURVE",
"128 552 OFFCURVE",
"176 571 CURVE SMOOTH",
"287 616 LINE SMOOTH",
"296 620 OFFCURVE",
"301 625 OFFCURVE",
"304 632 CURVE",
"309 647 OFFCURVE",
"307 677 OFFCURVE",
"287 729 CURVE"
);
}
);
width = 359;
}
);
rightKerningGroup = o;
unicode = 0431;
},
{
glyphname = "ve-cy";
lastChange = "2012-04-30 13:19:56 +0200";
layers = (
{
layerId = UUID0;
name = Light;
paths = (
{
closed = 1;
nodes = (
"67 0 LINE",
"181 0 LINE SMOOTH",
"293 0 OFFCURVE",
"359 58 OFFCURVE",
"359 156 CURVE SMOOTH",
"359 216 OFFCURVE",
"320 240 OFFCURVE",
"299 249 CURVE SMOOTH",
"284 256 OFFCURVE",
"270 259 OFFCURVE",
"259 261 CURVE",
"268 262 OFFCURVE",
"339 298 OFFCURVE",
"339 383 CURVE SMOOTH",
"339 490 OFFCURVE",
"260 500 OFFCURVE",
"189 500 CURVE SMOOTH",
"91 500 LINE SMOOTH",
"71 500 OFFCURVE",
"67 495 OFFCURVE",
"67 490 CURVE SMOOTH"
);
},
{
closed = 1;
nodes = (
"91 246 LINE",
"125 246 OFFCURVE",
"159 246 OFFCURVE",
"193 246 CURVE SMOOTH",
"306 246 OFFCURVE",
"335 205 OFFCURVE",
"335 149 CURVE SMOOTH",
"335 70 OFFCURVE",
"277 20 OFFCURVE",
"180 20 CURVE SMOOTH",
"158 20 OFFCURVE",
"119 20 OFFCURVE",
"91 20 CURVE"
);
},
{
closed = 1;
nodes = (
"91 481 LINE",
"91 481 OFFCURVE",
"132 481 OFFCURVE",
"159 481 CURVE SMOOTH",
"239 481 OFFCURVE",
"315 484 OFFCURVE",
"315 382 CURVE SMOOTH",
"315 294 OFFCURVE",
"251 268 OFFCURVE",
"178 268 CURVE SMOOTH",
"152 268 OFFCURVE",
"124 268 OFFCURVE",
"91 268 CURVE"
);
}
);
width = 405;
},
{
layerId = UUID1;
name = Bold;
paths = (
{
closed = 1;
nodes = (
"33 0 LINE",
"157 0 LINE SMOOTH",
"283 0 OFFCURVE",
"332 76 OFFCURVE",
"332 160 CURVE SMOOTH",
"332 250 OFFCURVE",
"263 261 OFFCURVE",
"251 263 CURVE SMOOTH",
"245 264 OFFCURVE",
"234 265 OFFCURVE",
"224 265 CURVE",
"256 270 OFFCURVE",
"311 296 OFFCURVE",
"311 385 CURVE SMOOTH",
"311 480 OFFCURVE",
"230 500 OFFCURVE",
"151 500 CURVE SMOOTH",
"61 500 LINE SMOOTH",
"39 500 OFFCURVE",
"33 493 OFFCURVE",
"33 480 CURVE SMOOTH"
);
},
{
closed = 1;
nodes = (
"140 222 LINE",
"140 222 OFFCURVE",
"147 224 OFFCURVE",
"161 224 CURVE SMOOTH",
"190 224 OFFCURVE",
"205 216 OFFCURVE",
"205 172 CURVE SMOOTH",
"205 112 OFFCURVE",
"188 89 OFFCURVE",
"159 89 CURVE SMOOTH",
"152 89 OFFCURVE",
"145 89 OFFCURVE",
"140 90 CURVE"
);
},
{
closed = 1;
nodes = (
"140 413 LINE",
"140 413 OFFCURVE",
"149 415 OFFCURVE",
"162 415 CURVE SMOOTH",
"179 415 OFFCURVE",
"194 407 OFFCURVE",
"194 363 CURVE SMOOTH",
"194 316 OFFCURVE",
"175 296 OFFCURVE",
"158 296 CURVE SMOOTH",
"150 296 OFFCURVE",
"144 296 OFFCURVE",
"140 297 CURVE"
);
}
);
width = 345;
}
);
unicode = 0432;
},
{
glyphname = "ge-cy";
lastChange = "2012-04-30 12:35:58 +0200";
layers = (
{
anchors = (
{
name = top;
position = "{156, 500}";
}
);
layerId = UUID0;
name = Light;
paths = (
{
closed = 1;
nodes = (
"47 0 LINE",
"74 0 OFFCURVE",
"72 0 OFFCURVE",
"72 10 CURVE",
"72 476 LINE",
"289 476 LINE",
"296 476 OFFCURVE",
"296 480 OFFCURVE",
"296 500 CURVE",
"56 500 LINE",
"48 500 OFFCURVE",
"47 497 OFFCURVE",
"47 476 CURVE"
);
}
);
width = 312;
},
{
anchors = (
{
name = top;
position = "{137, 500}";
}
);
layerId = UUID1;
name = Bold;
paths = (
{
closed = 1;
nodes = (
"33 0 LINE",
"147 0 OFFCURVE",
"145 0 OFFCURVE",
"145 20 CURVE",
"145 405 LINE",
"246 405 LINE",
"267 405 OFFCURVE",
"268 414 OFFCURVE",
"268 500 CURVE",
"56 500 LINE",
"34 500 OFFCURVE",
"33 490 OFFCURVE",
"33 405 CURVE"
);
}
);
width = 274;
}
);
unicode = 0433;
},
{
glyphname = "de-cy";
lastChange = "2012-05-01 19:46:29 +0200";
layers = (
{
layerId = UUID0;
name = Light;
paths = (
{
closed = 1;
nodes = (
"12 14 LINE SMOOTH",
"12 24 OFFCURVE",
"33 24 OFFCURVE",
"61 24 CURVE",
"137 159 OFFCURVE",
"132 371 OFFCURVE",
"138 490 CURVE",
"138 503 OFFCURVE",
"146 500 OFFCURVE",
"220 500 CURVE SMOOTH",
"377 500 LINE",
"377 24 LINE",
"430 24 LINE",
"430 -147 LINE SMOOTH",
"430 -150 OFFCURVE",
"414 -150 OFFCURVE",
"414 -150 CURVE",
"405 -84 OFFCURVE",
"406 -28 OFFCURVE",
"407 0 CURVE",
"35 0 LINE",
"36 -57 OFFCURVE",
"31 -129 OFFCURVE",
"27 -146 CURVE SMOOTH",
"26 -150 OFFCURVE",
"11 -150 OFFCURVE",
"12 -150 CURVE"
);
},
{
closed = 1;
nodes = (
"353 476 LINE",
"162 476 LINE",
"148 307 OFFCURVE",
"158 165 OFFCURVE",
"86 24 CURVE",
"353 24 LINE"
);
}
);
width = 457;
},
{
layerId = UUID1;
name = Bold;
paths = (
{
closed = 1;
nodes = (
"5 84 LINE SMOOTH",
"5 103 OFFCURVE",
"9 102 OFFCURVE",
"50 104 CURVE",
"77 169 OFFCURVE",
"93 274 OFFCURVE",
"99 480 CURVE",
"99 500 OFFCURVE",
"96 500 OFFCURVE",
"211 500 CURVE SMOOTH",
"360 500 LINE",
"360 104 LINE",
"399 104 LINE",
"399 -97 LINE SMOOTH",
"399 -128 OFFCURVE",
"377 -128 OFFCURVE",
"323 -128 CURVE",
"309 -85 OFFCURVE",
"295 -37 OFFCURVE",
"291 0 CURVE",
"113 0 LINE",
"106 -49 OFFCURVE",
"95 -88 OFFCURVE",
"90 -103 CURVE SMOOTH",
"82 -128 OFFCURVE",
"60 -128 OFFCURVE",
"5 -128 CURVE"
);
},
{
closed = 1;
nodes = (
"245 405 LINE",
"204 405 LINE",
"196 277 OFFCURVE",
"182 175 OFFCURVE",
"158 104 CURVE",
"245 104 LINE"
);
}
);
width = 417;
}
);
unicode = 0434;
},
